<?xml version="1.0" encoding="UTF-8" standalone="no"?>
<svg
   viewBox="0 0 24 24"
   version="1.1"
   id="svg1"
   sodipodi:docname="battery-50.svg"
   inkscape:version="1.3.2 (091e20ef0f, 2023-11-25, custom)"
   xmlns:inkscape="http://www.inkscape.org/namespaces/inkscape"
   xmlns:sodipodi="http://sodipodi.sourceforge.net/DTD/sodipodi-0.dtd"
   xmlns="http://www.w3.org/2000/svg"
   xmlns:svg="http://www.w3.org/2000/svg">
  <defs
     id="defs1" />
  <sodipodi:namedview
     id="namedview1"
     pagecolor="#ffffff"
     bordercolor="#000000"
     borderopacity="0.25"
     inkscape:showpageshadow="2"
     inkscape:pageopacity="0.0"
     inkscape:pagecheckerboard="0"
     inkscape:deskcolor="#d1d1d1"
     inkscape:zoom="9.8333333"
     inkscape:cx="11.949153"
     inkscape:cy="11.949153"
     inkscape:window-width="1914"
     inkscape:window-height="1055"
     inkscape:window-x="3"
     inkscape:window-y="22"
     inkscape:window-maximized="1"
     inkscape:current-layer="svg1"
     showgrid="false" />
  <path
     d="M16,13H8V6H16M16.67,4H15V2H9V4H7.33A1.33,1.33 0 0,0 6,5.33V20.67C6,21.4 6.6,22 7.33,22H16.67A1.33,1.33 0 0,0 18,20.67V5.33C18,4.6 17.4,4 16.67,4Z"
     id="path1" />
  <path
     style="fill:#d7eef4;stroke:#ffffff;stroke-width:0.10687"
     d="M 6.7689827,21.780278 C 6.5784143,21.678075 6.338874,21.438535 6.236671,21.247967 6.0612419,20.92086 6.0508687,20.457683 6.0512276,12.967688 6.051596,5.2782183 6.0577209,5.0238724 6.2501202,4.708327 6.5616567,4.1973902 6.9215329,4.0677966 8.0288481,4.0677966 H 9 V 3.0508475 2.0338983 h 3 3 v 1.0169492 1.0169491 h 0.971152 c 1.107315,0 1.467191,0.1295936 1.778727,0.6405304 0.1924,0.3155454 0.198525,0.5698913 0.198893,8.259361 3.6e-4,7.499561 -0.0098,7.953184 -0.18621,8.288136 -0.378477,0.71875 -0.306991,0.709943 -5.764149,0.71012 -4.5350439,1.47e-4 -4.9076287,-0.01308 -5.2294303,-0.185666 z M 16.016949,9.5084746 V 6 H 12 7.9830508 V 9.5084746 13.016949 H 12 16.016949 Z"
     id="path2" />
  <path
     style="fill:#d7eef4;stroke:#ffffff;stroke-width:0.10687"
     d="M 7.0694049,21.763436 C 6.5342391,21.632829 6.2826583,21.271078 6.2055026,20.52122 6.1692916,20.169295 6.1540027,16.517797 6.1715271,12.40678 6.2055813,4.4181241 6.1870699,4.698959 6.701499,4.3665851 6.8351605,4.2802261 7.3248822,4.2132111 8.0084746,4.1877346 L 9.1016949,4.1469917 V 3.1412925 2.1355932 H 12 14.898305 v 1.0056993 1.0056992 l 1.118291,0.038277 c 1.105257,0.03783 1.122149,0.042133 1.449153,0.3691287 l 0.330861,0.3308521 v 8.0065275 c 0,6.395919 -0.02695,8.07036 -0.133992,8.323845 -0.252266,0.597412 -0.229573,0.594853 -5.459228,0.615456 -2.6288137,0.01036 -4.9391069,-0.02008 -5.1339851,-0.06764 z M 16.118644,9.5084746 V 5.8983051 H 12 7.8813559 V 9.5084746 13.118644 H 12 16.118644 Z"
     id="path3" />
  <path
     style="fill:#eceff4;fill-opacity:0.960784;stroke:#ffffff;stroke-width:0.010762"
     d="M 7.5050675,21.694145 C 6.9583736,21.657235 6.8410562,21.611779 6.6226858,21.352261 6.4562928,21.154514 6.3475291,20.866455 6.3021638,20.503364 6.1829969,19.549583 6.3047531,5.1709982 6.4346121,4.8621155 6.6095843,4.4459263 6.9180327,4.3407619 8.1101695,4.2908403 l 1.0932204,-0.04578 V 3.2411745 2.2372881 H 12 14.79661 v 1.0169492 1.0169492 h 0.969368 c 1.03265,0 1.487291,0.1237514 1.817939,0.4948359 0.188574,0.2116352 0.192395,0.4438391 0.134501,8.1750526 -0.03886,5.189827 -0.09689,8.055126 -0.16684,8.238715 -0.05899,0.154817 -0.23392,0.332383 -0.388738,0.394594 -0.280692,0.112791 -8.2899503,0.212109 -9.6577725,0.119761 z M 16.220339,9.5084746 V 5.7966102 H 12 7.779661 V 9.5084746 13.220339 H 12 16.220339 Z"
     id="path4" />
</svg>
