<?xml version="1.0" encoding="UTF-8" standalone="no"?>
<svg
   viewBox="0 0 24 24"
   version="1.1"
   id="svg1"
   sodipodi:docname="battery-charging.svg"
   inkscape:version="1.3.2 (091e20ef0f, 2023-11-25, custom)"
   xmlns:inkscape="http://www.inkscape.org/namespaces/inkscape"
   xmlns:sodipodi="http://sodipodi.sourceforge.net/DTD/sodipodi-0.dtd"
   xmlns="http://www.w3.org/2000/svg"
   xmlns:svg="http://www.w3.org/2000/svg">
  <defs
     id="defs1" />
  <sodipodi:namedview
     id="namedview1"
     pagecolor="#ffffff"
     bordercolor="#000000"
     borderopacity="0.25"
     inkscape:showpageshadow="2"
     inkscape:pageopacity="0.0"
     inkscape:pagecheckerboard="0"
     inkscape:deskcolor="#d1d1d1"
     inkscape:zoom="9.8333333"
     inkscape:cx="11.949153"
     inkscape:cy="11.949153"
     inkscape:window-width="1914"
     inkscape:window-height="1055"
     inkscape:window-x="3"
     inkscape:window-y="22"
     inkscape:window-maximized="1"
     inkscape:current-layer="svg1"
     showgrid="false" />
  <path
     d="M16.67,4H15V2H9V4H7.33A1.33,1.33 0 0,0 6,5.33V20.66C6,21.4 6.6,22 7.33,22H16.66C17.4,22 18,21.4 18,20.67V5.33C18,4.6 17.4,4 16.67,4M11,20V14.5H9L13,7V12.5H15"
     id="path1" />
  <path
     style="fill:#d7eef4;stroke:#ffffff;stroke-width:0.10687"
     d="M 6.7689827,21.780278 C 6.5784143,21.678075 6.338874,21.438535 6.236671,21.247967 6.0612419,20.92086 6.0508687,20.457683 6.0512276,12.967688 6.051596,5.2782183 6.0577209,5.0238724 6.2501202,4.708327 6.5616567,4.1973902 6.9215329,4.0677966 8.0288481,4.0677966 H 9 V 3.0508475 2.0338983 h 3 3 v 1.0169492 1.0169491 h 0.971152 c 1.107315,0 1.467191,0.1295936 1.778727,0.6405304 0.1924,0.3155454 0.198525,0.5698913 0.198893,8.259361 3.59e-4,7.489995 -0.01001,7.953172 -0.185444,8.280279 -0.102202,0.190568 -0.341742,0.430108 -0.53231,0.532311 -0.321795,0.17258 -0.694614,0.185824 -5.231018,0.185824 -4.536404,0 -4.9092237,-0.01324 -5.2310173,-0.185824 z M 13.055316,16.284075 C 14.124892,14.275722 15,12.581732 15,12.519652 15,12.444874 14.673948,12.40678 14.033898,12.40678 H 13.067797 V 9.640678 c 0,-1.6227837 -0.03745,-2.7261697 -0.0906,-2.6694916 C 12.845011,7.1121353 9,14.34372 9,14.451377 c 0,0.05005 0.4347458,0.091 0.9661017,0.091 h 0.9661013 v 2.751765 c 0,1.551978 0.0389,2.727724 0.08922,2.696626 0.04907,-0.03032 0.964322,-1.698335 2.033898,-3.706689 z"
     id="path2" />
  <path
     style="fill:#eceff4;fill-opacity:0.960784;stroke:#ffffff;stroke-width:0.010762"
     d="M 7.0694049,21.762606 C 6.5345786,21.633335 6.2826896,21.271382 6.2055026,20.52122 6.1692916,20.169295 6.1540027,16.517797 6.1715272,12.40678 6.2055813,4.4181241 6.18707,4.698959 6.701499,4.3665851 6.8351605,4.2802261 7.3248822,4.2132111 8.0084746,4.1877346 L 9.1016949,4.1469917 V 3.1412925 2.1355932 H 12 14.898305 v 1.0056993 1.0056992 l 1.118292,0.038277 c 1.105265,0.037831 1.122145,0.04213 1.449152,0.3691377 l 0.330861,0.3308612 v 8.0618384 c 0,7.506673 -0.01225,8.080543 -0.177966,8.33345 -0.352916,0.538617 -0.285164,0.531731 -5.415254,0.550348 -2.6288137,0.0095 -4.9391069,-0.02119 -5.1339851,-0.0683 z m 4.9483611,-3.358895 c 1.487624,-2.709468 3.109953,-5.903106 3.036226,-5.976964 -0.03888,-0.03895 -0.478797,-0.08681 -0.977595,-0.106357 L 13.169492,12.28485 V 9.9178477 c 0,-2.3252503 -0.04698,-3.0025934 -0.208245,-3.0025934 -0.161331,0 -4.1226034,7.4996037 -4.0170973,7.6052927 0.039901,0.03997 0.4806549,0.08867 0.9794531,0.108216 l 0.9069062,0.03554 v 2.367 c 0,2.392767 0.04892,3.037134 0.226102,2.978074 0.05357,-0.01786 0.486087,-0.740406 0.961155,-1.605668 z"
     id="path3" />
</svg>
