<?xml version="1.0" encoding="UTF-8" standalone="no"?>
<svg
   viewBox="0 0 24 24"
   version="1.1"
   id="svg1"
   sodipodi:docname="battery-low.svg"
   inkscape:version="1.3.2 (091e20ef0f, 2023-11-25, custom)"
   xmlns:inkscape="http://www.inkscape.org/namespaces/inkscape"
   xmlns:sodipodi="http://sodipodi.sourceforge.net/DTD/sodipodi-0.dtd"
   xmlns="http://www.w3.org/2000/svg"
   xmlns:svg="http://www.w3.org/2000/svg">
  <defs
     id="defs1" />
  <sodipodi:namedview
     id="namedview1"
     pagecolor="#ffffff"
     bordercolor="#000000"
     borderopacity="0.25"
     inkscape:showpageshadow="2"
     inkscape:pageopacity="0.0"
     inkscape:pagecheckerboard="0"
     inkscape:deskcolor="#d1d1d1"
     showgrid="false"
     inkscape:zoom="35.791667"
     inkscape:cx="12"
     inkscape:cy="12"
     inkscape:window-width="1914"
     inkscape:window-height="1055"
     inkscape:window-x="3"
     inkscape:window-y="22"
     inkscape:window-maximized="1"
     inkscape:current-layer="svg1" />
  <path
     d="M16 20H8V6H16M16.67 4H15V2H9V4H7.33C6.6 4 6 4.6 6 5.33V20.67C6 21.4 6.6 22 7.33 22H16.67C17.41 22 18 21.41 18 20.67V5.33C18 4.6 17.4 4 16.67 4M15 16H9V19H15V16"
     id="path1" />
  <path
     style="fill:#bf616a;fill-opacity:0.960784;stroke:#ffffff;stroke-width:0.00295674"
     d="M 7.0395869,21.949386 C 6.5872834,21.839502 6.2137787,21.489186 6.0770926,21.046648 6.0214289,20.86643 6.0209574,20.798523 6.0212862,13.009862 6.0215628,6.4583559 6.0279531,5.1310385 6.059794,5.0114568 6.161476,4.6295794 6.424926,4.3179685 6.7958402,4.1408548 l 0.2169654,-0.1036022 0.9988358,-0.0083 0.9988359,-0.0083 V 3.016146 2.0116414 H 12 14.989523 v 1.0058208 1.0058207 h 0.945501 c 1.000589,0 1.04244,0.00442 1.328096,0.1402557 0.300615,0.142949 0.583804,0.4975889 0.677086,0.8479182 0.03184,0.1195814 0.03823,1.4465702 0.03851,7.9962782 3.01e-4,7.141098 -0.0038,7.866658 -0.04469,8.004656 -0.13959,0.470477 -0.47778,0.806544 -0.930587,0.924747 -0.170438,0.04449 -0.536087,0.04794 -5.003433,0.04723 -3.7052529,-5.89e-4 -4.8521241,-0.0087 -4.9604131,-0.03499 z M 16.023283,12.991851 V 5.9790454 H 12 7.9767171 v 7.0128056 7.012806 H 12 16.023283 Z"
     id="path2" />
  <path
     style="fill:#bf616a;fill-opacity:0.960784;stroke:#ffffff;stroke-width:0.00295674"
     d="M 9.0104773,17.504075 V 16.009313 H 12 14.989523 v 1.494762 1.494761 H 12 9.0104773 Z"
     id="path3" />
</svg>
