<?xml version="1.0" encoding="UTF-8" standalone="no"?>
<svg
   viewBox="0 0 24 24"
   version="1.1"
   id="svg1"
   sodipodi:docname="brightness-4.svg"
   inkscape:version="1.3.2 (091e20ef0f, 2023-11-25, custom)"
   xmlns:inkscape="http://www.inkscape.org/namespaces/inkscape"
   xmlns:sodipodi="http://sodipodi.sourceforge.net/DTD/sodipodi-0.dtd"
   xmlns="http://www.w3.org/2000/svg"
   xmlns:svg="http://www.w3.org/2000/svg">
  <defs
     id="defs1" />
  <sodipodi:namedview
     id="namedview1"
     pagecolor="#ffffff"
     bordercolor="#000000"
     borderopacity="0.25"
     inkscape:showpageshadow="2"
     inkscape:pageopacity="0.0"
     inkscape:pagecheckerboard="0"
     inkscape:deskcolor="#d1d1d1"
     showgrid="false"
     inkscape:zoom="35.791667"
     inkscape:cx="12"
     inkscape:cy="12"
     inkscape:window-width="1914"
     inkscape:window-height="1055"
     inkscape:window-x="3"
     inkscape:window-y="22"
     inkscape:window-maximized="1"
     inkscape:current-layer="svg1" />
  <path
     d="M12,18C11.11,18 10.26,17.8 9.5,17.45C11.56,16.5 13,14.42 13,12C13,9.58 11.56,7.5 9.5,6.55C10.26,6.2 11.11,6 12,6A6,6 0 0,1 18,12A6,6 0 0,1 12,18M20,8.69V4H15.31L12,0.69L8.69,4H4V8.69L0.69,12L4,15.31V20H8.69L12,23.31L15.31,20H20V15.31L23.31,12L20,8.69Z"
     id="path1" />
  <path
     style="fill:#dbdee3;fill-opacity:0.961992;stroke:#ffffff;stroke-width:0.0293613"
     d="M 10.351572,21.625146 8.7033209,19.976717 H 6.3633019 4.0232829 V 17.636698 15.296679 L 2.3748538,13.648428 0.7264246,12.000176 2.3748538,10.351572 4.0232829,8.7029686 V 6.3631256 4.0232829 h 2.3398427 2.339843 l 1.6486034,-1.6484291 1.648604,-1.6484292 1.648252,1.6484292 1.648251,1.6484291 h 2.340019 2.340019 v 2.3398427 2.339843 l 1.648429,1.6486034 1.648429,1.648604 -1.648429,1.648252 -1.648429,1.648251 v 2.340019 2.340019 h -2.339843 -2.339843 l -1.648603,1.648429 -1.648604,1.648429 z m 2.109429,-3.633006 c 2.41191,-0.183389 4.474282,-1.791954 5.238739,-4.086 0.952948,-2.859684 -0.34632,-5.9737829 -3.045491,-7.2994644 -1.318392,-0.64752 -2.837273,-0.7914829 -4.244994,-0.402349 -0.325088,0.089864 -0.8709694,0.2932222 -0.8960534,0.333809 -0.00828,0.013394 0.098337,0.082916 0.2369216,0.1544921 1.3596408,0.7022272 2.4468698,1.9777861 2.9320758,3.4399723 0.916001,2.760401 -0.311195,5.780204 -2.9104537,7.16185 -0.1498709,0.07966 -0.2659675,0.155402 -0.2579925,0.168306 0.02378,0.03848 0.5650952,0.241135 0.8811172,0.329872 0.68029,0.191022 1.339984,0.254724 2.066131,0.199512 z"
     id="path2" />
  <path
     style="fill:#eceff4;fill-opacity:0.960784;stroke:#ffffff;stroke-width:0.00295674"
     d="M 10.351571,21.583236 8.7172919,19.948777 H 6.3772724 4.0372526 v -2.340019 -2.34002 L 2.4027932,13.634458 0.76833376,12.000178 2.4027932,10.365542 4.0372526,8.7309066 V 6.3910644 4.0512223 H 6.3770947 8.7169368 L 10.358468,2.4098676 12,0.76851285 13.641531,2.4098676 15.283063,4.0512223 h 2.339842 2.339842 v 2.3398421 2.3398422 l 1.63446,1.6346354 1.634459,1.634636 -1.634459,1.63428 -1.63446,1.63428 v 2.34002 2.340019 h -2.34002 -2.340019 l -1.63428,1.634459 C 12.749575,22.482188 12.007782,23.217695 12,23.217695 c -0.0078,0 -0.749575,-0.735507 -1.648429,-1.634459 z m 2.374855,-3.592983 c 1.083521,-0.12654 2.186648,-0.589266 3.059371,-1.283306 0.48645,-0.386853 0.979876,-0.946537 1.341685,-1.521848 0.849726,-1.351144 1.121144,-3.092439 0.725381,-4.653716 C 17.345699,8.5306342 15.897763,6.9554514 13.955762,6.2917994 12.77178,5.8871896 11.458733,5.8603504 10.283013,6.2167272 9.8769264,6.3398173 9.5070598,6.4869692 9.4922754,6.5313228 c -0.011531,0.034592 0.024441,0.058607 0.5103966,0.3407483 1.361258,0.7903342 2.395061,2.1743838 2.776366,3.7169859 0.33191,1.342768 0.181826,2.738227 -0.429208,3.990723 -0.551098,1.129643 -1.427106,2.051035 -2.5151386,2.645446 -0.245893,0.134336 -0.3492433,0.205309 -0.3492433,0.239835 0,0.06913 0.8490889,0.356959 1.3522809,0.458401 0.600552,0.12107 1.232553,0.143419 1.888697,0.06679 z"
     id="path3" />
</svg>
