<?xml version="1.0" encoding="UTF-8" standalone="no"?>
<svg
   viewBox="0 0 24 24"
   version="1.1"
   id="svg1"
   sodipodi:docname="brightness-2.svg"
   inkscape:version="1.3.2 (091e20ef0f, 2023-11-25, custom)"
   xmlns:inkscape="http://www.inkscape.org/namespaces/inkscape"
   xmlns:sodipodi="http://sodipodi.sourceforge.net/DTD/sodipodi-0.dtd"
   xmlns="http://www.w3.org/2000/svg"
   xmlns:svg="http://www.w3.org/2000/svg">
  <defs
     id="defs1" />
  <sodipodi:namedview
     id="namedview1"
     pagecolor="#ffffff"
     bordercolor="#000000"
     borderopacity="0.25"
     inkscape:showpageshadow="2"
     inkscape:pageopacity="0.0"
     inkscape:pagecheckerboard="0"
     inkscape:deskcolor="#d1d1d1"
     showgrid="false"
     inkscape:zoom="35.791667"
     inkscape:cx="12"
     inkscape:cy="12"
     inkscape:window-width="1914"
     inkscape:window-height="1055"
     inkscape:window-x="3"
     inkscape:window-y="22"
     inkscape:window-maximized="1"
     inkscape:current-layer="svg1" />
  <path
     d="M10,2C8.18,2 6.47,2.5 5,3.35C8,5.08 10,8.3 10,12C10,15.7 8,18.92 5,20.65C6.47,21.5 8.18,22 10,22A10,10 0 0,0 20,12A10,10 0 0,0 10,2Z"
     id="path1" />
  <path
     style="fill:#f2f1f1;fill-opacity:0.96078402;stroke:#ffffff;stroke-width:0.00295674;stroke-dasharray:none;stroke-opacity:1"
     d="M 9.2577745,21.959582 C 7.9475469,21.849804 6.7575893,21.516045 5.5482953,20.919148 5.0814271,20.688706 5.0386925,20.661686 5.0872941,20.627668 c 0.029462,-0.02062 0.2421588,-0.162276 0.4726593,-0.314786 0.549291,-0.363438 0.9454356,-0.683345 1.4268679,-1.152269 1.7028869,-1.658645 2.7060039,-3.727652 2.9772565,-6.140823 0.046642,-0.414948 0.046642,-1.624632 0,-2.03958 C 9.6934611,8.5726944 8.6866318,6.4926242 6.995623,4.8474971 6.5049607,4.3701478 6.1109183,4.0516634 5.5599534,3.6871184 5.3294529,3.534608 5.1168168,3.3930013 5.0874289,3.3724368 5.0390071,3.3385531 5.0822392,3.3111783 5.54843,3.0805286 8.3063832,1.7160206 11.362204,1.6579119 14.145534,2.9170481 16.872479,4.1506766 18.944522,6.6394793 19.684841,9.5705029 19.886788,10.370038 19.973806,11.101294 19.973948,12 c 1.09e-4,0.687088 -0.02571,1.022593 -0.125775,1.634459 -0.334204,2.043514 -1.318171,3.949792 -2.804996,5.434226 -1.588421,1.585867 -3.641815,2.577015 -5.9093,2.852347 -0.423005,0.05136 -1.4671053,0.07282 -1.8761025,0.03855 z"
     id="path2" />
  <path
     style="fill:#eceff4;fill-opacity:0.960784;stroke:#ffffff;stroke-width:0.00295674"
     d="M 8.9545983,21.915622 C 7.9609164,21.795615 7.0358252,21.550844 6.1529584,21.174333 5.7036091,20.982702 5.0987018,20.683935 5.0995192,20.654034 c 3.118e-4,-0.01141 0.1723734,-0.133894 0.3823591,-0.272195 0.9404766,-0.619415 1.6987585,-1.30803 2.3747979,-2.156614 1.0677388,-1.340257 1.7440149,-2.868106 2.0320236,-4.590766 0.1729402,-1.034403 0.1729402,-2.234515 0,-3.268918 C 9.6011938,8.6458879 8.9223268,7.1119074 7.8543025,5.7685793 7.1945643,4.9387809 6.4172807,4.2342335 5.4818783,3.6181606 5.2718926,3.4798603 5.099831,3.3573728 5.0995192,3.3459662 5.0992074,3.3345596 5.2466821,3.2512742 5.4272409,3.1608875 6.6194301,2.5640843 7.7605417,2.2204808 9.0104772,2.0819286 9.4549891,2.0326555 10.484449,2.026082 10.926463,2.0696942 c 3.302705,0.325868 6.169675,2.2119412 7.798737,5.1305002 0.618273,1.1076726 1.035409,2.4073092 1.181861,3.6822266 0.04892,0.425896 0.06551,1.446967 0.03063,1.885914 -0.262477,3.303469 -2.15151,6.265557 -5.045958,7.912283 -1.202766,0.684285 -2.730424,1.152985 -4.079529,1.251638 -0.515018,0.03766 -1.4795556,0.02902 -1.8576067,-0.01663 z"
     id="path3" />
</svg>
