<?xml version="1.0" encoding="UTF-8" standalone="no"?>
<!-- Uploaded to: SVG Repo, www.svgrepo.com, Generator: SVG Repo Mixer Tools -->

<svg
   width="800"
   height="800"
   viewBox="0 0 24 24"
   fill="none"
   version="1.1"
   id="svg2"
   xmlns="http://www.w3.org/2000/svg"
   xmlns:svg="http://www.w3.org/2000/svg">
  <defs
     id="defs2" />
  <path
     fill-rule="evenodd"
     clip-rule="evenodd"
     d="m 21.7957,3.191 c 0.2724,-0.27245 0.2724,-0.7142 0,-0.98666 -0.2725,-0.27245 -0.7142,-0.27245 -0.9867,0 l -2.8233,2.82332 c -1.1922,-0.92579 -2.597,-1.59181 -4.1389,-1.9092 -1.2189,-0.25092 -2.4746,-0.25092 -3.6936,0 C 5.65611,4.04418 2.33637,7.9279 2.02427,12.584 l -0.02424,0.3616 v 3.7249 l 10e-6,0.0028 v 1.31 c -10e-6,0.8396 0.33017,1.604 0.86808,2.1619 L 2.20434,20.809 c -0.27245,0.2725 -0.27245,0.7142 0,0.9867 0.27246,0.2724 0.71421,0.2724 0.98666,0 z m -8.2302,1.29415 c 1.2668,0.26076 2.4269,0.79499 3.4245,1.5382 L 9.09702,13.9163 C 8.60981,12.7288 7.61421,11.8052 6.36174,11.4424 L 6.09109,11.364 C 5.74679,11.2643 5.39047,11.2137 5.0323,11.2137 c -0.53987,0 -1.04431,0.1426 -1.48084,0.3918 0.66174,-3.55804 3.36609,-6.39638 6.88314,-7.12035 1.0333,-0.21271 2.0976,-0.21271 3.1309,0 z"
     fill="#363853"
     id="path1" />
  <path
     d="M 20.5052,7.87394 C 20.3071,7.54348 19.8785,7.43623 19.5481,7.63439 c -0.3305,0.19815 -0.4377,0.62668 -0.2396,0.95714 0.5467,0.91165 0.9383,1.92947 1.14,3.01397 -0.4365,-0.2492 -0.9409,-0.3918 -1.4808,-0.3918 -0.3581,0 -0.7145,0.0506 -1.0588,0.1503 l -0.2706,0.0784 c -1.5349,0.4445 -2.6838,1.731 -2.9846,3.3144 -0.1738,0.9147 -0.1738,1.8551 0,2.7698 0.3008,1.5834 1.4497,2.8699 2.9846,3.3144 l 0.2706,0.0784 c 0.3443,0.0997 0.7007,0.1504 1.0588,0.1504 1.6897,0 3.0323,-1.3971 3.0323,-3.0865 V 16.6747 16.6705 12.9456 L 21.9758,12.584 C 21.8611,10.8731 21.3406,9.2671 20.5052,7.87394 Z"
     fill="#363853"
     id="path2" />
  <path
     style="fill:#d8dee9;stroke:#d8dee9;stroke-width:0.0298879"
     d="M 2.536235,21.968998 C 2.143216,21.875278 1.909435,21.4197 2.06342,21.047608 2.09082,20.981398 2.2681367,20.777124 2.5021619,20.542166 L 2.8949186,20.147844 2.7694267,20.011702 C 2.478592,19.696183 2.2226927,19.20284 2.0999499,18.721032 l -0.067571,-0.265241 v -2.988792 c 0,-2.275087 0.0093,-3.063731 0.038937,-3.302615 C 2.2018184,11.112567 2.3998084,10.317676 2.7561404,9.4149489 3.2950989,8.0495583 4.0808673,6.8572926 5.1070101,5.8479171 6.5467533,4.4316999 8.3075937,3.4952637 10.252079,3.1117071 c 1.078427,-0.2127235 2.417415,-0.2127235 3.495842,0 1.391848,0.2745471 2.78435,0.8758458 3.907399,1.6872621 0.169026,0.1221231 0.320822,0.222078 0.337325,0.2221215 0.0165,3e-5 0.675531,-0.646404 1.464508,-1.4365512 0.788977,-0.7901473 1.481577,-1.4609841 1.539111,-1.4907487 0.238043,-0.1231484 0.493039,-0.1008857 0.718959,0.06277 0.237631,0.1721394 0.334921,0.5508562 0.209956,0.8172878 -0.03927,0.083724 -2.880662,2.9421432 -9.481287,9.5381014 -9.0141012,9.00773 -9.4313298,9.420012 -9.5654707,9.452055 -0.1554087,0.03712 -0.2044484,0.03784 -0.3421863,0.005 z M 13.05752,9.986067 C 15.32114,7.7223975 16.990588,6.030528 16.979054,6.0118647 16.947759,5.9612295 16.378645,5.5879542 16.04291,5.3978598 14.670465,4.6207743 12.997438,4.2273222 11.515072,4.3330311 10.012114,4.4402082 8.5979133,4.9314837 7.3313421,5.7864072 5.9040315,6.7498281 4.7776203,8.1336966 4.0861377,9.7733499 3.8797215,10.262807 3.701898,10.850824 3.5551278,11.529265 c -0.019062,0.08811 0.012982,0.08496 0.2251542,-0.02214 0.3476187,-0.175478 0.6566895,-0.245642 1.1512248,-0.261348 0.3292818,-0.01046 0.52065,-0.0017 0.7207338,0.03305 0.3553437,0.06169 0.9120843,0.23093 1.2602892,0.383111 0.8552265,0.373773 1.6832172,1.187913 2.0687901,2.034184 0.057534,0.126279 0.1113519,0.230059 0.1195944,0.230623 0.00824,5.64e-4 1.7887147,-1.772742 3.9566057,-3.940679 z"
     id="path3" />
  <path
     style="fill:#d8dee9;stroke:#d8dee9;stroke-width:0.0298879"
     d="m 18.61279,21.038909 c -0.461962,-0.04243 -1.116084,-0.227266 -1.590947,-0.449565 -1.17832,-0.551612 -2.058223,-1.671676 -2.333508,-2.970415 -0.202309,-0.954456 -0.188447,-2.221405 0.03393,-3.100813 0.196499,-0.77708 0.56798,-1.432107 1.132115,-1.996242 0.603197,-0.603198 1.198101,-0.923332 2.199502,-1.183612 0.302218,-0.07855 0.369396,-0.08506 0.880118,-0.08525 0.622767,-2.4e-4 0.818201,0.03768 1.262948,0.245026 0.127497,0.05944 0.23914,0.100747 0.248095,0.09179 0.009,-0.009 -0.03045,-0.209495 -0.08756,-0.445645 -0.214546,-0.887096 -0.494076,-1.5808554 -1.021991,-2.5364631 -0.09955,-0.1802049 -0.106587,-0.2096148 -0.09716,-0.4061826 0.0082,-0.1704975 0.02621,-0.2361591 0.09228,-0.3359841 0.127742,-0.1930305 0.290821,-0.285324 0.52782,-0.2987157 0.352204,-0.019901 0.51359,0.091986 0.757729,0.5253231 0.617949,1.096839 1.016935,2.2266954 1.232214,3.4894074 0.121415,0.712153 0.134195,1.088608 0.134195,3.952783 0,2.675316 -0.002,2.772194 -0.06182,3.065951 -0.157108,0.770945 -0.616517,1.474715 -1.254637,1.921986 -0.579985,0.406522 -1.294535,0.586305 -2.053321,0.51662 z"
     id="path4" />
</svg>
