<?xml version="1.0" encoding="UTF-8" standalone="no"?>
<svg
   viewBox="0 0 24 24"
   version="1.1"
   id="svg1"
   sodipodi:docname="image.svg"
   inkscape:version="1.3.2 (091e20ef0f, 2023-11-25, custom)"
   xmlns:inkscape="http://www.inkscape.org/namespaces/inkscape"
   xmlns:sodipodi="http://sodipodi.sourceforge.net/DTD/sodipodi-0.dtd"
   xmlns="http://www.w3.org/2000/svg"
   xmlns:svg="http://www.w3.org/2000/svg">
  <defs
     id="defs1" />
  <sodipodi:namedview
     id="namedview1"
     pagecolor="#ffffff"
     bordercolor="#000000"
     borderopacity="0.25"
     inkscape:showpageshadow="2"
     inkscape:pageopacity="0.0"
     inkscape:pagecheckerboard="0"
     inkscape:deskcolor="#d1d1d1"
     showgrid="false"
     inkscape:zoom="35.791667"
     inkscape:cx="12"
     inkscape:cy="12"
     inkscape:window-width="1914"
     inkscape:window-height="1055"
     inkscape:window-x="3"
     inkscape:window-y="22"
     inkscape:window-maximized="1"
     inkscape:current-layer="svg1" />
  <path
     d="M8.5,13.5L11,16.5L14.5,12L19,18H5M21,19V5C21,3.89 20.1,3 19,3H5A2,2 0 0,0 3,5V19A2,2 0 0,0 5,21H19A2,2 0 0,0 21,19Z"
     id="path1" />
  <path
     style="fill:#dbdee3;fill-opacity:0.960784;stroke:#ffffff;stroke-width:0.00295674"
     d="M 4.5304079,20.924609 C 4.1716395,20.836459 3.8951321,20.674988 3.6028705,20.382959 3.3980661,20.178317 3.3279808,20.085315 3.2335691,19.892899 2.9964167,19.40957 3.0174622,20.178216 3.0174622,12 c 0,-8.178216 -0.021046,-7.4095702 0.2161069,-7.8928987 0.094412,-0.1924159 0.164497,-0.2854186 0.3693014,-0.49006 C 3.8993997,3.3207478 4.1729918,3.1628065 4.543624,3.0739558 4.7748376,3.0185275 4.8643952,3.0178537 12,3.0178537 c 7.135605,0 7.225162,6.738e-4 7.456376,0.056102 0.374596,0.089801 0.644985,0.2456998 0.940479,0.5422533 0.203445,0.2041747 0.275193,0.2995456 0.369301,0.4908922 0.23746,0.4828175 0.216382,-0.2860527 0.216382,7.8928988 0,8.178951 0.02108,7.410081 -0.216382,7.892899 -0.09411,0.191346 -0.165856,0.286717 -0.369301,0.490892 -0.295494,0.296553 -0.565883,0.452452 -0.940479,0.542253 -0.231324,0.05545 -0.317518,0.05608 -7.470346,0.05428 -7.0492262,-0.0018 -7.2419911,-0.0032 -7.4556221,-0.05571 z M 19.012806,18.00234 c 0,-0.04047 -4.501451,-6.017632 -4.522251,-6.004777 -0.01223,0.0076 -0.800169,1.014083 -1.750968,2.236716 -0.950799,1.222634 -1.7374,2.219623 -1.748002,2.215533 -0.0106,-0.0041 -0.568922,-0.667507 -1.2407119,-1.474259 -0.6717902,-0.806752 -1.2316909,-1.470695 -1.2442243,-1.47543 -0.021592,-0.0082 -3.5194544,4.468084 -3.5194544,4.503872 0,0.0093 3.1557625,0.01696 7.0128056,0.01696 3.857043,0 7.012806,-0.0084 7.012806,-0.01862 z"
     id="path2" />
</svg>
