<?xml version="1.0" encoding="UTF-8" standalone="no"?>
<svg
   viewBox="0 0 409600 262144"
   version="1.1"
   id="svg1"
   width="409600"
   height="262144"
   xmlns="http://www.w3.org/2000/svg"
   xmlns:svg="http://www.w3.org/2000/svg">
  <defs
     id="defs1" />
  <!--!Font Awesome Free 6.5.2 by @fontawesome - https://fontawesome.com License - https://fontawesome.com/license/free Copyright 2024 Fonticons, Inc.-->
  <path
     d="m 641.5,256 c 0,3.1 -1.7,6.1 -4.5,7.5 L 547.9,317 c -1.4,0.8 -2.8,1.4 -4.5,1.4 -1.4,0 -3.1,-0.3 -4.5,-1.1 -2.8,-1.7 -4.5,-4.5 -4.5,-7.8 V 273.9 H 295.7 c 25.3,39.6 40.5,106.9 69.6,106.9 H 392 V 354 c 0,-5 3.9,-8.9 8.9,-8.9 H 490 c 5,0 8.9,3.9 8.9,8.9 v 89.1 c 0,5 -3.9,8.9 -8.9,8.9 h -89.1 c -5,0 -8.9,-3.9 -8.9,-8.9 v -26.7 h -26.7 c -75.4,0 -81.1,-142.5 -124.7,-142.5 H 140.3 c -8.1,30.6 -35.9,53.5 -69,53.5 C 32,327.3 0,295.3 0,256 c 0,-39.3 32,-71.3 71.3,-71.3 33.1,0 61,22.8 69,53.5 39.1,0 43.9,9.5 74.6,-60.4 C 255,88.7 273,95.7 323.8,95.7 c 7.5,-20.9 27,-35.6 50.4,-35.6 29.5,0 53.5,23.9 53.5,53.5 0,29.6 -23.9,53.5 -53.5,53.5 -23.4,0 -42.9,-14.8 -50.4,-35.6 H 294 c -29.1,0 -44.3,67.4 -69.6,106.9 h 310.1 v -35.6 c 0,-3.3 1.7,-6.1 4.5,-7.8 2.8,-1.7 6.4,-1.4 8.9,0.3 l 89.1,53.5 c 2.8,1.1 4.5,4.1 4.5,7.2 z"
     id="path1" />
  <path
     style="fill:#e3e6eb;fill-opacity:0.960784;stroke:#ffffff;stroke-width:0.0772282"
     d="m 396.84273,450.2918 c -4.21822,-2.57199 -4.59644,-4.21748 -4.59644,-19.9973 v -14.20215 l -18.42645,-0.32457 c -20.45403,-0.36028 -22.96649,-0.78496 -32.48323,-5.49062 -11.27422,-5.57467 -20.88357,-14.95265 -31.18774,-30.4368 -6.97486,-10.48117 -12.97616,-22.08477 -23.21173,-44.88027 -12.58523,-28.02839 -13.97715,-30.91376 -18.92528,-39.23107 -5.43483,-9.13541 -12.0606,-16.55714 -17.44284,-19.53827 l -3.90996,-2.16566 -53.334,-0.2006 -53.33401,-0.20059 -0.92437,3.11963 c -2.90953,9.81929 -9.89382,21.2407 -17.86067,29.20756 -8.98202,8.98202 -18.46063,14.54484 -31.603033,18.54724 -5.738216,1.74752 -7.596165,1.9555 -17.721563,1.98383 -12.189492,0.0341 -16.958861,-0.76674 -26.16442,-4.39333 -11.454144,-4.51242 -23.563917,-13.76167 -31.184619,-23.8183 -4.517096,-5.96097 -10.0263039,-17.58456 -12.01039,-25.34009 -6.6759982,-26.09558 3.0252132,-54.75387 24.346947,-71.92317 6.732394,-5.42124 17.759001,-11.13541 26.038708,-13.49367 6.98635,-1.98989 21.812579,-2.72078 29.625322,-1.46045 25.718128,4.14879 48.419928,23.70465 56.165668,48.38243 l 1.31705,4.19612 h 15.12669 c 17.49596,0 21.44172,-0.80172 27.88379,-5.66553 8.49163,-6.41124 17.00675,-20.89418 32.2807,-54.9046 22.01833,-49.02811 38.26728,-70.66871 58.63971,-78.09727 8.43029,-3.074003 15.37466,-3.872826 33.6475,-3.870526 l 16.41961,0.0021 3.19157,-6.607142 c 2.68958,-5.567949 4.2391,-7.648025 9.85176,-13.225031 4.67801,-4.648282 8.18054,-7.404025 11.76853,-9.259312 19.53594,-10.101686 41.44601,-8.084598 58.66917,5.401208 16.76059,13.123619 23.97044,37.586803 17.02035,57.750393 -3.06633,8.89604 -6.15379,13.75723 -13.31504,20.96453 -5.05757,5.0901 -7.47491,6.88973 -12.90779,9.60944 -9.14282,4.57691 -15.58812,5.92025 -26.36146,5.49428 -6.73186,-0.26618 -9.72988,-0.75199 -14.3481,-2.32505 -14.01934,-4.77524 -25.30408,-15.01112 -31.68689,-28.74175 l -1.7667,-3.80051 H 307.1962 c -19.08637,0 -20.68557,0.30089 -27.02077,5.08401 -8.6723,6.54766 -16.47571,19.53053 -31.37633,52.20219 -11.08147,24.29765 -17.57765,37.58954 -21.76605,44.53573 -1.44537,2.39703 -2.62878,4.60452 -2.62981,4.90555 -0.001,0.30102 69.78148,0.54732 155.07224,0.54732 H 534.5496 l 0.0412,-18.06157 c 0.0274,-11.99165 0.33391,-18.91146 0.9122,-20.59047 1.17899,-3.42309 5.18618,-6.10871 8.35933,-5.60241 2.12101,0.33842 92.02091,53.66524 95.21121,56.47739 1.908,1.68184 2.41746,5.7568 1.07236,8.57748 -0.97714,2.0491 -7.82623,6.40765 -47.53626,30.25063 -26.79037,16.08567 -47.39453,28.00576 -48.76096,28.20961 -1.61055,0.24027 -3.13788,-0.12939 -4.78198,-1.15737 -4.18482,-2.61658 -4.51709,-4.44137 -4.51709,-24.80733 V 273.66021 H 414.82751 295.10542 l 1.88266,3.10148 c 4.80598,7.91732 11.23493,20.81453 19.72081,39.56217 16.25437,35.91039 22.91336,47.8805 31.30328,56.27043 7.79093,7.79094 8.28351,7.93746 27.58991,8.20721 l 16.55988,0.23138 0.22461,-14.9578 c 0.20796,-13.84918 0.33794,-15.11034 1.75382,-17.01587 2.9128,-3.92012 3.2165,-3.94148 52.90619,-3.7209 45.18152,0.20056 45.82858,0.22397 47.86055,1.73118 1.13289,0.84033 2.45176,2.64649 2.93082,4.01368 0.6368,1.81741 0.88208,14.60892 0.9122,47.57197 0.0454,49.73182 0.12787,48.78157 -4.4759,51.58841 -2.35592,1.43637 -3.56113,1.47277 -48.75544,1.47277 -44.67587,0 -46.42368,-0.0512 -48.67608,-1.42452 z"
     id="path2" />
  <path
     style="fill:#eceff4;fill-opacity:0.960784;stroke:#ffffff;stroke-width:0.0772282"
     d="m 396.7891,449.52943 c -1.31444,-0.80141 -2.72389,-2.33557 -3.13209,-3.40923 -0.40862,-1.07476 -0.73864,-8.11315 -0.73427,-15.66048 0.005,-7.84926 -0.28745,-13.89092 -0.68315,-14.13547 -0.38008,-0.23491 -5.70624,-0.57978 -11.83591,-0.7664 -23.33176,-0.71033 -26.66436,-0.98128 -31.36233,-2.54983 -9.79338,-3.26981 -20.87934,-11.0836 -28.56074,-20.13065 -11.09965,-13.07303 -19.6887,-28.43088 -35.85998,-64.12024 -5.09221,-11.23832 -10.75451,-23.22463 -12.58289,-26.63626 -6.92734,-12.92594 -14.65072,-22.44986 -21.4226,-26.41685 l -3.22631,-1.88998 -53.82184,-0.25936 -53.82184,-0.25936 -1.19513,3.64881 c -3.44291,10.51137 -10.50793,21.45153 -19.35268,29.96755 -8.44252,8.12875 -15.25223,12.18676 -27.814893,16.57531 -6.663421,2.32776 -6.864229,2.35077 -20.230794,2.31862 -13.297888,-0.032 -13.60465,-0.0682 -20.433295,-2.41253 C 31.931219,316.94332 17.16733,304.39902 8.9340103,287.89054 2.6750392,275.34079 0.73408496,266.53757 1.2809888,253.18021 1.738585,242.00405 3.5006635,235.06245 8.4010582,225.13113 16.922721,207.86081 31.749703,195.16481 51.083238,188.58336 c 5.179285,-1.76311 7.196858,-2.02432 17.879134,-2.31471 9.344116,-0.25402 13.142265,-0.0685 16.957672,0.82847 23.561156,5.53877 43.543466,23.00604 51.366986,44.90179 1.08836,3.04598 2.29198,5.94864 2.67471,6.45035 1.3765,1.8044 31.16168,0.46803 37.23906,-1.67081 4.84146,-1.70388 11.50092,-8.05843 16.65557,-15.893 4.81938,-7.32495 13.16317,-23.57554 21.42569,-41.72924 25.3515,-55.70004 41.65227,-75.50905 66.75143,-81.117598 3.12113,-0.697435 11.24509,-1.211239 23.57293,-1.490884 l 18.81053,-0.426698 3.4105,-6.646604 c 4.81823,-9.390081 13.36633,-17.889344 22.68274,-22.553157 8.95225,-4.481505 15.48274,-5.861116 25.88547,-5.468476 6.45293,0.243559 9.42534,0.732986 14.02623,2.30951 16.22132,5.55834 28.2207,17.5725 33.61932,33.66073 2.65544,7.913377 3.27687,19.862947 1.43206,27.537587 -3.70871,15.42878 -14.05763,28.51696 -28.15188,35.6034 -8.7821,4.41557 -13.22359,5.28649 -25.14351,4.93038 -9.36612,-0.27981 -10.70267,-0.49739 -16.05473,-2.61358 -7.08051,-2.79962 -12.45738,-6.27432 -18.14959,-11.72883 -4.54418,-4.35442 -10.73734,-13.09966 -12.26119,-17.3138 -0.60706,-1.67878 -1.52025,-2.68344 -2.71073,-2.98223 -0.98741,-0.24782 -9.56386,-0.13625 -19.05878,0.24794 -16.89058,0.68344 -17.3369,0.74155 -20.66196,2.69016 -10.36042,6.07161 -18.24184,18.66428 -36.61222,58.49784 -6.75324,14.64343 -17.24992,35.97042 -20.89685,42.4579 -0.94326,1.67796 -1.5554,3.20626 -1.3603,3.39624 0.1951,0.18997 70.11075,0.45905 155.36813,0.59797 l 155.0134,0.25257 0.29348,-18.24401 c 0.16143,-10.03421 0.63309,-19.33671 1.04815,-20.67222 0.79817,-2.5682 4.26197,-5.22885 6.80716,-5.22879 2.41643,6e-5 91.16079,52.39874 95.3457,56.29642 2.21012,2.05842 2.74979,5.29695 1.32601,7.9573 -0.41322,0.77212 -3.12246,2.99512 -6.02052,4.94002 -6.18626,4.15158 -36.45686,22.49638 -61.82565,37.46799 -29.74457,17.55402 -29.34421,17.37884 -33.05286,14.46161 -3.06425,-2.41033 -3.46903,-5.13651 -3.63988,-24.51401 l -0.16017,-18.16557 -119.31585,-0.18737 c -65.62372,-0.10305 -119.71823,-0.0344 -120.21003,0.15262 -0.59973,0.22804 0.18977,2.17342 2.39747,5.90759 4.56844,7.72718 9.18456,17.05875 19.27821,38.97122 16.48357,35.78448 22.67833,46.71429 31.31709,55.25476 7.26039,7.17778 5.90156,6.85739 33.39296,7.87376 l 10.3262,0.38177 0.32276,-3.45881 c 0.17751,-1.90236 0.38936,-8.51183 0.47077,-14.68774 0.15799,-11.98602 0.76098,-14.49252 3.92079,-16.29791 2.40987,-1.3769 91.68894,-1.76103 95.81983,-0.41227 5.61125,1.8321 5.42502,0.0828 5.42169,50.92656 -0.002,29.25368 -0.2712,45.84633 -0.77341,47.65484 -0.51772,1.86437 -1.53382,3.24 -3.09741,4.19339 -2.2402,1.36594 -4.05431,1.41883 -48.66674,1.41883 -45.02998,0 -46.40734,-0.0412 -48.72971,-1.45713 z"
     id="path3" />
  <rect
     style="fill:#d8dee9;stroke:#d8dee9;stroke-width:1.17922"
     id="rect1"
     width="26.671038"
     height="598.74792"
     x="-14.230591"
     y="101.70126"
     transform="matrix(0.73657597,-0.67635481,0.74491382,0.6671607,0,0)" />
  <path
     style="fill:#d8dee9;stroke:#d8dee9;stroke-width:0.729761"
     d="m 494.29121,462.06756 c -9.3653,-8.38424 -34.76099,-31.10381 -56.43488,-50.48792 -21.67389,-19.38411 -42.19841,-37.77659 -45.61004,-40.87219 -3.41163,-3.0956 -23.95923,-21.51803 -45.66135,-40.93872 -21.7021,-19.42069 -54.68603,-48.93863 -73.29761,-65.59541 -18.61159,-16.65679 -35.82909,-32.17809 -38.26112,-34.49179 -2.43203,-2.31371 -4.52193,-4.18196 -4.64423,-4.15168 -0.12229,0.0303 -12.77515,-11.21239 -28.11746,-24.98369 C 186.92222,186.77485 149.82456,153.52699 119.8253,126.66205 89.826029,99.797097 65.370561,77.57994 65.479812,77.290589 c 0.10925,-0.289352 4.530229,-4.503712 9.824398,-9.365244 l 9.62576,-8.839149 56.05269,50.204104 c 30.82897,27.61225 65.59088,58.73291 77.24866,69.15701 22.88253,20.46098 57.34027,51.30973 87.12393,77.99884 57.5984,51.61387 94.95824,85.06138 97.88667,87.63595 3.34486,2.94068 52.47683,46.95324 97.72738,87.54448 13.43962,12.05578 25.75433,23.15728 27.36602,24.66999 l 2.93036,2.75041 -2.67832,2.35792 c -1.47308,1.29686 -5.96108,5.40641 -9.97333,9.13235 l -7.29499,6.77441 z"
     id="path4" />
  <path
     style="fill:#d8dee9;stroke:#d8dee9;stroke-width:0.729761"
     d="m 538.91963,315.439 c -3.04332,-2.75006 -3.63083,-7.05391 -3.63604,-26.63626 l -0.004,-15.8723 -105.26796,-0.0106 -105.26796,-0.0106 -5.87766,-5.28015 c -3.23271,-2.90408 -11.68881,-10.48684 -18.79133,-16.85059 -7.10252,-6.36374 -12.91367,-11.73471 -12.91367,-11.93547 0,-0.20077 55.77981,-0.12396 123.95514,0.17067 l 123.95515,0.5357 0.36284,-19.48123 c 0.33462,-17.96616 0.47552,-19.63352 1.81173,-21.43945 0.7969,-1.07702 2.34761,-2.39869 3.44601,-2.93703 1.89824,-0.93036 2.56332,-0.66299 13.43494,5.40093 19.4531,10.85048 68.41249,39.83765 79.04673,46.80087 5.66393,3.70869 6.30912,4.3876 6.87938,7.23892 0.84466,4.2233 -2.72211,6.89397 -35.44609,26.54069 -42.59459,25.57282 -60.48138,35.77277 -62.73169,35.77277 -0.40395,0 -1.73383,-0.90308 -2.95529,-2.00684 z"
     id="path5" />
  <path
     style="fill:#d8dee9;stroke:#d8dee9;stroke-width:0.729761"
     d="m 403.38877,450.30817 c -5.26752,-0.36023 -6.24943,-0.65369 -7.97733,-2.38419 l -1.97044,-1.97339 -0.31036,-14.44622 c -0.17069,-7.94542 -0.5216,-14.67011 -0.77979,-14.94375 -0.5692,-0.60328 -8.14218,-1.14428 -24.18665,-1.72783 -13.73503,-0.49955 -17.48966,-1.13193 -23.91756,-4.02833 -13.57365,-6.11627 -25.72231,-18.37497 -37.19503,-37.53194 -5.73148,-9.57034 -8.49268,-15.1031 -21.66971,-43.42075 -6.06997,-13.04447 -12.57369,-26.53618 -14.45272,-29.98158 -5.18346,-9.50443 -11.8978,-17.97853 -17.73137,-22.37858 l -5.07922,-3.83108 -28.82555,-0.10096 c -15.85404,-0.0555 -40.28696,-0.1377 -54.29537,-0.18261 l -25.46983,-0.0816 -1.25193,3.67679 c -4.08668,12.00217 -13.3207,25.10829 -23.75006,33.70915 -5.56292,4.58762 -10.27721,7.40241 -17.102817,10.21169 -10.256609,4.2214 -12.331158,4.58025 -26.478629,4.58025 -12.564867,0 -13.332027,-0.0851 -19.551021,-2.16865 C 39.800231,319.42049 31.055447,314.09371 22.46763,305.68478 7.1787392,290.71434 -0.33818223,270.31102 1.7910712,249.56198 c 1.0532589,-10.26374 2.434946,-15.21644 6.612039,-23.70109 7.9376778,-16.12327 21.0122718,-28.24388 37.9366848,-35.16867 8.179711,-3.3468 11.616231,-3.90837 24.811858,-4.05449 9.396996,-0.10406 13.050841,0.14033 16.63965,1.11299 22.958017,6.22217 41.759127,23.45171 49.784807,45.62333 0.97437,2.69176 2.2865,4.92782 3.16875,5.39998 1.88351,1.00803 26.72093,0.31598 32.57327,-0.90759 2.20753,-0.46153 5.35467,-1.60933 6.99366,-2.55066 6.3207,-3.63022 15.07129,-14.99751 21.18228,-27.51646 1.12656,-2.30787 2.31041,-4.19613 2.63078,-4.19613 0.82928,0 25.38484,22.02865 25.38484,22.77259 0,0.3389 -1.14937,2.89854 -2.55416,5.68807 -1.40479,2.78954 -2.55416,5.40848 -2.55416,5.81987 0,0.4733 3.56398,0.74798 9.7052,0.74798 h 9.7052 l 30.61407,27.43398 c 16.83774,15.08869 31.17002,28.47068 31.84952,29.73774 0.67951,1.26707 4.11715,8.54322 7.6392,16.16921 9.83964,21.3049 21.66386,44.65126 25.6873,50.71836 4.72658,7.12741 12.31694,15.01477 15.88416,16.50571 2.08322,0.87069 7.19116,1.38314 19.42591,1.94887 9.12972,0.42215 16.78501,0.58204 17.01173,0.35532 0.22673,-0.22672 0.60221,-2.25296 0.83441,-4.50274 0.23219,-2.24978 0.5796,-4.09051 0.77202,-4.09051 0.19241,0 3.51249,2.89551 7.37795,6.43446 3.86546,3.53895 22.79093,20.49662 42.05661,37.68372 19.26568,17.18709 35.67203,31.85642 36.45856,32.59852 1.39216,1.31353 0.48339,1.3459 -34.29874,1.22196 -19.65084,-0.07 -38.43191,-0.31218 -41.7357,-0.53813 z"
     id="path6" />
  <path
     style="fill:#d8dee9;stroke:#d8dee9;stroke-width:0.729761"
     d="m 229.69213,187.84412 c -6.9236,-6.22205 -12.58837,-11.60703 -12.58837,-11.96661 0,-2.07019 17.74571,-35.4946 23.44319,-44.15573 7.84415,-11.92444 18.41631,-23.0568 26.18053,-27.56778 9.54807,-5.547394 16.16055,-6.737522 41.6877,-7.503038 l 16.51097,-0.495136 1.61826,-3.580663 c 4.84558,-10.721681 14.61816,-20.74197 25.13568,-25.772805 9.98138,-4.774386 17.26157,-5.93135 29.4992,-4.687993 18.44115,1.873644 36.34312,16.528287 42.38264,34.694651 2.29201,6.894164 3.31711,17.440414 2.33624,24.035304 -2.52976,17.00888 -13.60975,31.89877 -29.54779,39.70791 -8.66408,4.24514 -13.44937,5.10074 -25.63202,4.58301 -8.97849,-0.38157 -14.20079,-1.78788 -21.16306,-5.69899 -8.88678,-4.99222 -17.31607,-13.77096 -22.33482,-23.26076 -1.29545,-2.44954 -2.71114,-4.69498 -3.14596,-4.98986 -1.02984,-0.69839 -16.56196,-0.64763 -28.15662,0.092 -10.6761,0.68105 -13.14486,1.65442 -19.16309,7.5555 -6.98644,6.85043 -12.96925,17.06069 -26.08647,44.5192 -4.1703,8.72976 -7.76359,15.85706 -7.9851,15.83845 -0.22151,-0.0186 -6.0675,-5.12461 -12.99111,-11.34667 z"
     id="path7" />
  <path
     style="fill:#d8dee9;stroke:#d8dee9;stroke-width:0.729761"
     d="m 452.61154,387.37976 -45.08516,-40.37862 14.07033,-0.47796 c 21.69081,-0.73683 70.06329,-0.11237 72.3601,0.93412 1.19898,0.5463 2.21785,1.84708 2.73457,3.4912 0.77423,2.46353 1.88646,68.28981 1.25674,74.3788 -0.25017,2.41891 -0.47702,2.22903 -45.33658,-37.94754 z"
     id="path8" />
</svg>
