<?xml version="1.0" encoding="UTF-8" standalone="no"?>
<svg
   viewBox="0 0 640 512"
   version="1.1"
   id="svg1"
   sodipodi:docname="usb.svg"
   inkscape:version="1.3.2 (091e20ef0f, 2023-11-25, custom)"
   xmlns:inkscape="http://www.inkscape.org/namespaces/inkscape"
   xmlns:sodipodi="http://sodipodi.sourceforge.net/DTD/sodipodi-0.dtd"
   xmlns="http://www.w3.org/2000/svg"
   xmlns:svg="http://www.w3.org/2000/svg">
  <defs
     id="defs1" />
  <sodipodi:namedview
     id="namedview1"
     pagecolor="#ffffff"
     bordercolor="#000000"
     borderopacity="0.25"
     inkscape:showpageshadow="2"
     inkscape:pageopacity="0.0"
     inkscape:pagecheckerboard="0"
     inkscape:deskcolor="#d1d1d1"
     showgrid="false"
     inkscape:zoom="1.3703125"
     inkscape:cx="320"
     inkscape:cy="255.78107"
     inkscape:window-width="1914"
     inkscape:window-height="1055"
     inkscape:window-x="3"
     inkscape:window-y="22"
     inkscape:window-maximized="1"
     inkscape:current-layer="svg1" />
  <!--!Font Awesome Free 6.5.2 by @fontawesome - https://fontawesome.com License - https://fontawesome.com/license/free Copyright 2024 Fonticons, Inc.-->
  <path
     d="M641.5 256c0 3.1-1.7 6.1-4.5 7.5L547.9 317c-1.4 .8-2.8 1.4-4.5 1.4-1.4 0-3.1-.3-4.5-1.1-2.8-1.7-4.5-4.5-4.5-7.8v-35.6H295.7c25.3 39.6 40.5 106.9 69.6 106.9H392V354c0-5 3.9-8.9 8.9-8.9H490c5 0 8.9 3.9 8.9 8.9v89.1c0 5-3.9 8.9-8.9 8.9h-89.1c-5 0-8.9-3.9-8.9-8.9v-26.7h-26.7c-75.4 0-81.1-142.5-124.7-142.5H140.3c-8.1 30.6-35.9 53.5-69 53.5C32 327.3 0 295.3 0 256s32-71.3 71.3-71.3c33.1 0 61 22.8 69 53.5 39.1 0 43.9 9.5 74.6-60.4C255 88.7 273 95.7 323.8 95.7c7.5-20.9 27-35.6 50.4-35.6 29.5 0 53.5 23.9 53.5 53.5s-23.9 53.5-53.5 53.5c-23.4 0-42.9-14.8-50.4-35.6H294c-29.1 0-44.3 67.4-69.6 106.9h310.1v-35.6c0-3.3 1.7-6.1 4.5-7.8 2.8-1.7 6.4-1.4 8.9 .3l89.1 53.5c2.8 1.1 4.5 4.1 4.5 7.2z"
     id="path1" />
  <path
     style="fill:#e3e6eb;fill-opacity:0.96078402;stroke:#ffffff;stroke-width:0.0772282"
     d="m 396.84273,450.2918 c -4.21822,-2.57199 -4.59644,-4.21748 -4.59644,-19.9973 v -14.20215 l -18.42645,-0.32457 c -20.45403,-0.36028 -22.96649,-0.78496 -32.48323,-5.49062 -11.27422,-5.57467 -20.88357,-14.95265 -31.18774,-30.4368 -6.97486,-10.48117 -12.97616,-22.08477 -23.21173,-44.88027 -12.58523,-28.02839 -13.97715,-30.91376 -18.92528,-39.23107 -5.43483,-9.13541 -12.0606,-16.55714 -17.44284,-19.53827 l -3.90996,-2.16566 -53.334,-0.2006 -53.33401,-0.20059 -0.92437,3.11963 c -2.90953,9.81929 -9.89382,21.2407 -17.86067,29.20756 -8.98202,8.98202 -18.46063,14.54484 -31.603033,18.54724 -5.738216,1.74752 -7.596165,1.9555 -17.721563,1.98383 -12.189492,0.0341 -16.958861,-0.76674 -26.16442,-4.39333 -11.454144,-4.51242 -23.563917,-13.76167 -31.184619,-23.8183 -4.517096,-5.96097 -10.0263039,-17.58456 -12.01039,-25.34009 -6.6759982,-26.09558 3.0252132,-54.75387 24.346947,-71.92317 6.732394,-5.42124 17.759001,-11.13541 26.038708,-13.49367 6.98635,-1.98989 21.812579,-2.72078 29.625322,-1.46045 25.718128,4.14879 48.419928,23.70465 56.165668,48.38243 l 1.31705,4.19612 h 15.12669 c 17.49596,0 21.44172,-0.80172 27.88379,-5.66553 8.49163,-6.41124 17.00675,-20.89418 32.2807,-54.9046 22.01833,-49.02811 38.26728,-70.66871 58.63971,-78.09727 8.43029,-3.074003 15.37466,-3.872826 33.6475,-3.870526 l 16.41961,0.0021 3.19157,-6.607142 c 2.68958,-5.567949 4.2391,-7.648025 9.85176,-13.225031 4.67801,-4.648282 8.18054,-7.404025 11.76853,-9.259312 19.53594,-10.101686 41.44601,-8.084598 58.66917,5.401208 16.76059,13.123619 23.97044,37.586803 17.02035,57.750393 -3.06633,8.89604 -6.15379,13.75723 -13.31504,20.96453 -5.05757,5.0901 -7.47491,6.88973 -12.90779,9.60944 -9.14282,4.57691 -15.58812,5.92025 -26.36146,5.49428 -6.73186,-0.26618 -9.72988,-0.75199 -14.3481,-2.32505 -14.01934,-4.77524 -25.30408,-15.01112 -31.68689,-28.74175 l -1.7667,-3.80051 H 307.1962 c -19.08637,0 -20.68557,0.30089 -27.02077,5.08401 -8.6723,6.54766 -16.47571,19.53053 -31.37633,52.20219 -11.08147,24.29765 -17.57765,37.58954 -21.76605,44.53573 -1.44537,2.39703 -2.62878,4.60452 -2.62981,4.90555 -0.001,0.30102 69.78148,0.54732 155.07224,0.54732 H 534.5496 l 0.0412,-18.06157 c 0.0274,-11.99165 0.33391,-18.91146 0.9122,-20.59047 1.17899,-3.42309 5.18618,-6.10871 8.35933,-5.60241 2.12101,0.33842 92.02091,53.66524 95.21121,56.47739 1.908,1.68184 2.41746,5.7568 1.07236,8.57748 -0.97714,2.0491 -7.82623,6.40765 -47.53626,30.25063 -26.79037,16.08567 -47.39453,28.00576 -48.76096,28.20961 -1.61055,0.24027 -3.13788,-0.12939 -4.78198,-1.15737 -4.18482,-2.61658 -4.51709,-4.44137 -4.51709,-24.80733 V 273.66021 H 414.82751 295.10542 l 1.88266,3.10148 c 4.80598,7.91732 11.23493,20.81453 19.72081,39.56217 16.25437,35.91039 22.91336,47.8805 31.30328,56.27043 7.79093,7.79094 8.28351,7.93746 27.58991,8.20721 l 16.55988,0.23138 0.22461,-14.9578 c 0.20796,-13.84918 0.33794,-15.11034 1.75382,-17.01587 2.9128,-3.92012 3.2165,-3.94148 52.90619,-3.7209 45.18152,0.20056 45.82858,0.22397 47.86055,1.73118 1.13289,0.84033 2.45176,2.64649 2.93082,4.01368 0.6368,1.81741 0.88208,14.60892 0.9122,47.57197 0.0454,49.73182 0.12787,48.78157 -4.4759,51.58841 -2.35592,1.43637 -3.56113,1.47277 -48.75544,1.47277 -44.67587,0 -46.42368,-0.0512 -48.67608,-1.42452 z"
     id="path2" />
  <path
     style="fill:#eceff4;fill-opacity:0.960784;stroke:#ffffff;stroke-width:0.0772282"
     d="m 396.7891,449.52943 c -1.31444,-0.80141 -2.72389,-2.33557 -3.13209,-3.40923 -0.40862,-1.07476 -0.73864,-8.11315 -0.73427,-15.66048 0.005,-7.84926 -0.28745,-13.89092 -0.68315,-14.13547 -0.38008,-0.23491 -5.70624,-0.57978 -11.83591,-0.7664 -23.33176,-0.71033 -26.66436,-0.98128 -31.36233,-2.54983 -9.79338,-3.26981 -20.87934,-11.0836 -28.56074,-20.13065 -11.09965,-13.07303 -19.6887,-28.43088 -35.85998,-64.12024 -5.09221,-11.23832 -10.75451,-23.22463 -12.58289,-26.63626 -6.92734,-12.92594 -14.65072,-22.44986 -21.4226,-26.41685 l -3.22631,-1.88998 -53.82184,-0.25936 -53.82184,-0.25936 -1.19513,3.64881 c -3.44291,10.51137 -10.50793,21.45153 -19.35268,29.96755 -8.44252,8.12875 -15.25223,12.18676 -27.814893,16.57531 -6.663421,2.32776 -6.864229,2.35077 -20.230794,2.31862 -13.297888,-0.032 -13.60465,-0.0682 -20.433295,-2.41253 C 31.931219,316.94332 17.16733,304.39902 8.9340103,287.89054 2.6750392,275.34079 0.73408496,266.53757 1.2809888,253.18021 1.738585,242.00405 3.5006635,235.06245 8.4010582,225.13113 16.922721,207.86081 31.749703,195.16481 51.083238,188.58336 c 5.179285,-1.76311 7.196858,-2.02432 17.879134,-2.31471 9.344116,-0.25402 13.142265,-0.0685 16.957672,0.82847 23.561156,5.53877 43.543466,23.00604 51.366986,44.90179 1.08836,3.04598 2.29198,5.94864 2.67471,6.45035 1.3765,1.8044 31.16168,0.46803 37.23906,-1.67081 4.84146,-1.70388 11.50092,-8.05843 16.65557,-15.893 4.81938,-7.32495 13.16317,-23.57554 21.42569,-41.72924 25.3515,-55.70004 41.65227,-75.50905 66.75143,-81.117598 3.12113,-0.697435 11.24509,-1.211239 23.57293,-1.490884 l 18.81053,-0.426698 3.4105,-6.646604 c 4.81823,-9.390081 13.36633,-17.889344 22.68274,-22.553157 8.95225,-4.481505 15.48274,-5.861116 25.88547,-5.468476 6.45293,0.243559 9.42534,0.732986 14.02623,2.30951 16.22132,5.55834 28.2207,17.5725 33.61932,33.66073 2.65544,7.913377 3.27687,19.862947 1.43206,27.537587 -3.70871,15.42878 -14.05763,28.51696 -28.15188,35.6034 -8.7821,4.41557 -13.22359,5.28649 -25.14351,4.93038 -9.36612,-0.27981 -10.70267,-0.49739 -16.05473,-2.61358 -7.08051,-2.79962 -12.45738,-6.27432 -18.14959,-11.72883 -4.54418,-4.35442 -10.73734,-13.09966 -12.26119,-17.3138 -0.60706,-1.67878 -1.52025,-2.68344 -2.71073,-2.98223 -0.98741,-0.24782 -9.56386,-0.13625 -19.05878,0.24794 -16.89058,0.68344 -17.3369,0.74155 -20.66196,2.69016 -10.36042,6.07161 -18.24184,18.66428 -36.61222,58.49784 -6.75324,14.64343 -17.24992,35.97042 -20.89685,42.4579 -0.94326,1.67796 -1.5554,3.20626 -1.3603,3.39624 0.1951,0.18997 70.11075,0.45905 155.36813,0.59797 l 155.0134,0.25257 0.29348,-18.24401 c 0.16143,-10.03421 0.63309,-19.33671 1.04815,-20.67222 0.79817,-2.5682 4.26197,-5.22885 6.80716,-5.22879 2.41643,6e-5 91.16079,52.39874 95.3457,56.29642 2.21012,2.05842 2.74979,5.29695 1.32601,7.9573 -0.41322,0.77212 -3.12246,2.99512 -6.02052,4.94002 -6.18626,4.15158 -36.45686,22.49638 -61.82565,37.46799 -29.74457,17.55402 -29.34421,17.37884 -33.05286,14.46161 -3.06425,-2.41033 -3.46903,-5.13651 -3.63988,-24.51401 l -0.16017,-18.16557 -119.31585,-0.18737 c -65.62372,-0.10305 -119.71823,-0.0344 -120.21003,0.15262 -0.59973,0.22804 0.18977,2.17342 2.39747,5.90759 4.56844,7.72718 9.18456,17.05875 19.27821,38.97122 16.48357,35.78448 22.67833,46.71429 31.31709,55.25476 7.26039,7.17778 5.90156,6.85739 33.39296,7.87376 l 10.3262,0.38177 0.32276,-3.45881 c 0.17751,-1.90236 0.38936,-8.51183 0.47077,-14.68774 0.15799,-11.98602 0.76098,-14.49252 3.92079,-16.29791 2.40987,-1.3769 91.68894,-1.76103 95.81983,-0.41227 5.61125,1.8321 5.42502,0.0828 5.42169,50.92656 -0.002,29.25368 -0.2712,45.84633 -0.77341,47.65484 -0.51772,1.86437 -1.53382,3.24 -3.09741,4.19339 -2.2402,1.36594 -4.05431,1.41883 -48.66674,1.41883 -45.02998,0 -46.40734,-0.0412 -48.72971,-1.45713 z"
     id="path3" />
</svg>
