<?xml version="1.0" encoding="UTF-8" standalone="no"?>
<svg
   viewBox="0 0 24 24"
   version="1.1"
   id="svg1"
   sodipodi:docname="volume-high.svg"
   inkscape:export-filename="volume-high1.svg"
   inkscape:export-xdpi="96"
   inkscape:export-ydpi="96"
   inkscape:version="1.3.2 (091e20ef0f, 2023-11-25, custom)"
   xmlns:inkscape="http://www.inkscape.org/namespaces/inkscape"
   xmlns:sodipodi="http://sodipodi.sourceforge.net/DTD/sodipodi-0.dtd"
   xmlns="http://www.w3.org/2000/svg"
   xmlns:svg="http://www.w3.org/2000/svg">
  <defs
     id="defs1" />
  <sodipodi:namedview
     id="namedview1"
     pagecolor="#ffffff"
     bordercolor="#000000"
     borderopacity="0.25"
     inkscape:showpageshadow="2"
     inkscape:pageopacity="0.0"
     inkscape:pagecheckerboard="0"
     inkscape:deskcolor="#d1d1d1"
     showgrid="true"
     inkscape:export-bgcolor="#fefefe00"
     inkscape:zoom="35.791667"
     inkscape:cx="12"
     inkscape:cy="12"
     inkscape:window-width="1914"
     inkscape:window-height="1055"
     inkscape:window-x="3"
     inkscape:window-y="22"
     inkscape:window-maximized="1"
     inkscape:current-layer="svg1">
    <inkscape:grid
       id="grid1"
       units="px"
       originx="0"
       originy="0"
       spacingx="24"
       spacingy="24"
       empcolor="#0099e5"
       empopacity="0.30196078"
       color="#0099e5"
       opacity="0.14901961"
       empspacing="5"
       dotted="false"
       gridanglex="30"
       gridanglez="30"
       visible="true" />
  </sodipodi:namedview>
  <path
     d="M14,3.23V5.29C16.89,6.15 19,8.83 19,12C19,15.17 16.89,17.84 14,18.7V20.77C18,19.86 21,16.28 21,12C21,7.72 18,4.14 14,3.23M16.5,12C16.5,10.23 15.5,8.71 14,7.97V16C15.5,15.29 16.5,13.76 16.5,12M3,9V15H7L12,20V4L7,9H3Z"
     id="path1" />
  <path
     style="fill:#d7eef4;stroke:#ffffff;stroke-width:0.0293613"
     d="M 9.4994179,17.462165 7.0129232,14.975553 H 5.0082079 3.0034924 V 12 9.024447 H 5.0080908 7.0126891 L 9.5063447,6.5309084 12,4.0373697 v 7.9557043 c 0,4.375637 -0.0032,7.955704 -0.007,7.955704 -0.0039,0 -1.125966,-1.118976 -2.4935381,-2.486613 z"
     id="path3" />
  <path
     style="fill:#d7eef4;stroke:#ffffff;stroke-width:0.0293613"
     d="m 14.018284,19.734292 0.0073,-1.020995 0.293365,-0.103974 c 1.034806,-0.366757 1.871314,-0.893265 2.641886,-1.662833 1.110959,-1.109512 1.775187,-2.463512 2.001694,-4.080367 0.04565,-0.32588 0.04565,-1.406366 0,-1.732246 C 18.801639,9.9852159 18.44867,9.0387154 17.839646,8.122748 16.971271,6.8167169 15.692392,5.8318131 14.242142,5.352199 L 14.011641,5.2759699 V 4.2604891 3.2450084 l 0.25844,0.068521 c 2.220404,0.5887072 4.132542,1.9993949 5.35483,3.9505479 1.517128,2.421809 1.780036,5.4749847 0.698099,8.1070657 -1.073928,2.612594 -3.300455,4.577259 -6.010085,5.303238 l -0.301968,0.0809 z"
     id="path4" />
  <path
     style="fill:#d7eef4;stroke:#ffffff;stroke-width:0.0293613"
     d="M 14.011641,11.98603 V 7.9865859 l 0.160652,0.0908 c 0.824863,0.4662082 1.472431,1.1501754 1.868644,1.9736781 0.594955,1.236572 0.586156,2.71312 -0.02342,3.929724 -0.419339,0.83693 -0.997088,1.436264 -1.845226,1.914164 l -0.160652,0.09052 z"
     id="path5" />
  <path
     style="fill:#eceff4;fill-opacity:0.960784;stroke:#ffffff;stroke-width:0.00295674"
     d="M 9.4854481,17.420256 7.012924,14.947613 H 5.0221779 3.0314319 V 12 9.0523864 H 5.0220602 7.0126885 L 9.4923743,6.5728178 11.97206,4.0932492 v 7.8998248 c 0,4.344903 -0.0032,7.899825 -0.007,7.899825 -0.0039,0 -1.11968,-1.11269 -2.4795679,-2.472643 z"
     id="path2" />
  <path
     style="fill:#eceff4;fill-opacity:0.960784;stroke:#ffffff;stroke-width:0.00295674"
     d="m 14.039581,11.98603 c 0,-2.1894962 0.01071,-3.9394643 0.0241,-3.9394643 0.05366,0 0.702548,0.4552125 0.902888,0.6334013 0.709034,0.6306375 1.189854,1.460252 1.393691,2.4047 0.0759,0.351683 0.10344,1.093726 0.05493,1.480293 -0.144627,1.152587 -0.759089,2.226908 -1.672251,2.923751 -0.191361,0.14603 -0.648204,0.436784 -0.686289,0.436784 -0.0094,0 -0.01707,-1.772759 -0.01707,-3.939465 z"
     id="path6" />
  <path
     style="fill:#eceff4;fill-opacity:0.960784;stroke:#ffffff;stroke-width:0.00295674"
     d="m 14.040122,19.728818 5.4e-4,-0.995407 0.383586,-0.139698 c 0.974298,-0.354827 1.805661,-0.886737 2.55118,-1.632255 1.005508,-1.005509 1.614414,-2.143459 1.929746,-3.606394 0.0839,-0.389247 0.08781,-0.436872 0.09967,-1.215367 0.01336,-0.877383 -0.0025,-1.061604 -0.147701,-1.712312 C 18.472841,8.7048779 17.383849,7.1331944 15.883585,6.1358168 15.331742,5.7689501 14.945026,5.5743693 14.346915,5.3626226 l -0.293364,-0.1038585 -0.0073,-0.9915927 -0.0073,-0.9915926 0.24482,0.067762 c 1.579202,0.4370965 2.924632,1.2179107 4.058556,2.3553646 1.437181,1.4416548 2.323857,3.2876646 2.55646,5.3224056 0.05227,0.457272 0.05968,1.39428 0.01458,1.845012 -0.239579,2.394492 -1.413347,4.560254 -3.305722,6.099506 -0.94967,0.772459 -2.076592,1.345811 -3.323525,1.690932 l -0.24447,0.06766 z"
     id="path7" />
</svg>
