<?xml version="1.0" encoding="UTF-8" standalone="no"?>
<svg
   viewBox="0 0 24 24"
   version="1.1"
   id="svg1"
   sodipodi:docname="volume-low.svg"
   inkscape:export-filename="volume-low2.svg"
   inkscape:export-xdpi="96"
   inkscape:export-ydpi="96"
   inkscape:version="1.3.2 (091e20ef0f, 2023-11-25, custom)"
   xmlns:inkscape="http://www.inkscape.org/namespaces/inkscape"
   xmlns:sodipodi="http://sodipodi.sourceforge.net/DTD/sodipodi-0.dtd"
   xmlns="http://www.w3.org/2000/svg"
   xmlns:svg="http://www.w3.org/2000/svg">
  <defs
     id="defs1" />
  <sodipodi:namedview
     id="namedview1"
     pagecolor="#ffffff"
     bordercolor="#000000"
     borderopacity="0.25"
     inkscape:showpageshadow="2"
     inkscape:pageopacity="0.0"
     inkscape:pagecheckerboard="0"
     inkscape:deskcolor="#d1d1d1"
     inkscape:zoom="9.8333333"
     inkscape:cx="11.949153"
     inkscape:cy="11.949153"
     inkscape:window-width="1914"
     inkscape:window-height="1055"
     inkscape:window-x="3"
     inkscape:window-y="22"
     inkscape:window-maximized="1"
     inkscape:current-layer="svg1"
     showgrid="false" />
  <path
     d="M7,9V15H11L16,20V4L11,9H7Z"
     id="path1" />
  <path
     style="fill:#d7eef4;stroke:#ffffff;stroke-width:0.10687"
     d="m 13.474576,17.338983 -2.388207,-2.38983 H 9.0770827 7.0677966 V 12 9.0508475 h 2.007696 2.0076964 l 2.416032,-2.4144597 2.416033,-2.4144597 v 7.7534429 c 0,4.264394 -0.01181,7.753443 -0.02623,7.753443 -0.01443,0 -1.100929,-1.075424 -2.414443,-2.389831 z"
     id="path2" />
  <path
     style="fill:#eceff4;fill-opacity:0.960784;stroke:#ffffff;stroke-width:0.010762"
     d="M 13.423729,17.186441 11.086404,14.847458 H 9.1279478 7.1694915 V 12 9.1525424 h 1.9568324 1.9568321 l 2.365202,-2.3635953 2.365201,-2.3635953 v 7.5500362 c 0,4.15252 -0.01181,7.550036 -0.02625,7.550036 -0.01444,0 -1.078049,-1.052543 -2.363578,-2.338983 z"
     id="path3" />
</svg>
