<?xml version="1.0" encoding="UTF-8" standalone="no"?>
<svg
   viewBox="0 0 24 24"
   version="1.1"
   id="svg1"
   sodipodi:docname="wifi.svg"
   inkscape:version="1.3.2 (091e20ef0f, 2023-11-25, custom)"
   xmlns:inkscape="http://www.inkscape.org/namespaces/inkscape"
   xmlns:sodipodi="http://sodipodi.sourceforge.net/DTD/sodipodi-0.dtd"
   xmlns="http://www.w3.org/2000/svg"
   xmlns:svg="http://www.w3.org/2000/svg">
  <defs
     id="defs1" />
  <sodipodi:namedview
     id="namedview1"
     pagecolor="#ffffff"
     bordercolor="#000000"
     borderopacity="0.25"
     inkscape:showpageshadow="2"
     inkscape:pageopacity="0.0"
     inkscape:pagecheckerboard="0"
     inkscape:deskcolor="#d1d1d1"
     showgrid="false"
     inkscape:zoom="35.791667"
     inkscape:cx="12"
     inkscape:cy="12"
     inkscape:window-width="1914"
     inkscape:window-height="1055"
     inkscape:window-x="3"
     inkscape:window-y="22"
     inkscape:window-maximized="1"
     inkscape:current-layer="svg1" />
  <path
     d="M12,3C7.79,3 3.7,4.41 0.38,7C4.41,12.06 7.89,16.37 12,21.5C16.08,16.42 20.24,11.24 23.65,7C20.32,4.41 16.22,3 12,3Z"
     id="path1" />
  <path
     style="fill:#f9fcfc;fill-opacity:0.96199179;stroke:#ffffff;stroke-width:0.0293613"
     d="M 11.354093,20.667471 C 11.006528,20.233773 9.5361924,18.40163 8.0866813,16.596042 6.6371701,14.790454 4.3157303,11.893953 2.9279258,10.159373 L 0.40464524,7.0055916 0.56489934,6.8811518 C 1.9645695,5.7942845 3.7997211,4.793115 5.5709705,4.1500824 7.3196876,3.5152299 9.0543937,3.1600731 10.98021,3.0426161 c 0.586187,-0.035752 1.993276,-0.019219 2.542491,0.029873 3.10814,0.2778253 5.932402,1.2158159 8.521536,2.8301635 0.510551,0.3183327 1.352024,0.9024503 1.558695,1.0819845 0.01972,0.01713 -11.552523,14.4500159 -11.598104,14.4651389 -0.01034,0.0034 -0.30317,-0.348607 -0.650735,-0.782305 z"
     id="path2" />
  <path
     style="fill:#eceff4;fill-opacity:0.960784;stroke:#ffffff;stroke-width:0.00295674"
     d="m 11.96447,21.397937 c -0.02721,-0.01522 -0.04277,-0.03852 -0.03458,-0.05177 0.0082,-0.01325 -0.02313,-0.05115 -0.06959,-0.08424 -0.04646,-0.03308 -0.07764,-0.07121 -0.06929,-0.08473 0.0084,-0.01352 -0.01664,-0.04543 -0.05555,-0.07093 -0.03891,-0.02549 -0.07074,-0.06232 -0.07074,-0.08183 0,-0.01952 -0.03183,-0.05634 -0.07074,-0.08183 -0.03891,-0.02549 -0.06365,-0.05782 -0.05499,-0.07183 0.0087,-0.01402 -0.01608,-0.04634 -0.05499,-0.07184 -0.03891,-0.02549 -0.07074,-0.06332 -0.07074,-0.08406 0,-0.02074 -0.02515,-0.05117 -0.05588,-0.06762 -0.03073,-0.01645 -0.05588,-0.04788 -0.05588,-0.06985 0,-0.02197 -0.02515,-0.0534 -0.05588,-0.06985 -0.03073,-0.01645 -0.05588,-0.04788 -0.05588,-0.06985 0,-0.02197 -0.02515,-0.0534 -0.05588,-0.06985 -0.03073,-0.01645 -0.05588,-0.04821 -0.05588,-0.07059 0,-0.02238 -0.02515,-0.05639 -0.05588,-0.07559 -0.03073,-0.01919 -0.05588,-0.05002 -0.05588,-0.0685 0,-0.01848 -0.02283,-0.05003 -0.05073,-0.07011 -0.0279,-0.02008 -0.05925,-0.05931 -0.06965,-0.08717 -0.0104,-0.02787 -0.03035,-0.0436 -0.04433,-0.03496 -0.01398,0.0086 -0.03889,-0.02294 -0.05535,-0.07017 -0.01647,-0.04724 -0.04161,-0.07867 -0.05588,-0.06985 -0.01427,0.0088 -0.03941,-0.02261 -0.05588,-0.06985 -0.01647,-0.04724 -0.04161,-0.07867 -0.05588,-0.06985 -0.01427,0.0088 -0.03874,-0.0207 -0.05439,-0.06559 -0.01565,-0.04489 -0.05494,-0.0958 -0.08732,-0.113126 -0.03238,-0.01733 -0.05183,-0.0429 -0.04323,-0.05682 0.0086,-0.01392 -0.01608,-0.0461 -0.05486,-0.0715 -0.03877,-0.02541 -0.06392,-0.05684 -0.05588,-0.06985 0.008,-0.01301 -0.0171,-0.04444 -0.05588,-0.06985 -0.03877,-0.02541 -0.06392,-0.05684 -0.05588,-0.06985 0.008,-0.01301 -0.0171,-0.04444 -0.05588,-0.06985 -0.03877,-0.02541 -0.06392,-0.05684 -0.05588,-0.06985 0.008,-0.01301 -0.01721,-0.04451 -0.05612,-0.07001 -0.038907,-0.02549 -0.07074,-0.06332 -0.07074,-0.08406 0,-0.02074 -0.025145,-0.05117 -0.055879,-0.06762 -0.030733,-0.01645 -0.055879,-0.04788 -0.055879,-0.06985 0,-0.02197 -0.025146,-0.0534 -0.055879,-0.06985 -0.030733,-0.01645 -0.055879,-0.04788 -0.055879,-0.06985 0,-0.02197 -0.025145,-0.0534 -0.055879,-0.06985 -0.030733,-0.01645 -0.055879,-0.04788 -0.055879,-0.06985 0,-0.02197 -0.025146,-0.0534 -0.055879,-0.06985 -0.030733,-0.01645 -0.055879,-0.04788 -0.055879,-0.06985 0,-0.02197 -0.025145,-0.0534 -0.055879,-0.06985 -0.030733,-0.01645 -0.055879,-0.04788 -0.055879,-0.06985 0,-0.02197 -0.025146,-0.0534 -0.055879,-0.06985 -0.030733,-0.01645 -0.055879,-0.04822 -0.055879,-0.0706 0,-0.02238 -0.025145,-0.05639 -0.055879,-0.07559 -0.030733,-0.01919 -0.055879,-0.04929 -0.055879,-0.06687 0,-0.01759 -0.031353,-0.05252 -0.069672,-0.07763 -0.03832,-0.02511 -0.066608,-0.06113 -0.062864,-0.08005 0.00374,-0.01892 -0.00781,-0.03162 -0.025667,-0.02823 -0.017862,0.0034 -0.045825,-0.03213 -0.062141,-0.07893 -0.016316,-0.0468 -0.041338,-0.07788 -0.055606,-0.06906 -0.014267,0.0088 -0.039142,-0.02184 -0.055277,-0.06812 -0.016135,-0.04628 -0.048792,-0.09162 -0.07257,-0.100744 -0.023779,-0.0091 -0.043234,-0.03382 -0.043234,-0.05487 0,-0.02105 -0.031324,-0.0588 -0.069609,-0.08388 -0.038285,-0.02509 -0.06303,-0.05626 -0.054989,-0.06926 0.00804,-0.01301 -0.017104,-0.04444 -0.055879,-0.06985 -0.038774,-0.02541 -0.06392,-0.05684 -0.055879,-0.06985 0.00804,-0.01301 -0.017104,-0.04444 -0.055879,-0.06985 -0.038774,-0.02541 -0.06392,-0.05684 -0.055879,-0.06985 0.00804,-0.01301 -0.017104,-0.04444 -0.055879,-0.06985 -0.038774,-0.02541 -0.06392,-0.05684 -0.055879,-0.06985 0.00804,-0.01301 -0.017212,-0.04451 -0.056119,-0.07001 -0.038907,-0.02549 -0.070739,-0.06332 -0.070739,-0.08406 0,-0.02074 -0.025146,-0.05117 -0.055879,-0.06762 -0.030733,-0.01645 -0.055879,-0.04788 -0.055879,-0.06985 0,-0.02197 -0.025145,-0.0534 -0.055879,-0.06985 -0.030733,-0.01645 -0.055879,-0.04788 -0.055879,-0.06985 0,-0.02197 -0.025145,-0.0534 -0.055879,-0.06985 -0.030733,-0.01645 -0.055879,-0.04788 -0.055879,-0.06985 0,-0.02197 -0.025145,-0.0534 -0.055879,-0.06985 -0.030733,-0.01645 -0.055879,-0.04788 -0.055879,-0.06985 0,-0.02197 -0.025145,-0.0534 -0.055879,-0.06985 -0.030733,-0.01645 -0.055879,-0.04788 -0.055879,-0.06985 0,-0.02197 -0.025145,-0.0534 -0.055879,-0.06985 -0.030733,-0.01645 -0.055879,-0.04788 -0.055879,-0.06985 0,-0.02197 -0.025146,-0.0534 -0.055879,-0.06985 -0.030733,-0.01645 -0.055879,-0.04788 -0.055879,-0.06985 0,-0.02197 -0.025146,-0.0534 -0.055879,-0.06985 -0.030733,-0.01645 -0.055879,-0.04788 -0.055879,-0.06985 0,-0.02197 -0.025145,-0.0534 -0.055879,-0.06985 -0.030733,-0.01645 -0.055879,-0.04788 -0.055879,-0.06985 0,-0.02197 -0.025145,-0.0534 -0.055879,-0.06985 -0.030733,-0.01645 -0.055879,-0.04822 -0.055879,-0.0706 0,-0.02238 -0.025145,-0.05639 -0.055879,-0.07559 -0.030733,-0.01919 -0.055879,-0.05063 -0.055879,-0.06985 0,-0.01922 -0.025146,-0.05066 -0.055879,-0.06985 -0.030733,-0.01919 -0.055879,-0.04928 -0.055879,-0.06687 0,-0.01759 -0.031833,-0.05283 -0.070739,-0.07832 -0.038906,-0.02549 -0.063255,-0.05846 -0.054108,-0.07326 0.00915,-0.0148 -0.00399,-0.03482 -0.029189,-0.04449 -0.025201,-0.0097 -0.057406,-0.04806 -0.071567,-0.0853 -0.014161,-0.03725 -0.037118,-0.06069 -0.051017,-0.0521 -0.013898,0.0086 -0.038742,-0.02303 -0.055208,-0.07026 -0.016466,-0.04724 -0.041611,-0.07867 -0.055879,-0.06985 -0.014267,0.0088 -0.039413,-0.02261 -0.055879,-0.06985 -0.016466,-0.04723 -0.041519,-0.07872 -0.055673,-0.06998 -0.023352,0.01443 -0.065088,-0.04708 -0.071086,-0.104769 -0.00133,-0.01276 -0.024415,-0.03929 -0.051307,-0.05896 -0.026892,-0.01966 -0.048894,-0.04997 -0.048894,-0.06736 0,-0.01738 -0.025146,-0.04731 -0.055879,-0.0665 -0.030733,-0.01919 -0.055879,-0.05044 -0.055879,-0.06944 0,-0.019 -0.031324,-0.05507 -0.069609,-0.08015 -0.038285,-0.02508 -0.06303,-0.05626 -0.054989,-0.06926 0.00804,-0.01301 -0.017104,-0.04444 -0.055879,-0.06985 -0.038774,-0.02541 -0.06392,-0.05684 -0.055879,-0.06985 0.00804,-0.01301 -0.017104,-0.04444 -0.055879,-0.06985 -0.038774,-0.02541 -0.06392,-0.05684 -0.055879,-0.06985 0.00804,-0.01301 -0.017104,-0.04444 -0.055879,-0.06985 -0.038774,-0.02541 -0.06392,-0.05684 -0.055879,-0.06985 0.00804,-0.01301 -0.017104,-0.04444 -0.055879,-0.06985 -0.038774,-0.02541 -0.06392,-0.05684 -0.055879,-0.06985 0.00804,-0.01301 -0.017104,-0.04444 -0.055879,-0.06985 -0.038774,-0.02541 -0.06392,-0.05684 -0.055879,-0.06985 0.00804,-0.01301 -0.017212,-0.04451 -0.056119,-0.07001 -0.038907,-0.02549 -0.070739,-0.06332 -0.070739,-0.08406 0,-0.02074 -0.025145,-0.05117 -0.055879,-0.06762 -0.030733,-0.01645 -0.055879,-0.04788 -0.055879,-0.06985 0,-0.02197 -0.025146,-0.0534 -0.055879,-0.06985 -0.030733,-0.01645 -0.055879,-0.04788 -0.055879,-0.06985 0,-0.02197 -0.025146,-0.0534 -0.055879,-0.06985 -0.030733,-0.01645 -0.055879,-0.04788 -0.055879,-0.06985 0,-0.02197 -0.025145,-0.0534 -0.055879,-0.06985 -0.030733,-0.01645 -0.055879,-0.04788 -0.055879,-0.06985 0,-0.02197 -0.025145,-0.0534 -0.055879,-0.06985 -0.030733,-0.01645 -0.055879,-0.04788 -0.055879,-0.06985 0,-0.02197 -0.025145,-0.0534 -0.055879,-0.06985 -0.030733,-0.01645 -0.055879,-0.04788 -0.055879,-0.06985 0,-0.02197 -0.025145,-0.0534 -0.055879,-0.06985 -0.030733,-0.01645 -0.055879,-0.04788 -0.055879,-0.06985 0,-0.02197 -0.025146,-0.0534 -0.055879,-0.06985 -0.030733,-0.01645 -0.055879,-0.04788 -0.055879,-0.06985 0,-0.02197 -0.025146,-0.0534 -0.055879,-0.06985 -0.030733,-0.01645 -0.055879,-0.04788 -0.055879,-0.06985 0,-0.02197 -0.025146,-0.0534 -0.055879,-0.06985 -0.030733,-0.01645 -0.055879,-0.04788 -0.055879,-0.06985 0,-0.02197 -0.025145,-0.0534 -0.055879,-0.06985 -0.030733,-0.01645 -0.055879,-0.04822 -0.055879,-0.07059 0,-0.02238 -0.025145,-0.05639 -0.055879,-0.07559 -0.030734,-0.01919 -0.055879,-0.05063 -0.055879,-0.06985 0,-0.01922 -0.025146,-0.05065 -0.055879,-0.06985 -0.030733,-0.01919 -0.055879,-0.04929 -0.055879,-0.06687 0,-0.01759 -0.031833,-0.05283 -0.070739,-0.07832 -0.038906,-0.02549 -0.063255,-0.05846 -0.054108,-0.07326 0.00915,-0.0148 -0.00399,-0.03482 -0.029189,-0.04449 -0.025201,-0.0097 -0.057406,-0.04806 -0.071567,-0.0853 -0.014161,-0.03725 -0.037118,-0.06069 -0.051017,-0.0521 -0.013898,0.0086 -0.038742,-0.02303 -0.055208,-0.07026 -0.016466,-0.04723 -0.041611,-0.07867 -0.055879,-0.06985 -0.014267,0.0088 -0.039413,-0.02261 -0.055879,-0.06985 -0.016466,-0.04723 -0.041611,-0.07867 -0.055879,-0.06985 -0.014267,0.0088 -0.039142,-0.02184 -0.055277,-0.06812 -0.016135,-0.04628 -0.048792,-0.09162 -0.07257,-0.100744 -0.023779,-0.0091 -0.043234,-0.03382 -0.043234,-0.05487 0,-0.02105 -0.031324,-0.0588 -0.069609,-0.08389 -0.038285,-0.02509 -0.062943,-0.0564 -0.054795,-0.06958 0.00815,-0.01318 -0.010819,-0.03998 -0.042149,-0.05954 -0.03133,-0.01957 -0.056963,-0.0513 -0.056963,-0.07053 0,-0.019224 -0.025145,-0.050655 -0.055879,-0.069849 C 2.749219,9.920672 2.724073,9.88924 2.724073,9.870016 2.724073,9.850792 2.698927,9.819361 2.668194,9.800167 2.637461,9.780974 2.612315,9.749542 2.612315,9.730318 2.612315,9.711094 2.58717,9.679663 2.556436,9.660469 2.525703,9.641276 2.500557,9.610027 2.500557,9.591028 2.500557,9.572029 2.469233,9.535959 2.430948,9.510874 2.392663,9.485789 2.367918,9.454619 2.375959,9.441609 2.383999,9.428598 2.358855,9.397166 2.32008,9.37176 2.281305,9.346354 2.25616,9.314922 2.264201,9.301911 2.272241,9.2889 2.247097,9.257468 2.208322,9.232062 2.169547,9.206656 2.144402,9.175224 2.152443,9.162213 2.160483,9.149202 2.135339,9.11777 2.096564,9.092364 2.057789,9.066958 2.032644,9.035526 2.040685,9.022515 2.048725,9.009504 2.023581,8.978072 1.984806,8.952666 1.946031,8.92726 1.920886,8.895828 1.928927,8.882817 1.936967,8.869806 1.911823,8.838374 1.873048,8.812968 1.834273,8.787562 1.809128,8.75613 1.817169,8.743119 1.825209,8.730108 1.800065,8.698676 1.76129,8.67327 1.722516,8.647864 1.69737,8.616432 1.705411,8.603421 1.713451,8.59041 1.688307,8.558978 1.649532,8.533572 1.610758,8.508166 1.585612,8.476734 1.593653,8.463723 1.601693,8.450712 1.576548,8.41928 1.537774,8.393874 1.499,8.368468 1.473854,8.337036 1.481895,8.324025 1.489935,8.311014 1.464791,8.279582 1.426016,8.254176 1.387242,8.22877 1.362096,8.197338 1.370137,8.184327 1.378177,8.171316 1.353033,8.139884 1.314258,8.114478 1.275484,8.089072 1.250338,8.05764 1.258379,8.044629 1.266419,8.031618 1.241274,8.000186 1.2025,7.97478 1.163726,7.949374 1.13858,7.917942 1.146621,7.904931 1.154661,7.89192 1.129517,7.860488 1.090742,7.835082 1.051967,7.809676 1.026822,7.778244 1.034863,7.765233 1.042903,7.752222 1.017758,7.72079 0.9789841,7.695384 0.9402096,7.669978 0.9150641,7.638546 0.9231052,7.625535 0.9311462,7.612524 0.9060007,7.581092 0.8672263,7.555686 0.8284518,7.53028 0.8033063,7.498848 0.8113474,7.485837 0.8193884,7.472826 0.7942429,7.441394 0.7554685,7.415988 0.716694,7.390582 0.6915485,7.35915 0.6995896,7.346139 0.7076306,7.333128 0.6824852,7.301696 0.6437107,7.27629 0.6049362,7.250884 0.5796004,7.21976 0.5874089,7.207126 0.5952169,7.194491 0.5738892,7.164741 0.5400129,7.141013 0.5061366,7.117285 0.4752722,7.076427 0.4714254,7.050216 0.4622734,6.987858 0.5126123,6.8950176 0.5447924,6.914906 0.5586171,6.923446 0.5837626,6.904591 0.6006713,6.872997 0.61758,6.841403 0.6427255,6.822544 0.6565502,6.831088 0.6703749,6.839628 0.6955204,6.820773 0.7124291,6.789179 0.7293378,6.757585 0.7542539,6.738584 0.7677982,6.746955 0.7813425,6.755325 0.8101281,6.736899 0.8317662,6.706006 0.8534043,6.675113 0.8791142,6.657843 0.8888991,6.667628 0.8986841,6.677408 0.9146175,6.664758 0.9243066,6.639511 0.9339956,6.614262 0.9598318,6.593603 0.9817201,6.593603 c 0.0218883,0 0.0470338,-0.018859 0.055879,-0.041909 0.00885,-0.02305 0.034338,-0.041909 0.056651,-0.041909 0.022313,0 0.032798,-0.012573 0.023301,-0.027939 -0.0095,-0.015367 0.00901,-0.02794 0.041137,-0.02794 0.032123,0 0.065614,-0.018787 0.074425,-0.041749 0.00881,-0.022962 0.027365,-0.034738 0.04123,-0.026168 0.013865,0.00857 0.032724,-0.004 0.041909,-0.027939 0.00918,-0.023936 0.028044,-0.036509 0.041909,-0.027939 0.013865,0.00857 0.032752,-0.00408 0.041971,-0.0281 0.00922,-0.024024 0.034276,-0.04368 0.055682,-0.04368 0.021406,0 0.03892,-0.012573 0.03892,-0.02794 0,-0.015367 0.018859,-0.027939 0.041909,-0.027939 0.02305,0 0.041909,-0.012573 0.041909,-0.027939 0,-0.015367 0.018859,-0.02794 0.041909,-0.02794 0.02305,0 0.041909,-0.013315 0.041909,-0.029588 0,-0.016274 0.012662,-0.021763 0.028137,-0.012199 0.015475,0.00956 0.035652,-0.00219 0.044837,-0.02613 0.00918,-0.023936 0.026051,-0.03774 0.037481,-0.030677 0.011429,0.00706 0.047304,-0.011867 0.079722,-0.042069 0.032418,-0.030202 0.07204,-0.054913 0.08805,-0.054913 0.016009,0 0.029108,-0.013315 0.029108,-0.029589 0,-0.016274 0.012573,-0.021818 0.02794,-0.012321 0.015367,0.0095 0.02794,0.00395 0.02794,-0.012321 0,-0.016274 0.018859,-0.029588 0.041909,-0.029588 0.02305,0 0.041909,-0.013315 0.041909,-0.029589 0,-0.016274 0.010669,-0.022995 0.023708,-0.014936 0.01304,0.00806 0.050232,-0.010058 0.08265,-0.04026 0.032418,-0.030202 0.07204,-0.054913 0.08805,-0.054913 0.016009,0 0.029108,-0.013315 0.029108,-0.029588 0,-0.016274 0.012573,-0.021818 0.027939,-0.012321 0.015367,0.0095 0.02794,0.00321 0.02794,-0.01397 0,-0.017181 0.012573,-0.023467 0.02794,-0.01397 0.015367,0.0095 0.027939,0.00395 0.027939,-0.012321 0,-0.016274 0.017514,-0.029588 0.03892,-0.029588 0.021406,0 0.045471,-0.017071 0.053478,-0.037936 0.00801,-0.020865 0.051841,-0.045393 0.09741,-0.054507 0.045569,-0.00911 0.1017299,-0.035448 0.1248028,-0.058521 0.023073,-0.023073 0.049734,-0.034168 0.059247,-0.024655 0.00951,0.00951 0.017296,0.00399 0.017296,-0.012271 0,-0.016262 0.031432,-0.037456 0.069849,-0.047098 0.038417,-0.00964 0.069849,-0.030606 0.069849,-0.046587 0,-0.015981 0.012573,-0.021286 0.02794,-0.011789 0.015367,0.0095 0.02794,0.00321 0.02794,-0.01397 0,-0.017181 0.012573,-0.023467 0.027939,-0.01397 0.015367,0.0095 0.02794,0.00321 0.02794,-0.01397 0,-0.017181 0.012573,-0.023467 0.02794,-0.01397 0.015367,0.0095 0.027939,0.00321 0.027939,-0.01397 0,-0.017181 0.012573,-0.023467 0.02794,-0.01397 0.015367,0.0095 0.02794,0.00395 0.02794,-0.012321 0,-0.016274 0.00943,-0.02694 0.020955,-0.023703 0.011525,0.00324 0.178114,-0.075088 0.3701979,-0.1740566 C 3.782305,4.9296011 3.948894,4.8515161 3.9604191,4.855047 c 0.011525,0.00353 0.020955,-0.0069 0.020955,-0.023169 0,-0.016274 0.012573,-0.021818 0.027939,-0.012321 0.015367,0.0095 0.02794,0.00321 0.02794,-0.01397 0,-0.01718 0.011559,-0.024093 0.025687,-0.015362 0.014128,0.00873 0.042716,4.39e-5 0.063529,-0.019306 0.020813,-0.01935 0.056402,-0.039315 0.079086,-0.044366 0.022684,-0.00505 0.062454,-0.028286 0.088378,-0.051631 0.025923,-0.023345 0.060498,-0.034186 0.076833,-0.02409 0.016335,0.010096 0.0297,0.0043 0.0297,-0.012882 0,-0.017181 0.011095,-0.02438 0.024655,-0.015999 0.013561,0.00838 0.058228,-0.01117 0.09926,-0.043446 0.041032,-0.032276 0.081881,-0.051406 0.090776,-0.042511 0.00889,0.00889 0.042807,0.00134 0.075362,-0.016779 0.032555,-0.018123 0.065477,-0.034422 0.07316,-0.036219 0.097097,-0.022715 0.1676367,-0.050337 0.1676367,-0.065644 0,-0.010431 0.022002,-0.020676 0.048894,-0.022768 0.026892,-0.00209 0.1117579,-0.031859 0.1885914,-0.066149 0.076834,-0.03429 0.1642972,-0.067004 0.1943634,-0.072697 0.030067,-0.00569 0.062904,-0.02368 0.072972,-0.039971 0.010069,-0.016291 0.02633,-0.028546 0.036137,-0.027234 0.00981,0.00131 0.020974,0.00145 0.024816,3.102e-4 0.00384,-0.00114 0.038417,-0.00779 0.076834,-0.014778 0.038417,-0.00699 0.074066,-0.024989 0.07922,-0.040007 0.00515,-0.015018 0.02061,-0.020359 0.034347,-0.01187 0.013737,0.00849 0.053524,-4.159e-4 0.088417,-0.01979 0.034893,-0.019374 0.072871,-0.037243 0.084396,-0.039709 0.011525,-0.00247 0.027241,-0.00763 0.034924,-0.011467 0.00768,-0.00384 0.026542,-0.010128 0.041909,-0.01397 0.015367,-0.00384 0.034226,-0.010128 0.041909,-0.01397 0.00768,-0.00384 0.026542,-0.010128 0.041909,-0.01397 0.015367,-0.00384 0.034226,-0.010128 0.041909,-0.01397 0.00768,-0.00384 0.026542,-0.010128 0.041909,-0.01397 0.015367,-0.00384 0.034226,-0.010128 0.041909,-0.01397 0.00768,-0.00384 0.026543,-0.010128 0.041909,-0.01397 0.015367,-0.00384 0.031083,-0.00949 0.034924,-0.012553 0.00384,-0.00306 0.038148,-0.011281 0.076236,-0.018262 0.038088,-0.00698 0.080482,-0.023923 0.094208,-0.03765 0.013726,-0.013726 0.044346,-0.017516 0.068045,-0.00842 0.029953,0.011494 0.036366,0.00566 0.021036,-0.019146 -0.016205,-0.026219 -0.00693,-0.030881 0.034974,-0.017581 0.031364,0.00995 0.06524,0.00481 0.075278,-0.011432 0.010038,-0.016242 0.029087,-0.022835 0.04233,-0.01465 0.013243,0.00818 0.031636,0.00265 0.040873,-0.012294 0.00924,-0.014946 0.035252,-0.020093 0.05781,-0.011436 0.022558,0.00866 0.041014,0.00127 0.041014,-0.016415 0,-0.017684 0.015716,-0.030113 0.034924,-0.027618 0.085734,0.011133 0.162478,-0.00447 0.146797,-0.029839 -0.00972,-0.015721 0.010766,-0.025666 0.047245,-0.022937 0.077936,0.00583 0.3597128,-0.058915 0.4022419,-0.092423 0.016781,-0.013221 0.037947,-0.016602 0.047035,-0.00751 0.00909,0.00909 0.032857,0.00643 0.052817,-0.0059 0.01996,-0.012336 0.055372,-0.02415 0.078692,-0.026253 0.092425,-0.00833 0.2397818,-0.048636 0.2716772,-0.074302 0.018535,-0.014915 0.044358,-0.020532 0.057383,-0.012482 0.023705,0.01465 0.2351455,-0.023671 0.3140387,-0.056916 0.02305,-0.00971 0.050515,-0.015939 0.061033,-0.013835 0.026267,0.00525 0.3342954,-0.049755 0.3859982,-0.068933 0.02305,-0.00855 0.1031461,-0.020743 0.1779912,-0.027096 0.074845,-0.00635 0.149318,-0.01973 0.1654958,-0.029729 0.016178,-0.01 0.061809,-0.020733 0.1014035,-0.023855 0.1697987,-0.013388 0.4134856,-0.043584 0.4910816,-0.06085 0.0461,-0.010258 0.091254,-0.016921 0.1003421,-0.014806 0.00909,0.00212 0.172534,-0.014181 0.3632132,-0.036214 0.936515,-0.1082126 2.389257,-0.130394 3.378121,-0.051579 0.08452,0.00674 0.216531,0.016622 0.293364,0.02197 0.07683,0.00535 0.17113,0.017655 0.209546,0.02735 0.03842,0.0097 0.151572,0.024145 0.251456,0.03211 0.09988,0.00796 0.219324,0.020214 0.265424,0.027219 0.0461,0.00701 0.130953,0.019433 0.188561,0.027617 0.05761,0.00818 0.151903,0.022328 0.209546,0.031432 0.05764,0.0091 0.136236,0.020016 0.174652,0.02425 0.03842,0.00423 0.09185,0.016838 0.118743,0.028009 0.02689,0.011171 0.06735,0.013229 0.08991,0.00457 0.02256,-0.00866 0.04795,-0.00452 0.05643,0.0092 0.0085,0.013718 0.03717,0.024954 0.06376,0.024969 0.02659,1.52e-5 0.167133,0.025566 0.312319,0.056779 0.145186,0.031213 0.269757,0.050969 0.276824,0.043902 0.0071,-0.00707 0.02845,1.016e-4 0.04753,0.015931 0.01907,0.015829 0.07681,0.033125 0.128298,0.038435 0.05149,0.00531 0.113864,0.018066 0.138606,0.028346 0.02474,0.01028 0.07503,0.022644 0.111758,0.027477 0.03673,0.00483 0.08702,0.017405 0.111758,0.027939 0.02474,0.010534 0.07503,0.023107 0.111758,0.02794 0.03672,0.00483 0.08563,0.016049 0.108681,0.024927 0.09963,0.038372 0.262071,0.071804 0.283758,0.0584 0.01297,-0.00801 0.02358,-7.052e-4 0.02358,0.016242 0,0.016947 0.01572,0.028279 0.03493,0.025182 0.01921,-0.0031 0.05378,0.00249 0.07683,0.01242 0.02305,0.00993 0.06705,0.022595 0.09779,0.028149 0.03073,0.00555 0.07474,0.018126 0.09779,0.02794 0.02305,0.00981 0.07334,0.02334 0.111757,0.030061 0.03842,0.00672 0.07299,0.014725 0.07683,0.017787 0.0038,0.00306 0.01956,0.00871 0.03492,0.012554 0.01537,0.00384 0.03423,0.010128 0.04191,0.01397 0.0077,0.00384 0.02654,0.010128 0.04191,0.01397 0.01537,0.00384 0.03737,0.010004 0.04889,0.013695 0.01153,0.00369 0.04433,0.00424 0.0729,0.00122 0.02951,-0.00312 0.04426,0.00695 0.03415,0.023311 -0.01037,0.016782 0.02625,0.03761 0.08775,0.049907 0.05805,0.011608 0.111835,0.023364 0.119519,0.026125 0.08156,0.029302 0.129858,0.04164 0.150543,0.038457 0.01365,-0.0021 0.03469,0.012163 0.04677,0.031696 0.01748,0.028284 0.03198,0.027348 0.07122,-0.0046 0.04391,-0.035752 0.04728,-0.034797 0.03095,0.00878 -0.01205,0.032157 -0.0043,0.05009 0.02271,0.052386 0.04493,0.00382 0.08912,0.013568 0.110881,0.024447 0.0077,0.00384 0.02654,0.010128 0.04191,0.01397 0.01537,0.00384 0.03737,0.010045 0.04889,0.013786 0.01152,0.00374 0.03038,0.00531 0.04191,0.00349 0.01152,-0.00182 0.02095,0.01136 0.02095,0.029287 0,0.017928 0.0083,0.024323 0.01838,0.014212 0.01011,-0.010111 0.03526,-0.00438 0.05588,0.012734 0.02062,0.017115 0.03769,0.020149 0.03792,0.00674 2.35e-4,-0.013407 0.01021,-0.00898 0.02217,0.00984 0.01196,0.01882 0.04916,0.038403 0.08267,0.043518 0.03351,0.00511 0.06877,0.017138 0.07835,0.02672 0.0096,0.00958 0.03711,0.00986 0.06118,6.285e-4 0.02888,-0.011081 0.03689,-0.00567 0.02356,0.015895 -0.01842,0.0298 0.03546,0.047616 0.105335,0.03483 0.01345,-0.00246 0.04692,0.01586 0.07438,0.040713 0.02746,0.024853 0.06675,0.047985 0.08731,0.051403 0.02056,0.00342 0.06252,0.019628 0.09325,0.036021 0.03073,0.016393 0.07334,0.023587 0.09469,0.015986 0.02175,-0.00774 0.03104,-0.00125 0.02115,0.014765 -0.016,0.025889 0.105969,0.078135 0.15657,0.067067 0.01153,-0.00252 0.02096,0.00873 0.02096,0.025005 0,0.016274 0.01257,0.021818 0.02794,0.012321 0.01537,-0.0095 0.02794,-0.00395 0.02794,0.012321 0,0.016274 0.0094,0.027003 0.02095,0.023844 0.01152,-0.00316 0.06022,0.015198 0.108216,0.040795 0.04799,0.025597 0.09514,0.038659 0.104773,0.029027 0.0096,-0.00963 0.01751,-0.0021 0.01751,0.016733 0,0.018835 0.01257,0.026475 0.02794,0.016977 0.01537,-0.0095 0.02794,-0.00395 0.02794,0.012321 0,0.016274 0.0094,0.026477 0.02095,0.022675 0.02665,-0.00879 0.744179,0.3489376 0.756752,0.3772857 0.0052,0.011621 0.02087,0.014022 0.03492,0.00534 0.01405,-0.00869 0.02555,-0.00287 0.02555,0.012919 0,0.015791 0.01875,0.021515 0.04167,0.01272 0.02376,-0.00912 0.04904,0.0032 0.05881,0.028656 0.0094,0.024556 0.02839,0.037691 0.04214,0.029189 0.01376,-0.0085 0.02501,-0.0014 0.02501,0.015779 0,0.017181 0.01257,0.023467 0.02794,0.01397 0.01537,-0.0095 0.02794,-0.00532 0.02794,0.00929 0,0.014608 0.03458,0.035229 0.07683,0.045825 0.04226,0.010596 0.09933,0.043391 0.126816,0.072877 0.02749,0.029487 0.06835,0.053612 0.0908,0.053612 0.02245,0 0.04082,0.013315 0.04082,0.029588 0,0.016274 0.01257,0.021818 0.02794,0.012321 0.01537,-0.0095 0.02794,-0.00419 0.02794,0.011788 0,0.015981 0.03143,0.036945 0.06985,0.046587 0.03842,0.00964 0.06985,0.029483 0.06985,0.04409 0,0.014608 0.01257,0.018789 0.02794,0.00929 0.01537,-0.0095 0.02794,-0.00395 0.02794,0.012321 0,0.016274 0.02589,0.029588 0.05753,0.029588 0.03168,0 0.04968,0.0127 0.04006,0.028268 -0.0097,0.015765 0.02148,0.036058 0.0706,0.045882 0.04844,0.00969 0.09462,0.034686 0.10263,0.055551 0.008,0.020865 0.03207,0.037936 0.05348,0.037936 0.02141,0 0.03892,0.013315 0.03892,0.029588 0,0.016274 0.01126,0.022632 0.02501,0.01413 0.01376,-0.0085 0.03253,0.00413 0.04171,0.028062 0.0092,0.023936 0.02804,0.036509 0.04191,0.02794 0.01386,-0.00857 0.03272,0.004 0.04191,0.027939 0.0092,0.023936 0.02936,0.035694 0.04484,0.02613 0.01547,-0.00956 0.02814,-0.00407 0.02814,0.012199 0,0.016274 0.01886,0.029588 0.04191,0.029588 0.02305,0 0.04191,0.012573 0.04191,0.027939 0,0.015367 0.01886,0.02794 0.04191,0.02794 0.02305,0 0.04191,0.012573 0.04191,0.027939 0,0.015367 0.02589,0.02794 0.05753,0.02794 0.03164,0 0.04976,0.012573 0.04026,0.027939 -0.0095,0.015367 0.0023,0.027939 0.02629,0.027939 0.02396,0 0.04356,0.012573 0.04356,0.02794 0,0.015367 0.01886,0.027939 0.04191,0.027939 0.02305,0 0.04191,0.012573 0.04191,0.027939 0,0.015367 0.01886,0.02794 0.04191,0.02794 0.02305,0 0.04191,0.012573 0.04191,0.027939 0,0.015367 0.01751,0.02794 0.03892,0.02794 0.02141,0 0.04646,0.019656 0.05568,0.04368 0.0092,0.024024 0.02811,0.036669 0.04197,0.0281 0.01387,-0.00857 0.03246,0.00332 0.04133,0.026428 0.0089,0.023104 0.0259,0.040402 0.03785,0.03844 0.05599,-0.00919 0.09325,0.00568 0.07761,0.030989 -0.0095,0.015367 9.88e-4,0.02794 0.0233,0.02794 0.02231,0 0.04811,0.019656 0.05733,0.04368 0.0092,0.024024 0.02811,0.036669 0.04197,0.0281 0.01386,-0.00857 0.03242,0.00321 0.04123,0.026168 0.0088,0.022962 0.03393,0.041749 0.05582,0.041749 0.02189,0 0.04734,0.019656 0.05656,0.04368 0.0092,0.024024 0.02879,0.036245 0.0435,0.027157 0.0147,-0.00909 0.04057,0.00933 0.05748,0.040921 0.01691,0.031594 0.04131,0.050914 0.05422,0.042931 0.01291,-0.00798 0.04372,0.016372 0.06845,0.05412 0.04304,0.065684 0.04137,0.072733 -0.03885,0.1641005 -0.0461,0.052508 -0.08382,0.1065005 -0.08382,0.1199838 0,0.013483 -0.02515,0.040219 -0.05588,0.059412 -0.03073,0.019193 -0.05588,0.050625 -0.05588,0.069849 0,0.019223 -0.02563,0.05096 -0.05696,0.070526 -0.03133,0.019566 -0.04984,0.047105 -0.04113,0.061198 0.0087,0.014093 -0.0097,0.03927 -0.04083,0.055948 -0.03116,0.016679 -0.05666,0.048299 -0.05666,0.070267 0,0.021969 -0.02515,0.053401 -0.05588,0.069849 -0.03073,0.016448 -0.05588,0.04788 -0.05588,0.069849 0,0.021969 -0.02514,0.053401 -0.05588,0.069849 -0.03073,0.016448 -0.05588,0.04788 -0.05588,0.069849 0,0.021969 -0.02515,0.053401 -0.05588,0.069849 -0.03073,0.016448 -0.05588,0.04788 -0.05588,0.069849 0,0.021969 -0.02515,0.053401 -0.05588,0.069849 -0.03073,0.016448 -0.05588,0.045298 -0.05588,0.064111 0,0.018813 -0.02515,0.049909 -0.05588,0.069102 -0.03073,0.019193 -0.05588,0.050625 -0.05588,0.069849 0,0.019223 -0.02515,0.050655 -0.05588,0.069849 -0.03073,0.019193 -0.05588,0.050625 -0.05588,0.069849 0,0.019223 -0.02515,0.050655 -0.05588,0.069849 -0.03073,0.019193 -0.05588,0.050625 -0.05588,0.069849 0,0.019223 -0.02514,0.050655 -0.05588,0.069849 -0.03073,0.019193 -0.05588,0.050625 -0.05588,0.069849 0,0.019223 -0.02563,0.05096 -0.05696,0.070526 -0.03133,0.019566 -0.0503,0.04636 -0.04215,0.059544 0.0081,0.013183 -0.01691,0.044756 -0.05569,0.070162 -0.03877,0.025406 -0.06392,0.056838 -0.05588,0.069849 0.008,0.013011 -0.0171,0.044442 -0.05588,0.069849 -0.03877,0.025406 -0.06392,0.056838 -0.05588,0.069849 0.008,0.013011 -0.0171,0.044442 -0.05588,0.069849 -0.03877,0.025406 -0.06392,0.056838 -0.05588,0.069849 0.008,0.013011 -0.0171,0.044443 -0.05588,0.069849 -0.03877,0.025406 -0.06392,0.056838 -0.05588,0.069849 0.008,0.013011 -0.01711,0.044443 -0.05588,0.069849 -0.03878,0.025406 -0.06392,0.056838 -0.05588,0.069849 0.008,0.013011 -0.01711,0.044443 -0.05588,0.069849 -0.03877,0.025406 -0.06392,0.056838 -0.05588,0.069849 0.008,0.013011 -0.01711,0.044442 -0.05588,0.069849 -0.03878,0.025406 -0.06392,0.056838 -0.05588,0.069849 0.008,0.013011 -0.0171,0.044442 -0.05588,0.069849 -0.03878,0.025406 -0.06392,0.056838 -0.05588,0.069849 0.008,0.013011 -0.0171,0.044443 -0.05588,0.069849 -0.03877,0.02541 -0.06392,0.05684 -0.05588,0.06985 0.008,0.01301 -0.0171,0.04444 -0.05588,0.06985 -0.03877,0.02541 -0.06392,0.05684 -0.05588,0.06985 0.008,0.01301 -0.0171,0.04444 -0.05588,0.06985 -0.03878,0.02541 -0.06392,0.05684 -0.05588,0.06985 0.008,0.01301 -0.01711,0.04444 -0.05588,0.06985 -0.03877,0.02541 -0.06392,0.05684 -0.05588,0.06985 0.008,0.01301 -0.0171,0.04444 -0.05588,0.06985 -0.03878,0.02541 -0.06392,0.05684 -0.05588,0.06985 0.008,0.01301 -0.01711,0.04444 -0.05588,0.06985 -0.03877,0.02541 -0.06392,0.05684 -0.05588,0.06985 0.008,0.01301 -0.0171,0.04444 -0.05588,0.06985 -0.03878,0.02541 -0.06392,0.05684 -0.05588,0.06985 0.008,0.01301 -0.0171,0.04444 -0.05588,0.06985 -0.03877,0.02541 -0.06392,0.05684 -0.05588,0.06985 0.008,0.01301 -0.0171,0.04444 -0.05588,0.06985 -0.03877,0.02541 -0.06392,0.05684 -0.05588,0.06985 0.008,0.01301 -0.0171,0.04444 -0.05588,0.06985 -0.03878,0.02541 -0.06392,0.05684 -0.05588,0.06985 0.008,0.01301 -0.01711,0.04444 -0.05588,0.06985 -0.03878,0.02541 -0.06392,0.05684 -0.05588,0.06985 0.008,0.01301 -0.01711,0.04444 -0.05588,0.06985 -0.03878,0.02541 -0.06392,0.05684 -0.05588,0.06985 0.008,0.01301 -0.01711,0.04444 -0.05588,0.06985 -0.03878,0.02541 -0.06392,0.05684 -0.05588,0.06985 0.008,0.01301 -0.0167,0.04418 -0.05499,0.06927 -0.03828,0.02508 -0.06961,0.06115 -0.06961,0.08015 0,0.019 -0.02515,0.05025 -0.05588,0.06944 -0.03073,0.01919 -0.05588,0.05063 -0.05588,0.06985 0,0.01922 -0.02515,0.05066 -0.05588,0.06985 -0.03073,0.01919 -0.05588,0.05063 -0.05588,0.06985 0,0.01922 -0.02515,0.05066 -0.05588,0.06985 -0.03073,0.01919 -0.05588,0.05063 -0.05588,0.06985 0,0.01922 -0.02515,0.05066 -0.05588,0.06985 -0.03073,0.01919 -0.05588,0.05063 -0.05588,0.06985 0,0.01922 -0.02514,0.05066 -0.05588,0.06985 -0.03073,0.01919 -0.05588,0.05063 -0.05588,0.06985 0,0.01922 -0.02515,0.05065 -0.05588,0.06985 -0.03073,0.01919 -0.05588,0.05063 -0.05588,0.06985 0,0.01922 -0.02514,0.05065 -0.05588,0.06985 -0.03073,0.01919 -0.05588,0.05063 -0.05588,0.06985 0,0.01922 -0.02515,0.05066 -0.05588,0.06985 -0.03073,0.01919 -0.05588,0.05063 -0.05588,0.06985 0,0.01922 -0.02515,0.05066 -0.05588,0.06985 -0.03073,0.01919 -0.05588,0.05063 -0.05588,0.06985 0,0.01922 -0.02515,0.05066 -0.05588,0.06985 -0.03073,0.01919 -0.05588,0.05063 -0.05588,0.06985 0,0.01922 -0.02515,0.05066 -0.05588,0.06985 -0.03073,0.01919 -0.05588,0.05063 -0.05588,0.06985 0,0.01922 -0.02514,0.05065 -0.05588,0.06985 -0.03073,0.01919 -0.05588,0.05063 -0.05588,0.06985 0,0.01922 -0.02514,0.05065 -0.05588,0.06985 -0.03073,0.01919 -0.05588,0.05063 -0.05588,0.06985 0,0.01922 -0.02514,0.05066 -0.05588,0.06985 -0.03073,0.01919 -0.05588,0.05063 -0.05588,0.06985 0,0.01922 -0.02515,0.05066 -0.05588,0.06985 -0.03073,0.01919 -0.05588,0.05063 -0.05588,0.06985 0,0.01922 -0.02515,0.05066 -0.05588,0.06985 -0.03073,0.01919 -0.05588,0.05063 -0.05588,0.06985 0,0.01922 -0.02515,0.05066 -0.05588,0.06985 -0.03073,0.01919 -0.05588,0.05063 -0.05588,0.06985 0,0.01922 -0.02514,0.05065 -0.05588,0.06985 -0.03073,0.01919 -0.05588,0.05321 -0.05588,0.07559 0,0.02238 -0.02515,0.05415 -0.05588,0.07059 -0.03073,0.01645 -0.05588,0.04788 -0.05588,0.06985 0,0.02197 -0.02514,0.0534 -0.05588,0.06985 -0.03073,0.01645 -0.05588,0.04788 -0.05588,0.06985 0,0.02197 -0.02515,0.0534 -0.05588,0.06985 -0.03073,0.01645 -0.05588,0.04788 -0.05588,0.06985 0,0.02197 -0.02515,0.0534 -0.05588,0.06985 -0.03073,0.01645 -0.05588,0.04688 -0.05588,0.06762 0,0.02074 -0.03183,0.05857 -0.07074,0.08406 -0.03891,0.02549 -0.06416,0.057 -0.05612,0.07001 0.008,0.01301 -0.01711,0.04444 -0.05588,0.06985 -0.03877,0.02541 -0.06392,0.05684 -0.05588,0.06985 0.008,0.01301 -0.0171,0.04444 -0.05588,0.06985 -0.03877,0.02541 -0.06392,0.05684 -0.05588,0.06985 0.008,0.01301 -0.0171,0.04444 -0.05588,0.06985 -0.03877,0.02541 -0.06392,0.05684 -0.05588,0.06985 0.008,0.01301 -0.0167,0.04418 -0.05499,0.06927 -0.03828,0.02509 -0.06961,0.06115 -0.06961,0.08015 0,0.019 -0.02514,0.05025 -0.05588,0.06944 -0.03073,0.01919 -0.05588,0.05063 -0.05588,0.06985 0,0.01922 -0.02514,0.05065 -0.05588,0.06985 -0.03073,0.01919 -0.05588,0.05063 -0.05588,0.06985 0,0.01922 -0.02514,0.05066 -0.05588,0.06985 -0.03073,0.01919 -0.05588,0.05063 -0.05588,0.06985 0,0.01922 -0.02514,0.05066 -0.05588,0.06985 -0.03073,0.01919 -0.05588,0.05321 -0.05588,0.07559 0,0.02238 -0.02515,0.05415 -0.05588,0.0706 -0.03073,0.01645 -0.05588,0.04788 -0.05588,0.06985 0,0.02197 -0.02515,0.0534 -0.05588,0.06985 -0.03073,0.01645 -0.05588,0.04788 -0.05588,0.06985 0,0.02197 -0.02515,0.0534 -0.05588,0.06985 -0.03073,0.01645 -0.05588,0.04788 -0.05588,0.06985 0,0.02197 -0.02514,0.0534 -0.05588,0.06985 -0.03073,0.01645 -0.05588,0.04688 -0.05588,0.06762 0,0.02074 -0.03183,0.05857 -0.07074,0.08406 -0.03891,0.02549 -0.06416,0.057 -0.05612,0.07001 0.008,0.01301 -0.0171,0.04444 -0.05588,0.06985 -0.03877,0.02541 -0.06392,0.05684 -0.05588,0.06985 0.008,0.01301 -0.0171,0.04444 -0.05588,0.06985 -0.03878,0.02541 -0.06392,0.05684 -0.05588,0.06985 0.008,0.01301 -0.0167,0.04418 -0.05499,0.06927 -0.03829,0.02508 -0.06961,0.06115 -0.06961,0.08015 0,0.019 -0.02514,0.05025 -0.05588,0.06944 -0.03073,0.01919 -0.05588,0.05321 -0.05588,0.07559 0,0.02238 -0.02514,0.05415 -0.05588,0.0706 -0.03073,0.01645 -0.05588,0.0453 -0.05588,0.06411 0,0.01881 -0.02515,0.04991 -0.05588,0.0691 -0.03073,0.01919 -0.05588,0.05063 -0.05588,0.06985 0,0.01922 -0.02515,0.05066 -0.05588,0.06985 -0.03073,0.01919 -0.05588,0.05063 -0.05588,0.06985 0,0.01922 -0.02515,0.05065 -0.05588,0.06985 -0.03073,0.01919 -0.05588,0.05321 -0.05588,0.07559 0,0.02238 -0.02515,0.05415 -0.05588,0.0706 -0.03073,0.01645 -0.05588,0.04788 -0.05588,0.06985 0,0.02197 -0.02515,0.0534 -0.05588,0.06985 -0.03073,0.01645 -0.05588,0.04788 -0.05588,0.06985 0,0.02197 -0.02515,0.0534 -0.05588,0.06985 -0.03073,0.01645 -0.05588,0.04788 -0.05588,0.06985 0,0.02197 -0.02515,0.0534 -0.05588,0.06985 -0.03073,0.01645 -0.05588,0.04688 -0.05588,0.06762 0,0.02074 -0.03183,0.05857 -0.07074,0.08406 -0.03891,0.02549 -0.06416,0.057 -0.05612,0.07001 0.008,0.01301 -0.01711,0.04444 -0.05588,0.06985 -0.03877,0.02541 -0.06392,0.05684 -0.05588,0.06985 0.008,0.01301 -0.01711,0.04444 -0.05588,0.06985 -0.03877,0.02541 -0.06392,0.05684 -0.05588,0.06985 0.008,0.01301 -0.0167,0.04418 -0.05499,0.06927 -0.03828,0.02509 -0.06961,0.06115 -0.06961,0.08015 0,0.019 -0.02515,0.05025 -0.05588,0.06944 -0.03073,0.01919 -0.05588,0.05063 -0.05588,0.06985 0,0.01922 -0.02515,0.05066 -0.05588,0.06985 -0.03073,0.01919 -0.05588,0.05321 -0.05588,0.07559 0,0.02238 -0.02515,0.05415 -0.05588,0.07059 -0.03073,0.01645 -0.05588,0.04688 -0.05588,0.06762 0,0.02074 -0.03183,0.05857 -0.07074,0.08406 -0.03891,0.02549 -0.06416,0.057 -0.05612,0.07001 0.008,0.01301 -0.0171,0.04444 -0.05588,0.06985 -0.03877,0.02541 -0.06392,0.05684 -0.05588,0.06985 0.008,0.01301 -0.0167,0.04418 -0.05499,0.06926 -0.03829,0.02509 -0.06961,0.06115 -0.06961,0.08015 0,0.019 -0.02514,0.05025 -0.05588,0.06944 -0.03073,0.01919 -0.05588,0.05063 -0.05588,0.06985 0,0.01922 -0.02515,0.05065 -0.05588,0.06985 -0.03073,0.01919 -0.05588,0.05321 -0.05588,0.07559 0,0.02238 -0.02515,0.05415 -0.05588,0.0706 -0.03073,0.01645 -0.05588,0.04688 -0.05588,0.06762 0,0.02074 -0.03183,0.05857 -0.07074,0.08406 -0.03891,0.02549 -0.06416,0.05699 -0.05612,0.07001 0.008,0.01301 -0.0167,0.04418 -0.05499,0.06926 -0.03829,0.02509 -0.06961,0.06115 -0.06961,0.08015 0,0.019 -0.02515,0.05025 -0.05588,0.06944 -0.03073,0.01919 -0.05588,0.0522 -0.05588,0.07336 0,0.02115 -0.03183,0.05932 -0.07074,0.08481 -0.03891,0.02549 -0.06416,0.057 -0.05612,0.07001 0.008,0.01301 -0.0171,0.04444 -0.05588,0.06985 -0.03878,0.02541 -0.06411,0.05653 -0.0563,0.06917 0.0078,0.01264 -0.0075,0.04263 -0.03405,0.06665 -0.0351,0.03177 -0.06173,0.03612 -0.09772,0.01599 z"
     id="path3" />
</svg>
