<?xml version="1.0" encoding="UTF-8" standalone="no"?>
<svg
   viewBox="0 0 24 24"
   version="1.1"
   id="svg1"
   sodipodi:docname="brightness-6.svg"
   inkscape:version="1.3.2 (091e20ef0f, 2023-11-25, custom)"
   xmlns:inkscape="http://www.inkscape.org/namespaces/inkscape"
   xmlns:sodipodi="http://sodipodi.sourceforge.net/DTD/sodipodi-0.dtd"
   xmlns="http://www.w3.org/2000/svg"
   xmlns:svg="http://www.w3.org/2000/svg">
  <defs
     id="defs1" />
  <sodipodi:namedview
     id="namedview1"
     pagecolor="#ffffff"
     bordercolor="#000000"
     borderopacity="0.25"
     inkscape:showpageshadow="2"
     inkscape:pageopacity="0.0"
     inkscape:pagecheckerboard="0"
     inkscape:deskcolor="#d1d1d1"
     showgrid="false"
     inkscape:zoom="35.791667"
     inkscape:cx="12"
     inkscape:cy="12"
     inkscape:window-width="1914"
     inkscape:window-height="1055"
     inkscape:window-x="3"
     inkscape:window-y="22"
     inkscape:window-maximized="1"
     inkscape:current-layer="svg1" />
  <path
     d="M12,18V6A6,6 0 0,1 18,12A6,6 0 0,1 12,18M20,15.31L23.31,12L20,8.69V4H15.31L12,0.69L8.69,4H4V8.69L0.69,12L4,15.31V20H8.69L12,23.31L15.31,20H20V15.31Z"
     id="path1" />
  <path
     style="fill:#dbdee3;fill-opacity:0.960784;stroke:#ffffff;stroke-width:0.00295674;stroke-dasharray:none;stroke-opacity:1"
     d="M 10.337602,21.625146 8.6893512,19.976717 H 6.3493322 4.0093132 V 17.636698 15.296679 L 2.360884,13.648428 0.71245487,12.000176 2.360884,10.351572 4.0093132,8.7029686 V 6.3631256 4.0232829 H 6.3491559 8.6889988 L 10.344499,2.3679577 12,0.71263244 l 1.655501,1.65532526 1.6555,1.6553252 h 2.339843 2.339843 v 2.3398427 2.339843 l 1.648429,1.6486034 1.648429,1.648604 -1.648429,1.648252 -1.648429,1.648251 v 2.340019 2.340019 h -2.340019 -2.340019 l -1.648251,1.648429 C 12.75586,22.531781 12.007781,23.273574 12,23.273574 c -0.0078,0 -0.75586,-0.741793 -1.662398,-1.648428 z m 2.528521,-3.677653 c 2.58274,-0.359773 4.636294,-2.38316 5.075532,-5.00097 0.07213,-0.429903 0.07213,-1.463143 0,-1.893046 C 17.616532,9.1157783 16.419779,7.4861951 14.68726,6.6220649 13.93713,6.247922 13.186957,6.0513986 12.28638,5.9931043 L 12,5.974567 V 12 18.025433 l 0.28638,-0.01854 c 0.157508,-0.0102 0.418393,-0.03693 0.579743,-0.0594 z"
     id="path2" />
  <path
     style="fill:#eceff4;fill-opacity:0.960784;stroke:#ffffff;stroke-width:0.00295674"
     d="M 10.337108,21.597139 8.688186,19.948777 H 6.3627193 4.0372526 V 17.623311 15.297844 L 2.3890824,13.648978 0.7409123,12.000113 2.3890824,10.351078 4.0372526,8.7020437 V 6.3766331 4.0512223 H 6.3626634 8.688074 L 10.344037,2.3961274 12,0.74103248 13.655963,2.3961274 15.311926,4.0512223 h 2.32541 2.325411 v 2.3254108 2.3254106 l 1.64817,1.6490343 1.64817,1.649035 -1.64817,1.648865 -1.64817,1.648866 v 2.325467 2.325466 h -2.325411 -2.32541 l -1.649293,1.648429 c -0.907111,0.906635 -1.655438,1.648398 -1.662948,1.648361 -0.0075,-3.7e-5 -0.75567,-0.74183 -1.662577,-1.648428 z m 2.081984,-3.590686 c 2.513598,-0.179935 4.618393,-1.86116 5.349426,-4.272906 0.197908,-0.652917 0.224254,-0.85934 0.223041,-1.747517 -10e-4,-0.756918 -0.0048,-0.813839 -0.07664,-1.151645 C 17.720784,9.9212026 17.354894,9.1029792 16.818201,8.3818356 15.8943,7.1404078 14.452555,6.2777937 12.922002,6.05069 12.582954,6.000382 12.023719,5.951774 11.993015,5.969943 c -0.0261,0.015443 -0.02809,12.034565 -0.002,12.060655 0.01043,0.01043 0.05757,0.01308 0.104773,0.0059 0.0472,-0.0072 0.192685,-0.0207 0.323302,-0.03005 z"
     id="path3" />
</svg>
