<?xml version="1.0" encoding="UTF-8" standalone="no"?>
<svg
   viewBox="0 0 24 24"
   version="1.1"
   id="svg1"
   sodipodi:docname="brightness-7.svg"
   inkscape:version="1.3.2 (091e20ef0f, 2023-11-25, custom)"
   xmlns:inkscape="http://www.inkscape.org/namespaces/inkscape"
   xmlns:sodipodi="http://sodipodi.sourceforge.net/DTD/sodipodi-0.dtd"
   xmlns="http://www.w3.org/2000/svg"
   xmlns:svg="http://www.w3.org/2000/svg">
  <defs
     id="defs1" />
  <sodipodi:namedview
     id="namedview1"
     pagecolor="#ffffff"
     bordercolor="#000000"
     borderopacity="0.25"
     inkscape:showpageshadow="2"
     inkscape:pageopacity="0.0"
     inkscape:pagecheckerboard="0"
     inkscape:deskcolor="#d1d1d1"
     showgrid="false"
     inkscape:zoom="35.791667"
     inkscape:cx="12"
     inkscape:cy="12"
     inkscape:window-width="1914"
     inkscape:window-height="1055"
     inkscape:window-x="3"
     inkscape:window-y="22"
     inkscape:window-maximized="1"
     inkscape:current-layer="svg1" />
  <path
     d="M12,8A4,4 0 0,0 8,12A4,4 0 0,0 12,16A4,4 0 0,0 16,12A4,4 0 0,0 12,8M12,18A6,6 0 0,1 6,12A6,6 0 0,1 12,6A6,6 0 0,1 18,12A6,6 0 0,1 12,18M20,8.69V4H15.31L12,0.69L8.69,4H4V8.69L0.69,12L4,15.31V20H8.69L12,23.31L15.31,20H20V15.31L23.31,12L20,8.69Z"
     id="path1" />
  <path
     style="fill:#dbdee3;fill-opacity:0.960784;stroke:#ffffff;stroke-width:0.00295674;stroke-dasharray:none;stroke-opacity:1"
     d="M 10.337602,21.625146 8.6893512,19.976717 H 6.3493322 4.0093132 V 17.636698 15.296679 L 2.360884,13.648428 0.71245487,12.000176 2.360884,10.351572 4.0093132,8.7029686 V 6.3631256 4.0232829 H 6.3491559 8.6889988 L 10.344499,2.3679577 12,0.71263244 l 1.655501,1.65532526 1.6555,1.6553252 h 2.339843 2.339843 v 2.3398427 2.339843 l 1.648429,1.6486034 1.648429,1.648604 -1.648429,1.648252 -1.648429,1.648251 v 2.340019 2.340019 h -2.340019 -2.340019 l -1.648251,1.648429 C 12.75586,22.531781 12.007781,23.273574 12,23.273574 c -0.0078,0 -0.75586,-0.741793 -1.662398,-1.648428 z m 2.528521,-3.676227 c 2.597528,-0.374462 4.636146,-2.383705 5.075532,-5.002396 0.07213,-0.429903 0.07213,-1.463143 0,-1.893046 C 17.616532,9.1157783 16.419779,7.4861951 14.68726,6.6220649 13.818081,6.1885436 13.001245,5.9992199 12,5.9992199 c -1.004718,0 -1.816369,0.1887797 -2.6961583,0.6270926 -1.7200633,0.8569386 -2.9214203,2.4957031 -3.2454971,4.4271645 -0.072133,0.429903 -0.072133,1.463143 0,1.893046 0.1443448,0.860278 0.4732632,1.697375 0.9392563,2.390407 1.3016463,1.935825 3.5664571,2.943858 5.8685221,2.611989 z"
     id="path2" />
  <path
     style="fill:#dbdee3;fill-opacity:0.960784;stroke:#ffffff;stroke-width:0.00295674;stroke-dasharray:none;stroke-opacity:1"
     d="M 11.461784,15.952807 C 10.561038,15.810742 9.799563,15.425392 9.1763229,14.796233 8.1193726,13.729244 7.7516025,12.18453 8.2161606,10.763343 8.6497229,9.4369785 9.7519441,8.4376836 11.145131,8.1078812 11.424469,8.041755 11.509146,8.0344849 12,8.0344849 c 0.490854,0 0.575531,0.00727 0.854869,0.073396 0.770532,0.1824044 1.421885,0.5431257 1.964574,1.0879883 1.057834,1.0620698 1.428796,2.6201198 0.963059,4.0448718 -0.361616,1.106231 -1.242206,2.040235 -2.321354,2.462161 -0.485393,0.189779 -0.810516,0.25297 -1.36336,0.264983 -0.261234,0.0057 -0.547436,-0.0011 -0.636004,-0.01508 z"
     id="path3" />
  <path
     style="fill:#eceff4;fill-opacity:0.960784;stroke:#ffffff;stroke-width:0.00295674"
     d="M 10.337108,21.597139 8.688186,19.948777 H 6.3627193 4.0372526 V 17.623311 15.297844 L 2.3890824,13.648978 0.7409123,12.000113 2.3890824,10.351078 4.0372526,8.7020437 V 6.3766331 4.0512223 H 6.3626634 8.688074 L 10.344037,2.3961274 12,0.74103248 13.655963,2.3961274 15.311926,4.0512223 h 2.32541 2.325411 v 2.3254108 2.3254106 l 1.64817,1.6490343 1.64817,1.649035 -1.64817,1.648865 -1.64817,1.648866 v 2.325467 2.325466 h -2.325411 -2.32541 l -1.649293,1.648429 c -0.907111,0.906635 -1.655438,1.648398 -1.662948,1.648361 -0.0075,-3.7e-5 -0.75567,-0.74183 -1.662577,-1.648428 z m 2.38644,-3.619804 c 1.040133,-0.121023 2.04621,-0.523809 2.90261,-1.16207 0.349706,-0.260629 0.916153,-0.82765 1.178748,-1.179941 0.555208,-0.744853 0.935003,-1.602931 1.124644,-2.540928 0.05694,-0.281617 0.06299,-0.389843 0.06201,-1.108366 -0.001,-0.756918 -0.0048,-0.813839 -0.07664,-1.151645 C 17.569832,9.2111594 16.66727,7.8665735 15.324796,6.975762 14.78957,6.6206078 14.028865,6.2858922 13.435655,6.1445269 12.470191,5.9144513 11.210001,5.9421745 10.307055,6.2133538 8.1380599,6.8647613 6.5634132,8.5881795 6.0849267,10.834385 6.0125283,11.174253 6.0092258,11.225101 6.0092258,12 c 0,0.777517 0.0031,0.824804 0.076732,1.170708 0.4042338,1.898961 1.5880496,3.42677 3.2913843,4.247795 1.0506869,0.506442 2.1781719,0.694737 3.3462059,0.558832 z"
     id="path4" />
  <path
     style="fill:#eceff4;fill-opacity:0.960784;stroke:#ffffff;stroke-width:0.00295674"
     d="M 11.241799,15.899049 C 9.8130422,15.580069 8.6853093,14.577843 8.2327085,13.224846 8.0872845,12.790118 8.0478645,12.528905 8.0478645,12 c 0,-0.525421 0.037838,-0.7789 0.182549,-1.222908 C 8.558565,9.7702464 9.3289487,8.8968666 10.305976,8.4240378 10.87075,8.1507174 11.338164,8.0465657 12,8.0465657 c 0.511273,0 0.789438,0.041443 1.215971,0.1811651 0.619985,0.2030919 1.15762,0.5444549 1.634873,1.0380366 0.536231,0.554579 0.866762,1.1783036 1.039083,1.9607906 0.07977,0.362205 0.08631,1.126366 0.01278,1.493439 -0.155205,0.774899 -0.503002,1.441475 -1.048826,2.010146 -0.55633,0.579616 -1.229026,0.966666 -1.987763,1.143699 -0.363086,0.08472 -1.293122,0.09915 -1.624324,0.02521 z"
     id="path5" />
</svg>
