<?xml version="1.0" encoding="UTF-8" standalone="no"?>
<svg
   viewBox="0 0 24 24"
   version="1.1"
   id="svg1"
   sodipodi:docname="brightness-5.svg"
   inkscape:version="1.3.2 (091e20ef0f, 2023-11-25, custom)"
   xmlns:inkscape="http://www.inkscape.org/namespaces/inkscape"
   xmlns:sodipodi="http://sodipodi.sourceforge.net/DTD/sodipodi-0.dtd"
   xmlns="http://www.w3.org/2000/svg"
   xmlns:svg="http://www.w3.org/2000/svg">
  <defs
     id="defs1" />
  <sodipodi:namedview
     id="namedview1"
     pagecolor="#ffffff"
     bordercolor="#000000"
     borderopacity="0.25"
     inkscape:showpageshadow="2"
     inkscape:pageopacity="0.0"
     inkscape:pagecheckerboard="0"
     inkscape:deskcolor="#d1d1d1"
     showgrid="false"
     inkscape:zoom="35.791667"
     inkscape:cx="12"
     inkscape:cy="12"
     inkscape:window-width="1914"
     inkscape:window-height="1055"
     inkscape:window-x="3"
     inkscape:window-y="22"
     inkscape:window-maximized="1"
     inkscape:current-layer="svg1" />
  <path
     d="M12,18A6,6 0 0,1 6,12A6,6 0 0,1 12,6A6,6 0 0,1 18,12A6,6 0 0,1 12,18M20,15.31L23.31,12L20,8.69V4H15.31L12,0.69L8.69,4H4V8.69L0.69,12L4,15.31V20H8.69L12,23.31L15.31,20H20V15.31Z"
     id="path1" />
  <path
     style="fill:#dbdee3;fill-opacity:0.960784;stroke:#ffffff;stroke-width:0.00295674;stroke-dasharray:none;stroke-opacity:1"
     d="M 10.337602,21.625146 8.6893512,19.976717 H 6.3493322 4.0093132 V 17.636698 15.296679 L 2.360884,13.648428 0.71245487,12.000176 2.360884,10.351572 4.0093132,8.7029686 V 6.3631256 4.0232829 H 6.3491559 8.6889988 L 10.344499,2.3679577 12,0.71263244 l 1.655501,1.65532526 1.6555,1.6553252 h 2.339843 2.339843 v 2.3398427 2.339843 l 1.648429,1.6486034 1.648429,1.648604 -1.648429,1.648252 -1.648429,1.648251 v 2.340019 2.340019 h -2.340019 -2.340019 l -1.648251,1.648429 C 12.75586,22.531781 12.007781,23.273574 12,23.273574 c -0.0078,0 -0.75586,-0.741793 -1.662398,-1.648428 z m 2.528521,-3.676227 c 2.597528,-0.374462 4.636146,-2.383705 5.075532,-5.002396 0.07213,-0.429903 0.07213,-1.463143 0,-1.893046 C 17.616532,9.1157783 16.419779,7.4861951 14.68726,6.6220649 13.818081,6.1885436 13.001245,5.9992199 12,5.9992199 c -1.004718,0 -1.816369,0.1887797 -2.6961583,0.6270926 -1.7200633,0.8569386 -2.9214203,2.4957031 -3.2454971,4.4271645 -0.072133,0.429903 -0.072133,1.463143 0,1.893046 0.1443448,0.860278 0.4732632,1.697375 0.9392563,2.390407 1.3016463,1.935825 3.5664571,2.943858 5.8685221,2.611989 z"
     id="path2" />
  <path
     style="fill:#eceff4;fill-opacity:0.960784;stroke:#ffffff;stroke-width:0.00295674"
     d="M 10.337108,21.597139 8.688186,19.948777 H 6.3627193 4.0372526 V 17.623311 15.297844 L 2.3890824,13.648978 0.7409123,12.000113 2.3890824,10.351078 4.0372526,8.7020437 V 6.3766331 4.0512223 H 6.3626634 8.688074 L 10.344037,2.3961274 12,0.74103248 13.655963,2.3961274 15.311926,4.0512223 h 2.32541 2.325411 v 2.3254108 2.3254106 l 1.64817,1.6490343 1.64817,1.649035 -1.64817,1.648865 -1.64817,1.648866 v 2.325467 2.325466 h -2.325411 -2.32541 l -1.649293,1.648429 c -0.907111,0.906635 -1.655438,1.648398 -1.662948,1.648361 -0.0075,-3.7e-5 -0.75567,-0.74183 -1.662577,-1.648428 z m 2.38644,-3.619804 c 1.040133,-0.121023 2.04621,-0.523809 2.90261,-1.16207 0.349706,-0.260629 0.916153,-0.82765 1.178748,-1.179941 0.555208,-0.744853 0.935003,-1.602931 1.124644,-2.540928 0.05694,-0.281617 0.06299,-0.389843 0.06201,-1.108366 -0.001,-0.756918 -0.0048,-0.813839 -0.07664,-1.151645 C 17.569832,9.2111594 16.66727,7.8665735 15.324796,6.975762 14.78957,6.6206078 14.028865,6.2858922 13.435655,6.1445269 12.470191,5.9144513 11.210001,5.9421745 10.307055,6.2133538 8.1380599,6.8647613 6.5634132,8.5881795 6.0849267,10.834385 6.0125283,11.174253 6.0092258,11.225101 6.0092258,12 c 0,0.777517 0.0031,0.824804 0.076732,1.170708 0.4042338,1.898961 1.5880496,3.42677 3.2913843,4.247795 1.0506869,0.506442 2.1781719,0.694737 3.3462059,0.558832 z"
     id="path3" />
</svg>
