<?xml version="1.0" encoding="UTF-8" standalone="no"?>
<svg
   viewBox="0 0 24 24"
   version="1.1"
   id="svg1"
   sodipodi:docname="microphone.svg"
   inkscape:version="1.3.2 (091e20ef0f, 2023-11-25, custom)"
   xmlns:inkscape="http://www.inkscape.org/namespaces/inkscape"
   xmlns:sodipodi="http://sodipodi.sourceforge.net/DTD/sodipodi-0.dtd"
   xmlns="http://www.w3.org/2000/svg"
   xmlns:svg="http://www.w3.org/2000/svg">
  <defs
     id="defs1" />
  <sodipodi:namedview
     id="namedview1"
     pagecolor="#ffffff"
     bordercolor="#000000"
     borderopacity="0.25"
     inkscape:showpageshadow="2"
     inkscape:pageopacity="0.0"
     inkscape:pagecheckerboard="0"
     inkscape:deskcolor="#d1d1d1"
     showgrid="false"
     inkscape:zoom="35.791667"
     inkscape:cx="12"
     inkscape:cy="12"
     inkscape:window-width="1914"
     inkscape:window-height="1055"
     inkscape:window-x="3"
     inkscape:window-y="22"
     inkscape:window-maximized="1"
     inkscape:current-layer="svg1" />
  <path
     d="M12,2A3,3 0 0,1 15,5V11A3,3 0 0,1 12,14A3,3 0 0,1 9,11V5A3,3 0 0,1 12,2M19,11C19,14.53 16.39,17.44 13,17.93V21H11V17.93C7.61,17.44 5,14.53 5,11H7A5,5 0 0,0 12,16A5,5 0 0,0 17,11H19Z"
     id="path1" />
  <path
     style="fill:#eceff4;fill-opacity:0.960784;stroke:#ffffff;stroke-width:0.00295674"
     d="M 11.022119,19.452262 V 17.921985 L 10.69383,17.859116 C 7.8614394,17.316696 5.6278872,15.059291 5.128326,12.234177 5.067653,11.89106 5.0151948,11.39074 5.0151572,11.154831 l -2.33e-5,-0.146682 h 0.98774 0.9877399 l 0.01605,0.328289 c 0.039502,0.807987 0.3379437,1.712968 0.7946896,2.409779 1.2868588,1.963228 3.7534026,2.763847 5.9778886,1.940371 1.811223,-0.67049 3.120857,-2.443029 3.214094,-4.35015 l 0.01605,-0.328289 h 0.98774 0.98774 l -2.3e-5,0.146682 c -1.3e-5,0.08068 -0.01283,0.284983 -0.02848,0.454016 -0.289044,3.121622 -2.587019,5.663653 -5.650192,6.250269 l -0.328289,0.06287 v 1.530277 1.530276 H 12 11.022119 Z"
     id="path2" />
  <path
     style="fill:#eceff4;fill-opacity:0.960784;stroke:#ffffff;stroke-width:0.00295674"
     d="M 11.679044,13.966751 C 11.235242,13.92004 10.70036,13.722653 10.322799,13.466256 10.095198,13.311695 9.7949517,13.025478 9.6227127,12.798881 9.4306166,12.546161 9.1938715,12.056452 9.1014303,11.720605 L 9.0245274,11.441211 9.0244872,8.032596 C 9.0244425,4.2419434 9.0134515,4.4776139 9.2153492,3.940102 9.371253,3.5250394 9.5430439,3.2672005 9.9045402,2.9057043 10.356095,2.4541496 10.785563,2.2146783 11.391323,2.0766755 c 0.274647,-0.06257 0.939351,-0.063381 1.210335,-0.00148 1.187956,0.2713782 2.060811,1.1488114 2.327033,2.3392363 0.04246,0.1898466 0.04686,0.5299901 0.04682,3.6181606 l -4e-5,3.4086146 -0.0769,0.279394 c -0.09244,0.335847 -0.329186,0.825556 -0.521283,1.078276 -0.500833,0.658893 -1.26395,1.083933 -2.100159,1.169744 -0.155677,0.01598 -0.303719,0.02737 -0.328982,0.02533 -0.02526,-0.002 -0.14636,-0.01429 -0.269102,-0.0272 z"
     id="path3" />
</svg>
