<?xml version="1.0" encoding="UTF-8" standalone="no"?>
<svg
   viewBox="0 0 24 24"
   version="1.1"
   id="svg1"
   sodipodi:docname="microphone-off.svg"
   inkscape:version="1.3.2 (091e20ef0f, 2023-11-25, custom)"
   xmlns:inkscape="http://www.inkscape.org/namespaces/inkscape"
   xmlns:sodipodi="http://sodipodi.sourceforge.net/DTD/sodipodi-0.dtd"
   xmlns="http://www.w3.org/2000/svg"
   xmlns:svg="http://www.w3.org/2000/svg">
  <defs
     id="defs1" />
  <sodipodi:namedview
     id="namedview1"
     pagecolor="#ffffff"
     bordercolor="#000000"
     borderopacity="0.25"
     inkscape:showpageshadow="2"
     inkscape:pageopacity="0.0"
     inkscape:pagecheckerboard="0"
     inkscape:deskcolor="#d1d1d1"
     showgrid="false"
     inkscape:zoom="35.791667"
     inkscape:cx="12"
     inkscape:cy="12"
     inkscape:window-width="1914"
     inkscape:window-height="1055"
     inkscape:window-x="3"
     inkscape:window-y="22"
     inkscape:window-maximized="1"
     inkscape:current-layer="svg1" />
  <path
     d="M19,11C19,12.19 18.66,13.3 18.1,14.28L16.87,13.05C17.14,12.43 17.3,11.74 17.3,11H19M15,11.16L9,5.18V5A3,3 0 0,1 12,2A3,3 0 0,1 15,5V11L15,11.16M4.27,3L21,19.73L19.73,21L15.54,16.81C14.77,17.27 13.91,17.58 13,17.72V21H11V17.72C7.72,17.23 5,14.41 5,11H6.7C6.7,14 9.24,16.1 12,16.1C12.81,16.1 13.6,15.91 14.31,15.58L12.65,13.92L12,14A3,3 0 0,1 9,11V10.28L3,4.27L4.27,3Z"
     id="path1" />
  <path
     style="fill:#eceff4;fill-opacity:0.960784;stroke:#ffffff;stroke-width:0.00295674"
     d="m 11.022119,19.348611 v -1.633926 l -0.06286,-0.01348 c -0.03458,-0.0074 -0.169732,-0.03414 -0.300349,-0.05938 C 8.8742408,17.296957 7.1548423,16.142239 6.1271408,14.59837 5.4747924,13.618377 5.0899344,12.480063 5.0255044,11.340003 l -0.018755,-0.331854 h 0.838118 0.8381177 l 0.018126,0.314319 c 0.1383048,2.39827 1.9746191,4.334084 4.4886439,4.731858 0.194992,0.03085 0.466685,0.04655 0.810244,0.04682 0.566559,4.38e-4 0.853745,-0.03576 1.388057,-0.174936 0.306782,-0.07991 0.889691,-0.291881 0.914919,-0.3327 0.0071,-0.01142 -0.362382,-0.395828 -0.82098,-0.854235 l -0.833815,-0.833467 -0.345045,0.04345 C 11.443416,14.057529 10.60528,13.777908 9.9572955,13.166632 9.6873145,12.911946 9.5085069,12.666807 9.3305116,12.307334 9.0908337,11.823289 9.0354571,11.56509 9.0189159,10.854482 L 9.0052582,10.267753 6.0114231,7.2712596 3.0175877,4.2747661 3.64621,3.6461438 4.2748323,3.0175214 12.62856,11.371284 l 8.353727,8.353763 -0.628361,0.628827 -0.628362,0.628828 -2.095611,-2.093165 -2.095611,-2.093165 -0.33452,0.177864 c -0.554208,0.294671 -1.216926,0.534642 -1.802849,0.652813 -0.16135,0.03254 -0.321653,0.06557 -0.356228,0.0734 l -0.06286,0.01423 v 1.633926 1.633927 H 12 11.022119 Z"
     id="path2" />
  <path
     style="fill:#eceff4;fill-opacity:0.960784;stroke:#ffffff;stroke-width:0.00295674"
     d="m 17.499403,13.642547 -0.60537,-0.608787 0.08277,-0.209546 c 0.176359,-0.446456 0.33169,-1.219089 0.33169,-1.649859 v -0.166206 h 0.838184 0.838184 v 0.160823 c 0,0.231213 -0.0733,0.824615 -0.141294,1.143808 -0.09296,0.436421 -0.318944,1.078114 -0.537171,1.525343 l -0.201628,0.41321 z"
     id="path3" />
  <path
     style="fill:#eceff4;fill-opacity:0.960784;stroke:#ffffff;stroke-width:0.00295674"
     d="M 11.988639,8.1330513 9.0017243,5.1459805 9.0187258,4.8710112 C 9.050553,4.3562604 9.1929775,3.8857778 9.446553,3.4577341 9.6348776,3.139836 10.138672,2.6360418 10.45657,2.4477171 c 0.260769,-0.1544813 0.633367,-0.3023806 0.934753,-0.3710416 0.274647,-0.06257 0.939351,-0.063381 1.210335,-0.00148 1.176629,0.2687908 2.027771,1.1147004 2.324897,2.3106058 0.03993,0.1607217 0.04644,0.5195886 0.05501,3.0321229 0.0053,1.567404 0.0062,3.0416078 0.0019,3.2760098 l -0.0079,0.426184 z"
     id="path4" />
</svg>
