<?xml version="1.0" encoding="UTF-8" standalone="no"?>
<svg
   viewBox="0 0 24 24"
   version="1.1"
   id="svg1"
   sodipodi:docname="timer-outline.svg"
   inkscape:version="1.3.2 (091e20ef0f, 2023-11-25, custom)"
   xmlns:inkscape="http://www.inkscape.org/namespaces/inkscape"
   xmlns:sodipodi="http://sodipodi.sourceforge.net/DTD/sodipodi-0.dtd"
   xmlns="http://www.w3.org/2000/svg"
   xmlns:svg="http://www.w3.org/2000/svg">
  <defs
     id="defs1" />
  <sodipodi:namedview
     id="namedview1"
     pagecolor="#ffffff"
     bordercolor="#000000"
     borderopacity="0.25"
     inkscape:showpageshadow="2"
     inkscape:pageopacity="0.0"
     inkscape:pagecheckerboard="0"
     inkscape:deskcolor="#d1d1d1"
     showgrid="false"
     inkscape:zoom="35.791667"
     inkscape:cx="12"
     inkscape:cy="12"
     inkscape:window-width="1914"
     inkscape:window-height="1055"
     inkscape:window-x="3"
     inkscape:window-y="22"
     inkscape:window-maximized="1"
     inkscape:current-layer="svg1" />
  <path
     d="M12,20A7,7 0 0,1 5,13A7,7 0 0,1 12,6A7,7 0 0,1 19,13A7,7 0 0,1 12,20M19.03,7.39L20.45,5.97C20,5.46 19.55,5 19.04,4.56L17.62,6C16.07,4.74 14.12,4 12,4A9,9 0 0,0 3,13A9,9 0 0,0 12,22C17,22 21,17.97 21,13C21,10.88 20.26,8.93 19.03,7.39M11,14H13V8H11M15,1H9V3H15V1Z"
     id="path1" />
  <path
     style="fill:#dbdee3;fill-opacity:0.960784;stroke:#ffffff;stroke-width:0.00295674"
     d="M 11.441211,21.970188 C 10.677709,21.898138 10.312703,21.840169 9.7927823,21.708393 7.786966,21.200008 6.013124,20.002625 4.7568029,18.308993 4.0786621,17.3948 3.5716261,16.314382 3.2850264,15.172859 2.6742449,12.740123 3.1164881,10.158647 4.5053061,8.0498051 4.812247,7.5837323 5.2283692,7.0775735 5.6570438,6.6488647 7.1214334,5.1843584 9.0166712,4.2804033 11.077998,4.0632794 c 0.581036,-0.061202 1.640351,-0.042071 2.166188,0.039121 1.521292,0.2348943 2.846002,0.7803206 4.039001,1.6629879 l 0.337848,0.2499641 0.721411,-0.7210108 0.721411,-0.7210108 0.672961,0.6739889 c 0.370128,0.3706939 0.672961,0.6900322 0.672961,0.7096408 0,0.019609 -0.314391,0.3502244 -0.698647,0.7347019 l -0.698647,0.6990497 0.225513,0.3069726 c 1.673414,2.2778805 2.176195,5.1854533 1.364789,7.8925363 -0.55329,1.845935 -1.678551,3.453254 -3.231379,4.615691 -1.549026,1.159592 -3.496926,1.797619 -5.427287,1.777687 -0.222817,-0.0023 -0.449127,-0.0083 -0.50291,-0.01341 z m 1.369205,-2.006499 c 2.072222,-0.243195 3.887456,-1.359549 5.043741,-3.101857 0.591261,-0.890923 0.946773,-1.849453 1.108926,-2.989888 0.0541,-0.380471 0.04513,-1.460168 -0.01543,-1.857974 C 18.640808,9.9984799 17.539992,8.2608844 15.863599,7.145917 13.542449,5.6021217 10.429447,5.6064844 8.1196901,7.1567695 6.6241844,8.1605376 5.5861984,9.6540014 5.1710488,11.399302 5.0392348,11.953451 5.00352,12.287549 5.0022999,12.977881 c -0.00146,0.824071 0.071407,1.352147 0.2833459,2.053551 0.8044735,2.66237 3.1081106,4.595695 5.8761702,4.931568 0.408726,0.04959 1.228968,0.04994 1.6486,6.89e-4 z"
     id="path2" />
  <path
     style="fill:#dbdee3;fill-opacity:0.960784;stroke:#ffffff;stroke-width:0.00295674"
     d="M 9.0104773,1.9976717 V 1.0058207 H 12 14.989523 v 0.991851 0.991851 H 12 9.0104773 Z"
     id="path3" />
  <path
     style="fill:#dbdee3;fill-opacity:0.960784;stroke:#ffffff;stroke-width:0.00295674"
     d="M 11.022119,11.008149 V 8.0186263 H 12 12.977881 v 2.9895227 2.989523 H 12 11.022119 Z"
     id="path4" />
</svg>
