<?xml version="1.0" encoding="UTF-8" standalone="no"?>
<svg
   viewBox="0 0 24 24"
   version="1.1"
   id="svg1"
   sodipodi:docname="volume-mute.svg"
   inkscape:export-filename="volume-mute1.svg"
   inkscape:export-xdpi="96"
   inkscape:export-ydpi="96"
   inkscape:version="1.3.2 (091e20ef0f, 2023-11-25, custom)"
   xmlns:inkscape="http://www.inkscape.org/namespaces/inkscape"
   xmlns:sodipodi="http://sodipodi.sourceforge.net/DTD/sodipodi-0.dtd"
   xmlns="http://www.w3.org/2000/svg"
   xmlns:svg="http://www.w3.org/2000/svg">
  <defs
     id="defs1" />
  <sodipodi:namedview
     id="namedview1"
     pagecolor="#ffffff"
     bordercolor="#000000"
     borderopacity="0.25"
     inkscape:showpageshadow="2"
     inkscape:pageopacity="0.0"
     inkscape:pagecheckerboard="0"
     inkscape:deskcolor="#d1d1d1"
     inkscape:zoom="9.8333333"
     inkscape:cx="11.949153"
     inkscape:cy="12.661017"
     inkscape:window-width="1914"
     inkscape:window-height="1055"
     inkscape:window-x="3"
     inkscape:window-y="22"
     inkscape:window-maximized="1"
     inkscape:current-layer="svg1"
     showgrid="false" />
  <path
     d="M3,9H7L12,4V20L7,15H3V9M16.59,12L14,9.41L15.41,8L18,10.59L20.59,8L22,9.41L19.41,12L22,14.59L20.59,16L18,13.41L15.41,16L14,14.59L16.59,12Z"
     id="path1" />
  <path
     style="fill:#d7eef4;stroke:#ffffff;stroke-width:0.10687"
     d="M 9.4576271,17.389831 7.0185383,14.949153 H 5.0092691 3 V 12 9.0508475 H 5.0077117 7.0154232 L 9.4822879,6.5855241 11.949153,4.1202008 v 7.8551542 c 0,4.320334 -0.0118,7.855153 -0.02622,7.855153 -0.01442,0 -1.123808,-1.098305 -2.4653059,-2.440677 z"
     id="path2" />
  <path
     style="fill:#d7eef4;stroke:#ffffff;stroke-width:0.10687"
     d="M 14.71952,15.230029 14.085142,14.595651 15.380087,13.297825 16.675031,12 15.379124,10.70121 14.083217,9.4024194 14.745738,8.7457876 15.408258,8.0891558 16.705085,9.3831037 18.001911,10.677052 19.296341,9.3826222 20.59077,8.088193 21.253777,8.7453062 21.916783,9.4024194 20.620876,10.70121 19.324969,12 l 1.295907,1.29879 1.295907,1.298791 -0.662521,0.656631 -0.66252,0.656632 -1.297341,-1.294461 -1.297341,-1.294461 -1.268191,1.271242 c -0.697504,0.699184 -1.292216,1.271243 -1.32158,1.271243 -0.02937,0 -0.338861,-0.28547 -0.687769,-0.634378 z"
     id="path3" />
  <path
     style="fill:#eceff4;fill-opacity:0.960784;stroke:#ffffff;stroke-width:0.010762"
     d="M 9.4067797,17.237288 7.0185721,14.847458 H 5.0601336 3.1016949 V 12 9.1525424 H 5.0585435 7.0153921 L 9.4314248,6.7380827 11.847458,4.3236231 v 7.6517479 c 0,4.208462 -0.01181,7.651748 -0.02624,7.651748 -0.01443,0 -1.100928,-1.075424 -2.4144423,-2.389831 z"
     id="path4" />
  <path
     style="fill:#eceff4;fill-opacity:0.960784;stroke:#ffffff;stroke-width:0.010762"
     d="m 19.2729,14.493243 -1.26642,-1.269468 -1.232648,1.218621 c -0.677956,0.670242 -1.295771,1.218621 -1.372923,1.218621 -0.07715,0 -0.382435,-0.239151 -0.678407,-0.531447 L 14.18437,14.598124 15.480548,13.299062 16.776726,12 15.480695,10.701086 14.184664,9.4021711 l 0.612407,-0.6060172 0.612408,-0.6060172 1.294305,1.294305 1.294305,1.2943053 1.296702,-1.2938244 1.296702,-1.2938241 0.611922,0.6055363 0.611921,0.6055363 L 20.519305,10.701086 19.223274,12 l 1.296031,1.298915 1.296031,1.298914 -0.588583,0.582441 c -0.323721,0.320343 -0.610824,0.582442 -0.638007,0.582442 -0.02718,0 -0.619314,-0.571261 -1.315846,-1.269469 z"
     id="path5" />
</svg>
