<?xml version="1.0" encoding="UTF-8" standalone="no"?>
<svg
   viewBox="0 0 24 24"
   version="1.1"
   id="svg1"
   sodipodi:docname="volume-medium.svg"
   inkscape:export-filename="volume-medium1.png"
   inkscape:export-xdpi="96"
   inkscape:export-ydpi="96"
   inkscape:version="1.3.2 (091e20ef0f, 2023-11-25, custom)"
   xmlns:inkscape="http://www.inkscape.org/namespaces/inkscape"
   xmlns:sodipodi="http://sodipodi.sourceforge.net/DTD/sodipodi-0.dtd"
   xmlns="http://www.w3.org/2000/svg"
   xmlns:svg="http://www.w3.org/2000/svg">
  <defs
     id="defs1" />
  <sodipodi:namedview
     id="namedview1"
     pagecolor="#ffffff"
     bordercolor="#000000"
     borderopacity="0.25"
     inkscape:showpageshadow="2"
     inkscape:pageopacity="0.0"
     inkscape:pagecheckerboard="0"
     inkscape:deskcolor="#d1d1d1"
     inkscape:zoom="9.8333333"
     inkscape:cx="11.949153"
     inkscape:cy="11.949153"
     inkscape:window-width="1914"
     inkscape:window-height="1055"
     inkscape:window-x="3"
     inkscape:window-y="22"
     inkscape:window-maximized="1"
     inkscape:current-layer="svg1"
     showgrid="false" />
  <path
     d="M5,9V15H9L14,20V4L9,9M18.5,12C18.5,10.23 17.5,8.71 16,7.97V16C17.5,15.29 18.5,13.76 18.5,12Z"
     id="path1" />
  <path
     style="fill:#d7eef4;stroke:#ffffff;stroke-width:0.10687"
     d="M 11.491525,17.389831 9.0524366,14.949153 H 7.0431674 5.0338983 V 12 9.0508475 H 7.04161 9.0493215 L 11.516186,6.5855241 13.983051,4.1202008 v 7.8551542 c 0,4.320334 -0.0118,7.855153 -0.02622,7.855153 -0.01442,0 -1.123809,-1.098305 -2.465308,-2.440677 z"
     id="path2" />
  <path
     style="fill:#d7eef4;stroke:#ffffff;stroke-width:0.10687"
     d="M 16.016949,11.943403 V 8.0223994 l 0.312913,0.1837156 c 0.524223,0.3077787 1.409194,1.3139797 1.684431,1.915176 0.898749,1.963127 0.3169,4.185908 -1.427856,5.454698 -0.218138,0.15863 -0.435511,0.288418 -0.483051,0.288418 -0.04754,0 -0.08644,-1.764452 -0.08644,-3.921004 z"
     id="path3" />
  <path
     style="fill:#eceff4;fill-opacity:0.960784;stroke:#ffffff;stroke-width:0.010762"
     d="M 11.440678,17.237288 9.0524704,14.847458 H 7.0940319 5.1355932 V 12 9.1525424 H 7.0924418 9.0492904 L 11.465323,6.7380827 13.881356,4.3236231 v 7.6517479 c 0,4.208462 -0.01181,7.651748 -0.02623,7.651748 -0.01443,0 -1.100929,-1.075424 -2.414443,-2.389831 z"
     id="path4" />
  <path
     style="fill:#eceff4;fill-opacity:0.960784;stroke:#ffffff;stroke-width:0.010762"
     d="m 16.118644,11.949153 c 0,-2.2300578 0.03789,-3.7118648 0.09492,-3.7118648 0.149369,0 1.050904,0.9189376 1.396766,1.4237288 0.487394,0.71136 0.678011,1.360671 0.686649,2.338983 0.0087,0.984814 -0.163933,1.555245 -0.732697,2.421119 -0.321944,0.49012 -1.143481,1.239898 -1.358564,1.239898 -0.04789,0 -0.08707,-1.670339 -0.08707,-3.711864 z"
     id="path5" />
</svg>
