<?xml version="1.0" encoding="UTF-8" standalone="no"?>
<svg
   viewBox="0 0 24 24"
   version="1.1"
   id="svg1"
   sodipodi:docname="wifi_off.svg"
   inkscape:version="1.3.2 (091e20ef0f, 2023-11-25, custom)"
   xmlns:inkscape="http://www.inkscape.org/namespaces/inkscape"
   xmlns:sodipodi="http://sodipodi.sourceforge.net/DTD/sodipodi-0.dtd"
   xmlns="http://www.w3.org/2000/svg"
   xmlns:svg="http://www.w3.org/2000/svg">
  <defs
     id="defs1" />
  <sodipodi:namedview
     id="namedview1"
     pagecolor="#ffffff"
     bordercolor="#000000"
     borderopacity="0.25"
     inkscape:showpageshadow="2"
     inkscape:pageopacity="0.0"
     inkscape:pagecheckerboard="0"
     inkscape:deskcolor="#d1d1d1"
     showgrid="false"
     inkscape:zoom="35.791667"
     inkscape:cx="12"
     inkscape:cy="12"
     inkscape:window-width="1914"
     inkscape:window-height="1055"
     inkscape:window-x="3"
     inkscape:window-y="22"
     inkscape:window-maximized="1"
     inkscape:current-layer="svg1" />
  <path
     d="M3.27,1.44L2,2.72L4.05,4.77C2.75,5.37 1.5,6.11 0.38,7C4.41,12.06 12,21.5 12,21.5L15.91,16.63L19.23,19.95L20.5,18.68M12,3C10.6,3 9.21,3.17 7.86,3.5L18.18,13.81C20,11.5 22.05,9 23.65,7C20.32,4.41 16.22,3 12,3Z"
     id="path1" />
  <path
     style="fill:#f9fcfc;fill-opacity:0.961992;stroke:#ffffff;stroke-width:0.0293613"
     d="M 10.197905,19.229914 C 4.7249957,12.41484 0.40503608,7.0019642 0.42465894,6.984114 0.52659577,6.8913854 1.2806407,6.3533853 1.6065192,6.1408741 2.2710649,5.7075115 2.7618736,5.4281761 3.5595453,5.0293417 L 4.073689,4.7722706 3.0502294,3.748811 2.0267697,2.7253513 2.6478435,2.0944291 3.2689173,1.4635069 11.864896,10.07052 l 8.59598,8.607012 -0.619102,0.621726 -0.619102,0.621726 -1.655119,-1.654943 c -1.445495,-1.445342 -1.660131,-1.649704 -1.694695,-1.613577 -0.02177,0.02275 -0.896724,1.110051 -1.94435,2.416221 -1.047626,1.306169 -1.913258,2.377783 -1.923626,2.381362 -0.01037,0.0036 -0.823508,-0.99548 -1.806977,-2.220133 z"
     id="path2" />
  <path
     style="fill:#f9fcfc;fill-opacity:0.961992;stroke:#ffffff;stroke-width:0.0293613"
     d="M 13.023914,8.6374181 C 7.8920085,3.5054558 7.8873062,3.5006503 7.9808621,3.4836953 8.0323658,3.4743614 8.2549843,3.4283264 8.4755699,3.3813952 9.7361581,3.1131962 10.997417,2.99843 12.377183,3.0263744 c 0.853647,0.017289 1.198298,0.040857 1.927823,0.1318278 3.296586,0.4110808 6.400679,1.6593601 9.052386,3.6403242 0.122934,0.091838 0.23358,0.1757406 0.24588,0.1864506 0.0123,0.01071 -0.545067,0.7222841 -1.238596,1.5812757 -0.693529,0.8589918 -1.915806,2.3790323 -2.716171,3.3778683 -0.800365,0.998836 -1.462564,1.819212 -1.471553,1.823057 -0.009,0.0038 -2.327856,-2.304546 -5.153038,-5.1297599 z"
     id="path3" />
  <path
     style="fill:#eceff4;fill-opacity:0.960784;stroke:#ffffff;stroke-width:0.00295674"
     d="m 11.915769,21.323092 c -0.05356,-0.05632 -0.09431,-0.111749 -0.09057,-0.123165 0.0037,-0.01142 -0.02454,-0.0413 -0.06286,-0.06641 -0.03832,-0.02511 -0.06967,-0.06262 -0.06967,-0.08336 0,-0.02074 -0.02515,-0.05117 -0.05588,-0.06762 -0.03073,-0.01645 -0.05588,-0.04803 -0.05588,-0.07019 0,-0.02216 -0.03143,-0.06088 -0.06985,-0.08605 -0.03842,-0.02517 -0.06985,-0.06274 -0.06985,-0.08348 0,-0.02074 -0.02515,-0.05117 -0.05588,-0.06762 -0.03073,-0.01645 -0.05588,-0.04788 -0.05588,-0.06985 0,-0.02197 -0.02515,-0.0534 -0.05588,-0.06985 -0.03073,-0.01645 -0.05588,-0.04803 -0.05588,-0.07019 0,-0.02216 -0.03132,-0.06081 -0.06961,-0.08589 -0.03829,-0.02509 -0.06303,-0.05626 -0.05499,-0.06927 0.008,-0.01301 -0.01721,-0.04451 -0.05612,-0.07001 -0.03891,-0.02549 -0.07074,-0.06332 -0.07074,-0.08406 0,-0.02074 -0.02515,-0.05117 -0.05588,-0.06762 -0.03073,-0.01645 -0.05588,-0.04788 -0.05588,-0.06985 0,-0.02197 -0.02515,-0.0534 -0.05588,-0.06985 -0.03073,-0.01645 -0.05588,-0.04788 -0.05588,-0.06985 0,-0.02197 -0.02515,-0.0534 -0.05588,-0.06985 -0.03073,-0.01645 -0.05588,-0.04803 -0.05588,-0.07019 0,-0.02216 -0.03132,-0.06081 -0.06961,-0.08589 -0.03828,-0.02509 -0.06303,-0.05626 -0.05499,-0.06927 0.008,-0.01301 -0.01721,-0.04451 -0.05612,-0.07001 -0.03891,-0.02549 -0.07074,-0.06332 -0.07074,-0.08406 0,-0.02074 -0.02515,-0.05117 -0.05588,-0.06762 -0.03073,-0.01645 -0.05588,-0.04788 -0.05588,-0.06985 0,-0.02197 -0.02515,-0.0534 -0.05588,-0.06985 -0.03073,-0.01645 -0.05588,-0.04821 -0.05588,-0.0706 0,-0.02238 -0.02515,-0.05639 -0.05588,-0.07559 -0.03073,-0.01919 -0.05588,-0.05063 -0.05588,-0.06985 0,-0.01922 -0.02515,-0.05065 -0.055879,-0.06985 -0.030733,-0.01919 -0.055879,-0.05002 -0.055879,-0.0685 0,-0.01848 -0.02283,-0.05003 -0.050734,-0.07011 -0.027904,-0.02008 -0.059247,-0.05931 -0.069651,-0.08717 -0.010405,-0.02787 -0.030354,-0.0436 -0.044333,-0.03496 -0.013978,0.0086 -0.038887,-0.02294 -0.055353,-0.07017 -0.016466,-0.04723 -0.041611,-0.07867 -0.055879,-0.06985 -0.014267,0.0088 -0.039413,-0.02261 -0.055879,-0.06985 -0.016466,-0.04723 -0.041611,-0.07867 -0.055879,-0.06985 -0.014267,0.0088 -0.039142,-0.02184 -0.055277,-0.06812 -0.016135,-0.04628 -0.048792,-0.09162 -0.07257,-0.100744 -0.023779,-0.0091 -0.043234,-0.03382 -0.043234,-0.05487 0,-0.02105 -0.031324,-0.0588 -0.069609,-0.08388 -0.038285,-0.02509 -0.06303,-0.05626 -0.054989,-0.06927 0.00804,-0.01301 -0.017104,-0.04444 -0.055879,-0.06985 -0.038774,-0.02541 -0.06392,-0.05684 -0.055879,-0.06985 0.00804,-0.01301 -0.017104,-0.04444 -0.055879,-0.06985 -0.038774,-0.02541 -0.06392,-0.05684 -0.055879,-0.06985 0.00804,-0.01301 -0.017104,-0.04444 -0.055879,-0.06985 -0.038774,-0.02541 -0.06392,-0.05684 -0.055879,-0.06985 0.00804,-0.01301 -0.017212,-0.04451 -0.056119,-0.07001 -0.038906,-0.02549 -0.070739,-0.06332 -0.070739,-0.08406 0,-0.02074 -0.025146,-0.05117 -0.055879,-0.06762 -0.030733,-0.01645 -0.055879,-0.04788 -0.055879,-0.06985 0,-0.02197 -0.025145,-0.0534 -0.055879,-0.06985 -0.030733,-0.01645 -0.055879,-0.04788 -0.055879,-0.06985 0,-0.02197 -0.025146,-0.0534 -0.055879,-0.06985 -0.030734,-0.01645 -0.055879,-0.04788 -0.055879,-0.06985 0,-0.02197 -0.025145,-0.0534 -0.055879,-0.06985 -0.030733,-0.01645 -0.055879,-0.04788 -0.055879,-0.06985 0,-0.02197 -0.025146,-0.0534 -0.055879,-0.06985 -0.030733,-0.01645 -0.055879,-0.04788 -0.055879,-0.06985 0,-0.02197 -0.025145,-0.0534 -0.055879,-0.06985 -0.030733,-0.01645 -0.055879,-0.04788 -0.055879,-0.06985 0,-0.02197 -0.025146,-0.0534 -0.055879,-0.06985 -0.030733,-0.01645 -0.055879,-0.04788 -0.055879,-0.06985 0,-0.02197 -0.025145,-0.0534 -0.055879,-0.06985 -0.030733,-0.01645 -0.055879,-0.04822 -0.055879,-0.0706 0,-0.02238 -0.025145,-0.05639 -0.055879,-0.07559 -0.030733,-0.01919 -0.055879,-0.05063 -0.055879,-0.06985 0,-0.01922 -0.025145,-0.05066 -0.055879,-0.06985 -0.030733,-0.01919 -0.055879,-0.05113 -0.055879,-0.07096 0,-0.01984 -0.019822,-0.04367 -0.044049,-0.05297 -0.024228,-0.0093 -0.055636,-0.04738 -0.069796,-0.08462 -0.014161,-0.03725 -0.037119,-0.06069 -0.051017,-0.0521 -0.013899,0.0086 -0.038742,-0.02303 -0.055208,-0.07026 -0.016466,-0.04724 -0.041611,-0.07867 -0.055879,-0.06985 -0.014267,0.0088 -0.039142,-0.02184 -0.055277,-0.06812 -0.016135,-0.04628 -0.048792,-0.09162 -0.07257,-0.100744 -0.023779,-0.0091 -0.043234,-0.03381 -0.043234,-0.05487 0,-0.02105 -0.031324,-0.0588 -0.069609,-0.08389 -0.038285,-0.02509 -0.06303,-0.05626 -0.054989,-0.06927 0.00804,-0.01301 -0.017104,-0.04444 -0.055879,-0.06985 -0.038774,-0.02541 -0.06392,-0.05684 -0.055879,-0.06985 0.00804,-0.01301 -0.017104,-0.04444 -0.055879,-0.06985 -0.038774,-0.02541 -0.06392,-0.05684 -0.055879,-0.06985 0.00804,-0.01301 -0.017104,-0.04444 -0.055879,-0.06985 -0.038774,-0.02541 -0.06392,-0.05684 -0.055879,-0.06985 0.00804,-0.01301 -0.017212,-0.04451 -0.056119,-0.07001 -0.038906,-0.02549 -0.070739,-0.06332 -0.070739,-0.08406 0,-0.02074 -0.025146,-0.05117 -0.055879,-0.06762 -0.030733,-0.01645 -0.055879,-0.04788 -0.055879,-0.06985 0,-0.02197 -0.025146,-0.0534 -0.055879,-0.06985 -0.030733,-0.01645 -0.055879,-0.04788 -0.055879,-0.06985 0,-0.02197 -0.025145,-0.0534 -0.055879,-0.06985 -0.030733,-0.01645 -0.055879,-0.04788 -0.055879,-0.06985 0,-0.02197 -0.025146,-0.0534 -0.055879,-0.06985 -0.030733,-0.01645 -0.055879,-0.04788 -0.055879,-0.06985 0,-0.02197 -0.025145,-0.0534 -0.055879,-0.06985 -0.030733,-0.01645 -0.055879,-0.04788 -0.055879,-0.06985 0,-0.02197 -0.025145,-0.0534 -0.055879,-0.06985 -0.030733,-0.01645 -0.055879,-0.04788 -0.055879,-0.06985 0,-0.02197 -0.025145,-0.0534 -0.055879,-0.06985 -0.030733,-0.01645 -0.055879,-0.04788 -0.055879,-0.06985 0,-0.02197 -0.025146,-0.0534 -0.055879,-0.06985 -0.030733,-0.01645 -0.055879,-0.04788 -0.055879,-0.06985 0,-0.02197 -0.025146,-0.0534 -0.055879,-0.06985 -0.030733,-0.01645 -0.055879,-0.04788 -0.055879,-0.06985 0,-0.02197 -0.025145,-0.0534 -0.055879,-0.06985 -0.030733,-0.01645 -0.055879,-0.04788 -0.055879,-0.06985 0,-0.02197 -0.025146,-0.0534 -0.055879,-0.06985 -0.030733,-0.01645 -0.055879,-0.04788 -0.055879,-0.06985 0,-0.02197 -0.025145,-0.0534 -0.055879,-0.06985 -0.030733,-0.01645 -0.055879,-0.04788 -0.055879,-0.06985 0,-0.02197 -0.025145,-0.0534 -0.055879,-0.06985 -0.030733,-0.01645 -0.055879,-0.04788 -0.055879,-0.06985 0,-0.02197 -0.025145,-0.0534 -0.055879,-0.06985 -0.030733,-0.01645 -0.055879,-0.04788 -0.055879,-0.06985 0,-0.02197 -0.025146,-0.0534 -0.055879,-0.06985 -0.030733,-0.01645 -0.055879,-0.04788 -0.055879,-0.06985 0,-0.02197 -0.025146,-0.0534 -0.055879,-0.06985 -0.030733,-0.01645 -0.055879,-0.04788 -0.055879,-0.06985 0,-0.02197 -0.025145,-0.0534 -0.055879,-0.06985 -0.030733,-0.01645 -0.055879,-0.04788 -0.055879,-0.06985 0,-0.02197 -0.025145,-0.0534 -0.055879,-0.06985 -0.030733,-0.01645 -0.055879,-0.04788 -0.055879,-0.06985 0,-0.02197 -0.025145,-0.0534 -0.055879,-0.06985 -0.030733,-0.01645 -0.055879,-0.04788 -0.055879,-0.06985 0,-0.02197 -0.025145,-0.0534 -0.055879,-0.06985 -0.030733,-0.01645 -0.055879,-0.04788 -0.055879,-0.06985 0,-0.02197 -0.025146,-0.0534 -0.055879,-0.06985 -0.030733,-0.01645 -0.055879,-0.04788 -0.055879,-0.06985 0,-0.02197 -0.025146,-0.0534 -0.055879,-0.06985 -0.030733,-0.01645 -0.055879,-0.04788 -0.055879,-0.06985 0,-0.02197 -0.025498,-0.05359 -0.056662,-0.07027 -0.031164,-0.01668 -0.049622,-0.04171 -0.041019,-0.05563 0.0086,-0.01392 -0.016082,-0.0461 -0.054857,-0.0715 -0.038774,-0.02541 -0.06392,-0.05684 -0.055879,-0.06985 0.00804,-0.01301 -0.017104,-0.04444 -0.055879,-0.06985 -0.038774,-0.02541 -0.06392,-0.05684 -0.055879,-0.06985 0.00804,-0.01301 -0.017104,-0.04444 -0.055879,-0.06985 -0.038774,-0.02541 -0.06392,-0.05684 -0.055879,-0.06985 0.00804,-0.01301 -0.017104,-0.04444 -0.055879,-0.06985 -0.038774,-0.02541 -0.06392,-0.05684 -0.055879,-0.06985 0.00804,-0.01301 -0.017104,-0.04444 -0.055879,-0.06985 -0.038774,-0.02541 -0.06392,-0.05684 -0.055879,-0.06985 0.00804,-0.01301 -0.017104,-0.04444 -0.055879,-0.06985 -0.038774,-0.02541 -0.06392,-0.05684 -0.055879,-0.06985 0.00804,-0.01301 -0.017212,-0.04451 -0.056119,-0.07001 -0.038906,-0.02549 -0.070739,-0.06332 -0.070739,-0.08406 0,-0.02074 -0.025498,-0.05136 -0.056662,-0.06804 -0.031164,-0.01668 -0.049535,-0.04185 -0.040825,-0.05595 0.00871,-0.01409 -0.0098,-0.04163 -0.041127,-0.0612 -0.03133,-0.01957 -0.056963,-0.0507 -0.056963,-0.06918 0,-0.01848 -0.02283,-0.05003 -0.050734,-0.07011 C 3.008636,10.228129 2.977293,10.188899 2.966889,10.161039 2.956484,10.133169 2.936628,10.117389 2.922763,10.125959 2.899836,10.140129 2.858147,10.078039 2.852202,10.020866 2.850872,10.008106 2.827787,9.98157 2.800895,9.961907 2.774003,9.942243 2.752001,9.912267 2.752001,9.895294 2.752001,9.87832 2.726855,9.850975 2.696122,9.834527 2.665389,9.818079 2.640243,9.786647 2.640243,9.764678 2.640243,9.742709 2.615098,9.711277 2.584364,9.694829 2.553631,9.678381 2.528485,9.646949 2.528485,9.62498 2.528485,9.603011 2.503339,9.571579 2.472606,9.555131 2.441873,9.538683 2.416727,9.507251 2.416727,9.485282 2.416727,9.463313 2.391581,9.431881 2.360848,9.415433 2.330115,9.398985 2.304969,9.367553 2.304969,9.345584 2.304969,9.323615 2.279471,9.291995 2.248307,9.275317 2.217143,9.258639 2.198685,9.233603 2.207288,9.219683 2.215888,9.205762 2.191206,9.173586 2.152432,9.14818 2.113657,9.122774 2.088322,9.09165 2.09613,9.079016 2.10394,9.066381 2.08729,9.039468 2.059126,9.019208 2.030965,8.998948 1.999412,8.959573 1.989007,8.931707 1.978603,8.903841 1.957797,8.888639 1.942772,8.897925 1.927747,8.907215 1.907353,8.88253 1.897452,8.84308 1.887552,8.80363 1.85575,8.758668 1.826784,8.743166 1.797818,8.727664 1.774119,8.697006 1.774119,8.675037 1.774119,8.653068 1.748973,8.621636 1.71824,8.605188 1.687507,8.58874 1.662361,8.557308 1.662361,8.535339 1.662361,8.51337 1.637215,8.481938 1.606482,8.46549 1.575749,8.449042 1.550603,8.41761 1.550603,8.395641 1.550603,8.373672 1.525457,8.34224 1.494724,8.325792 1.463991,8.309344 1.438845,8.277912 1.438845,8.255943 1.438845,8.233974 1.413699,8.202542 1.382966,8.186094 1.352233,8.169646 1.327087,8.138214 1.327087,8.116245 1.327087,8.094276 1.301589,8.062656 1.270425,8.045978 1.239261,8.0293 1.22089,8.004123 1.2296,7.99003 1.23831,7.975937 1.2198,7.948398 1.188473,7.928832 1.157143,7.909266 1.13151,7.877866 1.13151,7.859053 1.13151,7.84024 1.106364,7.81139 1.075631,7.794942 1.044898,7.778494 1.019752,7.747062 1.019752,7.725093 1.019752,7.703124 0.9946065,7.671692 0.9638731,7.655244 0.9331397,7.638796 0.9079942,7.607364 0.9079942,7.585395 c 0,-0.021969 -0.0250204,-0.053334 -0.0556009,-0.0697 C 0.8218128,7.499329 0.7998105,7.470598 0.8034992,7.451848 0.8071882,7.433098 0.7947112,7.420827 0.7757729,7.424579 0.7568347,7.428329 0.7333861,7.39971 0.723665,7.360978 0.713944,7.322246 0.6822909,7.277873 0.6533251,7.262371 0.6243593,7.246869 0.60066,7.216394 0.60066,7.194648 c 0,-0.021746 -0.015716,-0.049592 -0.0349243,-0.061881 -0.075419,-0.048104 -0.0989077,-0.130809 -0.055833,-0.196555 0.022566,-0.034443 0.0523154,-0.055649 0.0661097,-0.047123 0.0137944,0.00853 0.0326234,-0.00416 0.0418423,-0.028179 0.009219,-0.024024 0.0346702,-0.04368 0.0565585,-0.04368 0.0218883,0 0.0470338,-0.018859 0.0558789,-0.041909 0.008845,-0.02305 0.0322509,-0.041909 0.0520128,-0.041909 0.0197619,0 0.0434735,-0.019656 0.0526924,-0.04368 0.009219,-0.024024 0.029512,-0.0358 0.0450957,-0.026169 0.0155838,0.00963 0.0358769,-0.00214 0.0450958,-0.026169 0.009219,-0.024024 0.0346702,-0.04368 0.0565585,-0.04368 0.0218883,0 0.0470061,-0.018787 0.0558174,-0.041749 0.00881,-0.022962 0.027365,-0.034738 0.04123,-0.026168 0.013865,0.00857 0.032752,-0.00408 0.041971,-0.0281 0.00922,-0.024024 0.034276,-0.04368 0.055682,-0.04368 0.021406,0 0.03892,-0.012573 0.03892,-0.027939 0,-0.015367 0.019254,-0.027939 0.042786,-0.027939 0.023532,0 0.049995,-0.018787 0.058806,-0.041749 0.00881,-0.022962 0.025694,-0.03577 0.037517,-0.028463 0.011823,0.00731 0.053735,-0.016591 0.093136,-0.053107 0.039402,-0.036516 0.078406,-0.059627 0.086676,-0.051356 0.00827,0.00827 0.022936,-0.00555 0.032592,-0.030711 0.00966,-0.025161 0.028899,-0.038737 0.042764,-0.030167 0.013865,0.00857 0.032724,-0.004 0.041909,-0.027939 0.00918,-0.023936 0.026051,-0.03774 0.037481,-0.030677 0.011429,0.00706 0.047304,-0.011868 0.079723,-0.04207 0.032418,-0.030202 0.07204,-0.054913 0.08805,-0.054913 0.016009,0 0.029108,-0.013315 0.029108,-0.029588 0,-0.016274 0.012662,-0.021763 0.028137,-0.012199 0.015475,0.00956 0.035652,-0.00219 0.044837,-0.02613 0.00918,-0.023936 0.026051,-0.03774 0.037481,-0.030677 0.011429,0.00706 0.044687,-0.00943 0.073906,-0.036651 0.029219,-0.027221 0.062147,-0.048789 0.073174,-0.047928 0.011027,8.611e-4 0.044539,-0.019404 0.074472,-0.045033 0.029933,-0.025629 0.061476,-0.039546 0.070097,-0.030925 0.00862,0.00862 0.023573,-0.00491 0.033228,-0.030074 0.00966,-0.025161 0.02881,-0.038791 0.042567,-0.030289 0.013756,0.0085 0.025012,0.0014 0.025012,-0.015779 0,-0.017181 0.010669,-0.024644 0.023708,-0.016585 0.01304,0.00806 0.049419,-0.0093 0.080844,-0.038578 0.031425,-0.029277 0.064761,-0.045606 0.07408,-0.036287 0.00932,0.00932 0.016944,0.00153 0.016944,-0.017301 0,-0.018835 0.012573,-0.026475 0.02794,-0.016977 0.015367,0.0095 0.02794,0.00532 0.02794,-0.00929 0,-0.014608 0.031432,-0.034448 0.069849,-0.04409 0.038417,-0.00964 0.069849,-0.030606 0.069849,-0.046587 0,-0.015981 0.012573,-0.021286 0.02794,-0.011788 0.015367,0.0095 0.027939,0.00321 0.027939,-0.01397 0,-0.017181 0.012573,-0.023467 0.02794,-0.01397 0.015367,0.0095 0.027939,0.00321 0.027939,-0.01397 0,-0.017181 0.012573,-0.023467 0.02794,-0.01397 0.015367,0.0095 0.02794,0.00395 0.02794,-0.012321 0,-0.016274 0.00943,-0.027091 0.020955,-0.024039 0.030061,0.00796 0.382337,-0.1753567 0.3935388,-0.2047898 0.00515,-0.013543 0.02087,-0.017517 0.034924,-0.00883 0.014054,0.00869 0.025553,0.00174 0.025553,-0.015445 0,-0.017181 0.012573,-0.023467 0.027939,-0.01397 0.015367,0.0095 0.02794,0.00321 0.02794,-0.01397 0,-0.01718 0.012573,-0.023467 0.02794,-0.01397 0.015367,0.0095 0.027939,0.00321 0.027939,-0.01397 0,-0.017181 0.012573,-0.023467 0.02794,-0.01397 0.015367,0.0095 0.027939,0.00321 0.027939,-0.01397 0,-0.017181 0.012573,-0.023467 0.027939,-0.01397 0.015367,0.0095 0.02794,0.00321 0.02794,-0.01397 0,-0.01718 0.012573,-0.023467 0.027939,-0.01397 0.015367,0.0095 0.02794,0.00321 0.02794,-0.01397 0,-0.017181 0.012573,-0.023467 0.02794,-0.01397 0.015367,0.0095 0.027939,0.00321 0.027939,-0.01397 0,-0.017181 0.012573,-0.023467 0.02794,-0.01397 0.015367,0.0095 0.02794,0.00321 0.02794,-0.01397 0,-0.017181 0.012573,-0.023467 0.027939,-0.01397 0.015367,0.0095 0.02794,0.00321 0.02794,-0.01397 0,-0.01718 0.012573,-0.023467 0.02794,-0.01397 0.015367,0.0095 0.027939,0.00321 0.027939,-0.01397 0,-0.017181 0.012573,-0.023467 0.02794,-0.01397 0.015367,0.0095 0.02794,0.00321 0.02794,-0.01397 0,-0.017181 0.012573,-0.023467 0.027939,-0.01397 0.015367,0.0095 0.02794,0.00321 0.02794,-0.01397 0,-0.01718 0.012573,-0.023467 0.027939,-0.01397 0.015367,0.0095 0.02794,0.012979 0.02794,0.00774 0,-0.00524 -0.4589057,-0.4678011 -1.0197904,-1.0279099 C 2.5124563,3.2113365 2.0535506,2.7393314 2.0535506,2.722545 c 0,-0.016786 0.2736163,-0.2949538 0.6080363,-0.6181498 L 3.2696231,1.5167661 11.846686,10.074508 c 4.717384,4.706758 8.577897,8.574216 8.578917,8.594352 0.0022,0.04382 -1.159861,1.224039 -1.205225,1.224039 -0.01735,0 -0.762502,-0.735507 -1.655902,-1.634459 -0.893399,-0.898952 -1.637082,-1.634459 -1.652626,-1.634459 -0.01555,0 -0.05399,0.02829 -0.08544,0.06286 -0.03145,0.03457 -0.07859,0.08576 -0.104773,0.113748 -0.02618,0.02799 -0.0476,0.06232 -0.0476,0.0763 0,0.01398 -0.0285,0.04537 -0.06333,0.06977 -0.03483,0.0244 -0.05694,0.0547 -0.04913,0.06733 0.0078,0.01264 -0.01713,0.0435 -0.05541,0.06858 -0.03829,0.02509 -0.06961,0.06115 -0.06961,0.08015 0,0.019 -0.02515,0.05025 -0.05588,0.06944 -0.03073,0.01919 -0.05588,0.05063 -0.05588,0.06985 0,0.01922 -0.02514,0.05066 -0.05588,0.06985 -0.03073,0.01919 -0.05588,0.05063 -0.05588,0.06985 0,0.01922 -0.02514,0.05066 -0.05588,0.06985 -0.03073,0.01919 -0.05588,0.05321 -0.05588,0.07559 0,0.02238 -0.02514,0.05415 -0.05588,0.0706 -0.03073,0.01645 -0.05588,0.04788 -0.05588,0.06985 0,0.02197 -0.02515,0.0534 -0.05588,0.06985 -0.03073,0.01645 -0.05588,0.04688 -0.05588,0.06762 0,0.02074 -0.03183,0.05857 -0.07074,0.08406 -0.03891,0.02549 -0.06416,0.057 -0.05612,0.07001 0.008,0.01301 -0.0171,0.04444 -0.05588,0.06985 -0.03878,0.02541 -0.06392,0.05684 -0.05588,0.06985 0.008,0.01301 -0.0167,0.04418 -0.05499,0.06926 -0.03828,0.02509 -0.06961,0.06115 -0.06961,0.08015 0,0.019 -0.02515,0.05025 -0.05588,0.06944 -0.03073,0.01919 -0.05588,0.05063 -0.05588,0.06985 0,0.01922 -0.02515,0.05066 -0.05588,0.06985 -0.03073,0.01919 -0.05588,0.05063 -0.05588,0.06985 0,0.01922 -0.02515,0.05065 -0.05588,0.06985 -0.03073,0.01919 -0.05588,0.05321 -0.05588,0.07559 0,0.02238 -0.02515,0.05415 -0.05588,0.07059 -0.03073,0.01645 -0.05588,0.04788 -0.05588,0.06985 0,0.02197 -0.02515,0.0534 -0.05588,0.06985 -0.03073,0.01645 -0.05588,0.04688 -0.05588,0.06762 0,0.02074 -0.03183,0.05857 -0.07074,0.08406 -0.03891,0.02549 -0.06416,0.057 -0.05612,0.07001 0.008,0.01301 -0.0167,0.04418 -0.05499,0.06927 -0.03829,0.02509 -0.06961,0.06115 -0.06961,0.08015 0,0.019 -0.02563,0.05055 -0.05696,0.07012 -0.03133,0.01957 -0.0503,0.04636 -0.04215,0.05954 0.0081,0.01318 -0.01651,0.04449 -0.0548,0.06958 -0.03828,0.02508 -0.06961,0.06115 -0.06961,0.08015 0,0.019 -0.02515,0.05025 -0.05588,0.06944 -0.03073,0.01919 -0.05588,0.05063 -0.05588,0.06985 0,0.01922 -0.02515,0.05065 -0.05588,0.06985 -0.03073,0.01919 -0.05588,0.05321 -0.05588,0.07559 0,0.02238 -0.02515,0.05415 -0.05588,0.07059 -0.03073,0.01645 -0.05588,0.04788 -0.05588,0.06985 0,0.02197 -0.02515,0.0534 -0.05588,0.06985 -0.03073,0.01645 -0.05588,0.04788 -0.05588,0.06985 0,0.02197 -0.02514,0.0534 -0.05588,0.06985 -0.03073,0.01645 -0.05588,0.04688 -0.05588,0.06762 0,0.02074 -0.03183,0.05857 -0.07074,0.08406 -0.03891,0.02549 -0.06416,0.057 -0.05612,0.07001 0.008,0.01301 -0.0171,0.04444 -0.05588,0.06985 -0.03878,0.02541 -0.06392,0.05684 -0.05588,0.06985 0.008,0.01301 -0.0167,0.04418 -0.05499,0.06927 -0.03829,0.02509 -0.06961,0.06115 -0.06961,0.08015 0,0.019 -0.02515,0.05025 -0.05588,0.06944 -0.03073,0.01919 -0.05588,0.05321 -0.05588,0.07559 0,0.02238 -0.02515,0.05415 -0.05588,0.0706 -0.03073,0.01645 -0.05588,0.04688 -0.05588,0.06762 0,0.02074 -0.03183,0.05857 -0.07074,0.08406 -0.03891,0.02549 -0.06416,0.057 -0.05612,0.07001 0.008,0.01301 -0.0171,0.04444 -0.05588,0.06985 -0.03878,0.02541 -0.06542,0.05507 -0.05921,0.06592 0.0062,0.01085 -0.0093,0.04081 -0.03445,0.06659 -0.04268,0.04373 -0.05224,0.04001 -0.143109,-0.05555 z"
     id="path4" />
  <path
     style="fill:#eceff4;fill-opacity:0.960784;stroke:#ffffff;stroke-width:0.00295674"
     d="M 17.073241,12.645875 C 15.877777,11.470619 9.6341457,5.2320367 8.6758455,4.25527 8.3562787,3.9295451 8.1003369,3.657521 8.107086,3.6507719 8.113836,3.6440219 8.086842,3.6129239 8.047101,3.5816639 7.965113,3.5171719 7.974386,3.5055849 8.130597,3.47733 8.191947,3.466233 8.2547148,3.44946 8.2700815,3.440055 c 0.015367,-0.0094 0.053085,-0.0182 0.083818,-0.019545 0.1130666,-0.00495 0.3083009,-0.046933 0.3410346,-0.073339 0.018535,-0.014952 0.046824,-0.019075 0.062864,-0.00916 0.01604,0.00991 0.043804,0.00898 0.061699,-0.00208 0.017894,-0.011059 0.065042,-0.023773 0.104773,-0.028253 0.039731,-0.00448 0.1099562,-0.014794 0.1560563,-0.02292 0.2156397,-0.038012 0.2824567,-0.048045 0.3213038,-0.048246 0.02305,-1.195e-4 0.060768,-0.00716 0.083818,-0.015651 0.02305,-0.00849 0.085914,-0.019396 0.1396973,-0.024238 C 9.6789295,3.191783 9.7669383,3.181538 9.8207218,3.173861 9.9289685,3.15841 10.085834,3.143793 10.42142,3.117887 c 0.122934,-0.00949 0.275658,-0.023971 0.339388,-0.032179 0.411456,-0.052996 1.976864,-0.051031 2.636165,0.00331 0.464186,0.038258 0.552138,0.046007 0.656578,0.057844 0.171514,0.019439 0.325371,0.038629 0.433061,0.054014 0.110188,0.015742 0.286623,0.039457 0.391153,0.052577 0.03842,0.00482 0.09185,0.017907 0.118742,0.029078 0.02689,0.011171 0.06735,0.013229 0.08991,0.00457 0.02256,-0.00866 0.04912,-0.00262 0.05903,0.013415 0.0099,0.016034 0.04423,0.022298 0.07627,0.013919 0.03204,-0.00838 0.07235,-0.00354 0.08957,0.010752 0.01722,0.014293 0.09331,0.033511 0.16909,0.042708 0.178347,0.021645 0.198855,0.025586 0.340984,0.065542 0.06566,0.018459 0.130802,0.026508 0.144752,0.017886 0.01395,-0.00862 0.03358,-0.00239 0.04362,0.013856 0.01004,0.016242 0.04128,0.022222 0.06943,0.013289 0.02815,-0.00893 0.05859,-0.00425 0.06764,0.010402 0.01393,0.022536 0.188186,0.067882 0.2816,0.073279 0.01537,8.879e-4 0.04449,0.011971 0.06472,0.024628 0.02023,0.012658 0.04422,0.015578 0.05331,0.00649 0.0091,-0.00909 0.03207,-0.00362 0.05108,0.012152 0.019,0.015773 0.04531,0.02624 0.05845,0.023261 0.01314,-0.00298 0.04275,0.00233 0.0658,0.011804 0.05557,0.022831 0.390148,0.1091756 0.461002,0.1189685 0.03073,0.00425 0.05902,0.010343 0.06286,0.013544 0.0038,0.0032 0.01642,0.00758 0.02794,0.00974 0.01152,0.00216 0.03667,0.013899 0.05588,0.026096 0.01921,0.012197 0.0475,0.014405 0.06286,0.00491 0.01537,-0.0095 0.02794,-0.00261 0.02794,0.01531 0,0.017918 0.01846,0.025495 0.04101,0.016839 0.02256,-0.00866 0.04857,-0.00351 0.05781,0.011436 0.0092,0.014946 0.02763,0.020479 0.04087,0.012294 0.01324,-0.00818 0.0321,-0.0019 0.04191,0.01397 0.0098,0.015868 0.02867,0.022154 0.04191,0.01397 0.01324,-0.00818 0.03229,-0.00159 0.04233,0.01465 0.01004,0.016243 0.04391,0.021387 0.07528,0.011432 0.0419,-0.0133 0.05118,-0.00864 0.03497,0.017581 -0.01568,0.025369 -0.0086,0.030525 0.02444,0.01784 0.0256,-0.00983 0.04649,-0.00434 0.04649,0.012211 0,0.016528 0.01805,0.023127 0.0401,0.014662 0.02206,-0.00846 0.04445,-0.00236 0.04975,0.013555 0.0053,0.015919 0.04383,0.030929 0.0856,0.033355 0.04178,0.00243 0.07597,0.015185 0.07598,0.028354 1.1e-5,0.013169 0.01807,0.017019 0.04012,0.00855 0.02206,-0.00846 0.04406,-0.00389 0.04889,0.010173 0.0048,0.014059 0.04022,0.031278 0.07864,0.038263 0.03842,0.00699 0.07299,0.015207 0.07683,0.01827 0.0038,0.00306 0.01641,0.00819 0.02794,0.011402 0.01152,0.00321 0.05867,0.021744 0.104773,0.041191 0.0461,0.019447 0.09639,0.037606 0.111758,0.040354 0.01537,0.00275 0.04366,0.014814 0.06286,0.026814 0.01921,0.012 0.03512,0.011646 0.03535,-7.857e-4 2.35e-4,-0.012432 0.01021,-0.0072 0.02217,0.011615 0.01196,0.01882 0.05262,0.039888 0.09038,0.046818 0.03775,0.00693 0.07492,0.015022 0.08261,0.017984 0.0077,0.00296 0.0234,0.0039 0.03492,0.00208 0.01152,-0.00182 0.02095,0.010006 0.02095,0.02628 0,0.016274 0.0117,0.022355 0.02601,0.013514 0.01431,-0.00884 0.03403,-0.00309 0.04384,0.012777 0.0098,0.015868 0.02953,0.021618 0.04384,0.012777 0.01431,-0.00884 0.02601,-0.00276 0.02601,0.013514 0,0.016274 0.0094,0.026917 0.02095,0.023653 0.01152,-0.00326 0.04924,0.00975 0.08382,0.028923 0.03458,0.019172 0.06286,0.02784 0.06286,0.019261 0,-0.00858 0.02929,0.0036 0.06509,0.027055 0.0358,0.023458 0.07352,0.034225 0.08382,0.023927 0.0103,-0.010298 0.01872,-0.00406 0.01872,0.013872 0,0.017928 0.0094,0.029925 0.02096,0.02666 0.01152,-0.00326 0.04759,0.00887 0.08015,0.026956 0.03255,0.018091 0.06713,0.024953 0.07683,0.015249 0.0097,-0.0097 0.01764,-0.00223 0.01764,0.016602 0,0.018835 0.01257,0.026474 0.02794,0.016977 0.01537,-0.0095 0.02794,-0.00395 0.02794,0.012321 0,0.016274 0.0094,0.027003 0.02095,0.023844 0.01152,-0.00316 0.06022,0.015198 0.108216,0.040795 0.04799,0.025597 0.09514,0.038659 0.104773,0.029027 0.0096,-0.00963 0.01751,-0.0021 0.01751,0.016733 0,0.018835 0.01257,0.026475 0.02794,0.016977 0.01537,-0.0095 0.02794,-0.00395 0.02794,0.012321 0,0.016274 0.0094,0.027073 0.02095,0.023999 0.01152,-0.00307 0.08696,0.02857 0.167637,0.070319 0.08067,0.04175 0.146682,0.068512 0.146682,0.059472 0,-0.00904 0.01987,0.00344 0.04416,0.027726 0.02429,0.024289 0.05572,0.037018 0.06985,0.028286 0.01413,-0.00873 0.02569,-0.00341 0.02569,0.01183 0,0.027785 0.107378,0.075329 0.146682,0.064946 0.01152,-0.00304 0.02095,0.00579 0.02095,0.019636 0,0.013845 0.05653,0.04842 0.125623,0.076834 0.06909,0.028414 0.12567,0.061833 0.125728,0.074265 5.7e-5,0.012432 0.01268,0.014833 0.02804,0.00534 0.01537,-0.0095 0.02794,-0.00321 0.02794,0.01397 0,0.01718 0.01257,0.023467 0.02794,0.01397 0.01537,-0.0095 0.02794,-0.00321 0.02794,0.01397 0,0.017181 0.01257,0.023467 0.02794,0.01397 0.01537,-0.0095 0.02794,-0.00597 0.02794,0.00784 0,0.025664 0.129707,0.097508 0.183489,0.101634 0.0164,0.00126 0.05187,0.02429 0.07883,0.051182 0.02695,0.026892 0.06697,0.048894 0.08892,0.048894 0.02195,0 0.03991,0.014668 0.03991,0.032596 0,0.017928 0.0076,0.024971 0.01694,0.015652 0.0093,-0.00932 0.04265,0.00701 0.07408,0.036287 0.03142,0.029277 0.0678,0.046637 0.08084,0.038578 0.01304,-0.00806 0.02371,-0.00158 0.02371,0.014404 0,0.015981 0.03143,0.036945 0.06985,0.046587 0.03842,0.00964 0.06985,0.029483 0.06985,0.04409 0,0.014608 0.01126,0.019603 0.02501,0.011101 0.01376,-0.0085 0.03291,0.00513 0.04257,0.030289 0.0097,0.025161 0.02488,0.038419 0.03384,0.029462 0.009,-0.00896 0.042,0.00767 0.07342,0.036944 0.03142,0.029277 0.0678,0.046636 0.08085,0.038578 0.01304,-0.00806 0.02371,-0.00134 0.02371,0.014936 0,0.016274 0.01886,0.029589 0.04191,0.029589 0.02305,0 0.04191,0.012573 0.04191,0.027939 0,0.015367 0.01886,0.027939 0.04191,0.027939 0.02305,0 0.04191,0.00986 0.04191,0.021915 0,0.024505 0.155509,0.1221869 0.185388,0.1164495 0.01052,-0.00202 0.03047,0.016576 0.04432,0.041326 0.01385,0.02475 0.03567,0.038522 0.04848,0.030604 0.01281,-0.00792 0.03081,0.00519 0.03999,0.029123 0.0092,0.023936 0.02804,0.036509 0.04191,0.02794 0.01386,-0.00857 0.03272,0.004 0.04191,0.027939 0.0092,0.023936 0.02804,0.036509 0.04191,0.02794 0.01386,-0.00857 0.03246,0.00332 0.04133,0.026428 0.0089,0.023104 0.0259,0.040402 0.03785,0.03844 0.05599,-0.00919 0.09325,0.00568 0.07761,0.030989 -0.0095,0.015367 9.89e-4,0.027939 0.0233,0.027939 0.02231,0 0.04811,0.019656 0.05733,0.04368 0.0092,0.024024 0.02811,0.036669 0.04197,0.0281 0.01386,-0.00857 0.03242,0.00321 0.04123,0.026168 0.0088,0.022962 0.03393,0.041749 0.05582,0.041749 0.02189,0 0.04734,0.019656 0.05656,0.04368 0.0092,0.024024 0.02811,0.036669 0.04197,0.0281 0.01386,-0.00857 0.03242,0.00321 0.04123,0.026168 0.0088,0.022962 0.03527,0.041749 0.05881,0.041749 0.02353,0 0.04278,0.012884 0.04278,0.028631 0,0.015747 0.03143,0.040582 0.06985,0.055187 0.03842,0.014606 0.06985,0.03944 0.06985,0.055187 0,0.015747 0.01751,0.028631 0.03892,0.028631 0.08049,0 0.102872,0.1614814 0.02827,0.2039494 -0.02159,0.012289 -0.03925,0.037553 -0.03925,0.056143 0,0.01859 -0.02514,0.049504 -0.05588,0.068697 -0.03073,0.019193 -0.05588,0.052304 -0.05588,0.07358 0,0.021276 -0.01886,0.04592 -0.04191,0.054765 -0.02305,0.00885 -0.04191,0.032312 -0.04191,0.052147 0,0.019836 -0.02563,0.052074 -0.05696,0.071639 -0.03133,0.019566 -0.0503,0.04636 -0.04215,0.059543 0.0081,0.013183 -0.01691,0.044756 -0.05569,0.070163 -0.03878,0.025406 -0.06346,0.057582 -0.05486,0.071503 0.0086,0.013921 -0.0099,0.038956 -0.04102,0.055635 -0.03116,0.016678 -0.05666,0.048299 -0.05666,0.070267 0,0.021969 -0.02515,0.053401 -0.05588,0.069849 -0.03073,0.016448 -0.05588,0.045298 -0.05588,0.064111 0,0.018813 -0.02515,0.049909 -0.05588,0.069102 -0.03073,0.019193 -0.05588,0.053207 -0.05588,0.075586 0,0.022379 -0.02514,0.054147 -0.05588,0.070595 -0.03073,0.016448 -0.05588,0.04788 -0.05588,0.069849 0,0.021969 -0.02515,0.053401 -0.05588,0.069849 -0.03073,0.016448 -0.05588,0.04788 -0.05588,0.069849 0,0.021969 -0.02514,0.053401 -0.05588,0.069849 -0.03073,0.016448 -0.05588,0.04788 -0.05588,0.069849 0,0.021969 -0.02515,0.053401 -0.05588,0.069849 -0.03073,0.016448 -0.05588,0.046876 -0.05588,0.067618 0,0.020742 -0.03183,0.05857 -0.07074,0.084063 -0.03891,0.025493 -0.06416,0.056995 -0.05612,0.070006 0.008,0.013011 -0.01711,0.044443 -0.05588,0.069849 -0.03878,0.025406 -0.06392,0.056838 -0.05588,0.069849 0.008,0.013011 -0.0171,0.044443 -0.05588,0.069849 -0.03877,0.025406 -0.06392,0.056838 -0.05588,0.069849 0.008,0.013011 -0.0167,0.04418 -0.05499,0.069265 -0.03828,0.025085 -0.06961,0.061154 -0.06961,0.080154 0,0.018999 -0.02515,0.050248 -0.05588,0.069441 -0.03073,0.019193 -0.05588,0.050625 -0.05588,0.069849 0,0.019224 -0.02515,0.050655 -0.05588,0.069849 -0.03073,0.019193 -0.05588,0.050625 -0.05588,0.069849 0,0.019223 -0.02514,0.050655 -0.05588,0.069849 -0.03073,0.019193 -0.05588,0.053207 -0.05588,0.075586 0,0.022379 -0.02515,0.054147 -0.05588,0.070595 -0.03073,0.016448 -0.05588,0.04788 -0.05588,0.069849 0,0.021969 -0.02514,0.053401 -0.05588,0.069849 -0.03073,0.016448 -0.05588,0.04788 -0.05588,0.069849 0,0.021969 -0.02515,0.053401 -0.05588,0.069849 -0.03073,0.01645 -0.05588,0.04688 -0.05588,0.06762 0,0.02074 -0.03183,0.05857 -0.07074,0.08406 -0.03891,0.02549 -0.06416,0.057 -0.05612,0.07001 0.008,0.01301 -0.01711,0.04444 -0.05588,0.06985 -0.03878,0.02541 -0.06392,0.05684 -0.05588,0.06985 0.008,0.01301 -0.0167,0.04418 -0.05499,0.06926 -0.03828,0.02508 -0.06961,0.06115 -0.06961,0.08015 0,0.019 -0.02515,0.05025 -0.05588,0.06944 -0.03073,0.01919 -0.05588,0.05321 -0.05588,0.07559 0,0.02238 -0.02515,0.05415 -0.05588,0.0706 -0.03073,0.01645 -0.05588,0.0453 -0.05588,0.06411 0,0.01881 -0.02515,0.04991 -0.05588,0.0691 -0.03073,0.01919 -0.05588,0.05063 -0.05588,0.06985 0,0.01922 -0.02515,0.05066 -0.05588,0.06985 -0.03073,0.01919 -0.05588,0.05321 -0.05588,0.07559 0,0.02238 -0.02514,0.05415 -0.05588,0.07059 -0.03073,0.01645 -0.05588,0.04788 -0.05588,0.06985 0,0.02197 -0.02515,0.0534 -0.05588,0.06985 -0.03073,0.01645 -0.05588,0.04788 -0.05588,0.06985 0,0.02197 -0.02515,0.0534 -0.05588,0.06985 -0.03073,0.01645 -0.05588,0.04688 -0.05588,0.06762 0,0.02074 -0.03183,0.05857 -0.07074,0.08406 -0.03891,0.02549 -0.06416,0.05699 -0.05612,0.07001 0.008,0.01301 -0.01711,0.04444 -0.05588,0.06985 -0.03878,0.02541 -0.06392,0.05684 -0.05588,0.06985 0.008,0.01301 -0.0167,0.04418 -0.05499,0.06927 -0.03828,0.02508 -0.06961,0.06115 -0.06961,0.08015 0,0.019 -0.02515,0.05025 -0.05588,0.06944 -0.03073,0.01919 -0.05588,0.05063 -0.05588,0.06985 0,0.01922 -0.02515,0.05066 -0.05588,0.06985 -0.03073,0.01919 -0.05588,0.05063 -0.05588,0.06985 0,0.01922 -0.02515,0.05066 -0.05588,0.06985 -0.03073,0.01919 -0.05588,0.05063 -0.05588,0.06985 0,0.01922 -0.02515,0.05066 -0.05588,0.06985 -0.03073,0.01919 -0.05588,0.05321 -0.05588,0.07559 0,0.02238 -0.02514,0.05415 -0.05588,0.07059 -0.03073,0.01645 -0.05588,0.04788 -0.05588,0.06985 0,0.02197 -0.02515,0.0534 -0.05588,0.06985 -0.03073,0.01645 -0.05588,0.04788 -0.05588,0.06985 0,0.02197 -0.02514,0.0534 -0.05588,0.06985 -0.03073,0.01645 -0.05588,0.04688 -0.05588,0.06762 0,0.02074 -0.03183,0.05857 -0.07074,0.08406 -0.03891,0.02549 -0.06416,0.05699 -0.05612,0.07001 0.008,0.01301 -0.01711,0.04444 -0.05588,0.06985 -0.03877,0.02541 -0.06392,0.05684 -0.05588,0.06985 0.008,0.01301 -0.0167,0.04418 -0.05499,0.06926 -0.03828,0.02509 -0.06961,0.06374 -0.06961,0.08589 0,0.02215 -0.0255,0.05393 -0.05666,0.07061 -0.03116,0.01668 -0.04967,0.04163 -0.04113,0.05545 0.0085,0.01382 -0.02204,0.05291 -0.06797,0.08686 -0.04592,0.03395 -0.07902,0.06916 -0.07356,0.07824 0.0055,0.0091 -0.0053,0.03055 -0.02388,0.04772 -0.02569,0.0237 -0.301117,-0.231574 -1.145516,-1.061699 z"
     id="path5" />
</svg>
